<mxfile host="app.diagrams.net" modified="2021-06-15T19:21:49.306Z" agent="5.0 (Macintosh)" etag="CKzkPMn8HwbDmAwaaqiE" version="14.7.8" type="github" pages="6">
  <diagram name="Pajaros" id="10a91c8b-09ff-31b1-d368-03940ed4cc9e">
    <mxGraphModel dx="946" dy="615" grid="1" gridSize="10" guides="1" tooltips="1" connect="1" arrows="1" fold="1" page="1" pageScale="1" pageWidth="1100" pageHeight="850" background="none" math="0" shadow="0">
      <root>
        <mxCell id="0" />
        <mxCell id="1" parent="0" />
        <mxCell id="62893188c0fa7362-24" value="" style="rounded=0;html=1;labelBackgroundColor=none;startArrow=none;startFill=0;startSize=5;endArrow=none;endFill=0;endSize=5;jettySize=auto;orthogonalLoop=1;strokeWidth=1;fontFamily=Verdana;fontSize=12" parent="1" source="FflpXugrEhwSwH_WfC18-4" target="FflpXugrEhwSwH_WfC18-2" edge="1">
          <mxGeometry x="0.1373" y="-16" relative="1" as="geometry">
            <mxPoint as="offset" />
            <Array as="points" />
          </mxGeometry>
        </mxCell>
        <mxCell id="FflpXugrEhwSwH_WfC18-2" value="" style="shape=image;verticalLabelPosition=bottom;labelBackgroundColor=#ffffff;verticalAlign=top;aspect=fixed;imageAspect=0;image=data:image/png,iVBORw0KGgoAAAANSUhEUgAAAggAAAEECAYAAABN1syFAAAgAElEQVR4nOy9d1QUWb/vPeeeu9Z73vdd995z7l3vcw466ZlGCmhAFJqcBUFSk1GQLIqRoCQlKZkCHcM46iRnDDOOOSd6dMIzOs8EZ5wcdcxhjJgI3d/3j+raXdXdhEawWnqz1mdRtSvt2lW9f9/a4fd7RsYoQKFQKBQKhSLkGakzQKFQKBQKxfygAoFCoVAoFIoBVCBQKBQKhUIxwEAgnChcC7AqSbixZA/GOvhIXigUCoVCoVg6IoEglTDQR+pCoVAsiR279kP4t2vPQcgYBewcvWHr4NnnsbYOXrBz9Jb8HigUytBjukBYeqzv7W0fUIFAoTxFAMCvv/4OGaPAn+cuiNJPn/6+z2OvXf8LACS/BwqFMvT0LxB4g7/iQ2DbKWDpB8CtB1za9Xtc+vIPAVYFzce/A69+DOz9Vru9Q3yuHrVuWa0GNvyTCgQKRWIA4N69+2DknqI0/q+zsxO2Dp6itLDwJCwoqRalyRgF7tztIOtNzS9Lfm8UCmXw9C8Qrt0FrnRw8GmPurn/tx4Av17jltd+ArzyEbf8/WVg9SfAiTPA8uNc2pfngVUfic9NBQKFIjnff/+zgaGXMYYtCN//8DNkjAI9PT1kv6tXr5NlRs6JCPlYHwSHxkl+XxQK5fHoXyDceQjNhVvQXLhF0jTfXxbto9FouP+bvwDO3hS3Fhz8AVj6ATQ7T1OBQKGYMdWLWwAAt27dhowxFAgPHz4yEBJCgcAfAwDd3T0YY+sm+T1RKJTB079A6FEDx37hln+7DrR+AJzTioAHndpWBm3rQqsK+Pg3bvmPG9z/v+7puipe/Vg8RoEKBApFcm7fvkOW9QXC77+fIctdXd2QMQocOHhUIBCuiQSCfKwP5GN9AQCXL1+R/N4oFMrgMXmQombZsT7XRdv6G9BIBylSKJKSnZsP/T9bBy/IGF1rwK1bt/HOxi0AALVaje7ubiIKUtPyyH7vbtkhOk9x6WLJ749CoQweOs2RQqHAw2cS3LwmGqSPdQkgUx3tnYxPe2TkHhinCCLrXr7hsLH3kPyeKBTK4yESCN+UrJdcHFCBQKFQKBSK9Bh4UozxjsGMiRmSkBmUKnmBUCgUCoVCobEYKBSKEewcvTB7Tj7m5RciOiYZIWGxFArFRKJjJyM/vwizZ8/r1yupOUIFAoVCIdjYu6OsrBxyJ+o+mUIZShzG+qCsrBw2du6S52WgUIFAoVAgYxTw9Q9HRFSi5PmgUEYyUcpkePuGSZ6PgUAFAoVCgafPRLi4BUqeDwrFElB4TICbZ7Dk+egPKhAoFApi46ZIngcKxZJISJoqeR7646kWCOFRU+DpM+mxzhEZk4pJEcmS3wuFIhXzF5RIngcKxRIpLFogeR76ok+BoB+8ZaAcOXpsUMcJaWh6GUfbj0PGKKBWa+DmqXPiUrSgEgC4GBDaP33HLMb+hNsrqxoMtodFJBnNS09Pj8gdrT7Wtm59ltWRI1x5+AZGSf7AKRR9fPwfT2RTKJTBETAhEq4eYcOGu3ckxrkOviujV4EgH+tDjN7UzFkmndTbP4IY98Fy/MN/oLK6ETJGYWB4u7u7EThBSda7uroM9ulLoNg5egMAEpKzSVpTywqjx7zx5sZ+xc7dux24fPmq0f2EIoYKBIq5MSkiXvI8UCiWTERUEmzlnsOKi0cYxgxi9kSvAuH27Tu4cuUq9uw99NitAYPh3r37CNCKgP6uP3teqUkCobK60eh2AAaFCABJU6b1eq6c3AIAQFRMqsE5Z80pwaNHneQ8VCBQzI15+UW9bhP+3bp1G1k58yTPr9R8/MlJUbm8uvYt0XZrWzeo1WpJ6kwpEf51dNyDQtDiK4z3cerUacnzam7k5xcNu0CwlXvC2SXI5Lz1KhD4F5xvPncc50e2eflFAAACg2NIWnd3N65fvwEZo8C8goUGP5A1a9aLXqLe1IxvQBR6++srr2fOnjNI8/INR1RMKhzH+Yu2Layo71UgCNfv3b+PR48eYbwiCHaOXr1eOyYu3ahA0N+PCgSKuVFZWdnrNoALznT3bgcxehqNRvI8SwkvEK5evYabN28BALq6uiBjFAgKiRtQfTUSAYBHjzpJ+G/+/p1dAwEAN27cxJ9/XgAAHDlyTPL8mhOVlZVPRCDYyj3h6ac0KW9GBcIbb26EWq2rCPhmcuE+wpaF7Tv3iSoOfYHw08+/Qq1Wk/XN7+7o9wfEb/cLjMLDhw973QcAVq56zWCbRqPBrVu3cbejAwBw//4Dg2Pf2biFrH/3/Y+iPLm4BZPzP3rUCQDo1FYEPJcvX8XlK1chYxRUIFCeSmpqanrdxhtCfn2DNqLjilXrJM+3VPACgV8X1o1vb9iCO3fv4v6DBxYpED786FPIGAWCw+IBAIy9BxSeIXjzrc2i/bq7uyXPrzlRU1PzxASCnYPxD93eMCoQAKC+YRlZZ+w9ABh+9Xfcu4f797kfAyPXuZHUFwjGfiwA4OUX3ucLJ2MUKJxfgc8++7LX/fJmLQAA/P7H2V73sbFzBwDML64iaW6eE0XjAwDgiy9Oke1qtVokkvg8bd+xDzJGgaTJOaL7ogKB8jRiikDg0yzN+AnR72IAAJXqI9E+lioQhH/GWpr4FhdaD4p5kgLBVm6au2cDgRCflGXwsIkB/fJroy/GST0DLhQIDs6+vZ5vQUm1wfkuX77S6/79vaD9bf/SSP5ljO7LSH9/H/9IUdrJk1+Q/QDgy6++wRtvbsIbb27Czl0HAABvvLkJcQkZRq9PfxgUc8MUgSAcuCx1vqWCFwiff34KALD+7fcM9rFUgXD7zt1e34/u7m4A4oHhFI6nSiAAwNVr1zE9r1DEB8c+MnjwGo0G72/dDQBIz5pD0gfSgtAXFVWNOP7hPyBjuBkCkTHiKI8ePoZuKoHexzXw2/fsPWSQzld6Xr7hBvvHxKWJ0r77TtcN0ddfSflio9enAoFibpgiEPhxCIMZDT1SEHYx3Lp122jdZqkC4eNPTiIwOAYA8PU33xm8N4/rs2ak8tQIBHev0D4rAABITcuDjFHgwsXL5EewsKJO9IPQFwhnzvyJnp4esm7v6IWurt77oVQffITK6iZyTWN5TE3PI2n60xy7u3tEYw5WrnoNAGBjb3hfGo0G1/+6YZD+44+/AACsbd0gYxRQeE4EAMzNLzOaZ9rFQHka6U8g6P8tXfaq5HmWEqFAGKPtunzwQDxGypIFgvC9kTHcTC5jf1Ln15x4agTCnbt3RYMJ9eEVc+vSV7QGV+ec6PKVq+RYY7MY9LsOUtNm9Hqd63/dQGh4EnnZ9LdnT5tn8MLxhpxHf3xBYEiswXneeHNTny/rN6e/F52jenFzr/tSgUB5GulLIEQqUwjCGUuWTGBwDCKVKWQ9PHoKIpUpovonPGqKaB9LQPiO2Dp4IlKZgrCIZDi7BoreIx6p82tOPDUCgUKhWBZ9CQQKhTL8UIFAoVDMEioQKBRpoQKBQqGYJVQgUCjSQgUChUIxS6hAoFCkhQoECoVillCBQKFICxUIFArFLOlLIOybuRT7Zi5Fc+J8kmZv70nSbe08TL4eWBVu1u6R/L4HS2tSCbl/Y2W1OnWR6c8gdh7AqgZVnuYCf/+RntEkLSNoitGyMuVd+Sh/5E+rpQKBQqGYJX36QWBVAKuCuqWdpN2p30/S7e1Nq2xkjAI3luzGZ0WGsVOeFj7Of5Xcv58LF7FwjK0bSfumZL3J50wNSAZYFazN4P4GC3//15fsNkgDqxrUOXuaj2J1aoXk9zbc8ALh7c0HiBF/e/MBvL35AF59fRsVCBQKRRr6EwiPGg+JKniwKlyo2iYSCLHeMdg/cynYpGLIGAVs7TyQPymHfE26jQ1A/qQcjHf0Q/6kHMwKzYKM4VojNmc3YFly6VNjHIUC4fdF70LGKHBg5jIDgTDG1g0rpyzE9twWhLlzLtvzJ+Ugf1IOORe/HuYeKUpfGD0Le/JaMcU/SfL7HSh8yxD/rlhr0/5aslv0/mRPmIqjc1agJmYuZIwCAS4TkT8pB+7OgZAxCkR6RpOyyJ+Ug4wgzmeCu3Mgdk1vxZK4AsnvdajpTSBMmJgID+9JVCBQKBRp6E8gfFf6DsCq8NWCt+DuHAiwKqQHTiECwc7OA2BV+Ll8EzQt7cQYCFsefl24WZR+t34/Wf5ryW5cqdmJbbm9OyEzJ3iB8EnBGtE9fTB3lUgg3Krdi7v1+3G7bi/AqmBj64Zt05oNxFZR+HQsm1xK0k8UrgNYFU4VvyVquTF3wKqwYkq59p5yMXNihvY+1pN7i/ZSAqwKP5ZtBFgVzlVuJcd+X/oOWRaW67elb4OxdQdYFX4q34SHjYeQFTRV8vsdSnoTCC5uwXAaH0AFAoVCkYb+BMIPZRtwoWorwKrwsPEQupuPIDckXdSC4Ds+BK1JxfhaYAz4r2r+PKeK3yLLQoGgbjmK3JB0ycthoPACgc//ZL9EgFVBbu8lEgjWjALTgtPwdsYSgFXhldRFpCvig7mr8Em+TmAIBcIPWuP5Xk4DHOXekt/vQAGrwurUCvKegFXhSs0O/FC2QSSKQt0jsHLKQtwQtCxcXbxLVKZvpS8my9+Wvg0nB2+AVeFW7V5MfopaVQaKUCDwIoFffm39LioQKBSKNPQnEH4q3wi3sQHkyy53QhrmhGURgbBfKwRWpSxCa1KxwRfyG+mLAVYFxtadpPECgbFzJ6JisP3UTxqhQFBrW0yExo0XCGBV+KPiPWRNmAqwKhybt5qkg1VB09KOB40HIWPEAkHGKLAyZSExslLf70ABq8K6tGpkBKaQe7RmFPht0bvkPq5phUBN7Dx8teAtkh7kGgawKqyZWmnw/nxb+jZkjAIuTn74eeEmgFXhT23Lw0iBDlKkUChmSX8C4eeFm8kyX3nPj5hOBMJ5betClFc0upuPiCp4fl0jaCrnBYI1w31Nl0fNemoFwpvpNQCrQmNCEbk3oUBYn7kEr6QsEgkEhUBsjXfyg4wRC4Rjc1fhk4K1UM1Z9dSUCX+/b2UsIcv8M+ffDxmjQEf9AYBVIdorxuCZ8+s3BDNceIHgIPeCpqUdMydmci0JdXslv9+hhAoECoVilvQlEM5XbcMnBWsgYxTYPb0VP5RtgIzhBo+dr9oGO20Xw5mKLbhSsxNTA6bgfNU2cnzWhFScr9qGBq0B5c/5U/kmyBgF2ueswp26fbi6eKfk5TBQdk5nRfeov9w+ZyUpo5u1e9CQUITzVdtEYyzOV20THbckLp+sOzv64urinbhdtw9TAyZLfr8D5XzVNqxKWUiWP8znBNHXxetF93qlZicuVG3DlmlNovTX0qpxvmobJrqHi86pmrsKMkaBH8s3oqN+P34p3yz5vQ41VCBQKBSzhDpKolCkhQoECoVillCBQKFICxUIFArFLKECgUKRFioQKBSKWUIFAoUiLbxACAyOAQADg65Wq9HYtJwKBAqF8mShAoFCkRZeIPB/vCEfO94fAPDKq29SgUChUJ48AxEINbHz8GP5RqzPXGzy+b8qfvOpmq7XH5Ge0ZgamIypgcnwHR/8RK9tzSjItYXp4R4RRtP1AatCV9ORYckbf30p3EOnBCRhamAyUvSuzefJbWxAr8fWxxYArApjbN0ke6dqamrwwQcfY3pekdEWhLZlq6lAoFAoT56+BIKfSwiZny6kJmbegM8/0gSCMBYDT2F47hO5tq3WrTVYFb6Y/wZJF+alr+OHUyDol0l38/Bcxxh8vBDh/edpfSaAVWFOWFavx5qLQLhz5y5pRaACgUKhmAUDieYY4jYJMoYLrsSnjWEGVqGOVIGgX0b8+hT/JDjpuUhmbN1RFD7dqBGaNykbdnphnmdOzDC6Ly8QNC3txBER775ZGAdDxigwhnFDYfg02Nt5ivLam0CwZhSYG5ZjdFuAy8R+I3cKRUtDQpEoL3J7T6MukjODUhDqHmGQPkERhsl+4v19xgdjoiLc6LWFAiHGOxYyRoG79ftJmQgFQnrgZER4RpH1/gRCrHcsxjv6Gd2WqQ0k9bjU1NTAzsGLCgQKhWJe9CYQnB18AVaF37QRC3lKIvMAVoUp/knobj5KDAEftY937gNWhfLoWSNWILg6+SNb60ZZ09Ju0NpysXq7dv/VovScYC7Q0KHZy0Xprk7+qIqZKzL2W/UCWPECgb+ujFFgpdZT472GAyRN/9yLY+eRZ9LVdATjHLlne6VmB2SMAt+UvA2wKuI6OlgrCMGqcLVmJ8CqoOijmZ7f91TxW/AaN0EUwZE/J39PQpfb+i0f1nrp35VuMNhXYySAlVAg3KrdS44pjpxOBIL+ufnzCAUCX4YOci/YCEJ4g1XhQQPnFvvw7BUk7XzV0Lh8rqmpwVenvsVXp74FAHx16lsqECgUivT0JhC8xk0AWBW+1gZZ4pnkHgmwKsyPmI5VWuPEf8V2Nx/F5ZodeD2tmlT6I1Ug8PQ0H4WNrTs0Le24UbsHAa6hmOQRaXDP4R5RAMuFz5YxCpEx4/vIwaqwczqLANdQ1MYVGJyDFwixXrEAq8LvFe8BLBdm+X7DQdH+1owCkzwicUMQgpkXCMIuAD5SYrxPHAJcQ3Gperto/4E+O32D/8qURYjwjAZYFQJcQxHgGoru5iP4qXwjZIwCTg4+8HAORP6kHHKNi9pr2wi+5ndMbxGdA6wKucFpomvzAmFzdj3Acl0+YFWwtXMXtSDY2XnAxdEP07XBxmSMTiDwhp8XR3fq9hlcV27vSfYLM9Ly8Ti/Qd540xYECoViNgyki0GYxn8J8k3OYFWYFpwGsCpS2Xc2HSZfXCNVIBgrq+7mI7i+eDdBbu+Fs5VbAFYFlTYcdE/zUbJ/fXyRwTnuNRwQnUO4nRcIyX4JJCw0nxehQDitbRH4cN5q0dc8n0ewKtzXPh8+EJfwmvx1wapwSdsS0h9gxeMiZIwCtbH5Rs/NX/NS9XZsy+VCYNsLxlcIz3GpZofBOT4pWCva55EgsBV/jgtV20iEzTlhWSRU+c3avdg5nTUQCHw5OTv4is4jvG5qQDIRCEP9Gxwq408FAoVCGTL6Eggbs+pJRflNiS7q4r2GA2Qf/ouUT+P3yZ6QChljOQLhlDY64dywHKydWoX1gsBFZyq2QK4dv8ELBL7pfdnkMmKs+SbuqYGT8Y+CtSiOnCG6Bi8QpgZMJsaPbyp/IBAIYLnuAzs7D9HYBL4FYXYoF41z14xWkv6w8RCS/BLwoPEgAl1DSfrjCAS5nMvjJwVrkBM8lbS2bMlpBFgV7Ow8sC9vKREILUkLAJbrqtg9oxWKsQGI84kDWBVeT6vGgsgZuKztFhEiFAidTYcBVoWJbuFwcvAhAqEsaibXCiD3wlpB1EhhF4OwrA7OehlgVSiLmgk2qRgHZi6DjFFQgUChUCyH/qY5FkzKFTUdv5ZWLdq+WPuVGOMdAxmjq6D57ZYiEGSMAh/MfYWU06Lo2ZAxCuSGcK0rj7TlwgsEGcMNpAPL9f3zX65nKrYQw6/0ihGdnxcIWVrxBVaF7bktkDEKPGjUCYS0wClaMXCYjC/g9+cHKd6q2wuwKniPD4a9vSe6tC0LnU2HYa293uMKBBmjgNJbScpEGKaZb8LnZxvYawdq8tEvwaqwJrUSMkaBhdG6iJ/6rQcyRiwQKpRzyPJ4Rz9RF8PVxTu1LTeFRgWCp3MQwOoiSm7Vtm6AVWHFlHLIGCoQKBSKBUEdJVEo0kIFAoVCMUuoQKBQpIUKBAqFYpZQgUChSAsVCBQKxSyhAoFCkRYqECgUillCBQKFIi1UIFAoFLOkL4Egl3tBbu8lSlN6KfFGev9Bm+ZpfSLYaD3nDRS5vRcCXCbCa9wEk+8lwTd+2GdM2Nl5QC73Mkj/vuwdWA/A/bSxuf4DwXPcBAS6hsLByLUHcs0LVduGtVzkci/Y6bljXhw7D7laz5F9sX/mskGVyVgHH0x0mwR350CTj92b12Y2s2uoQKBQKGZJf46ShD4P+DS+Yg33jEKMTyzZFuMTS+bQD0Yg8D4VhDToORPqiychEPhpjkJvf1MDJwOsCgsiZpBycHPmvCNO8ogUlZGpAqEwfJpBmQinSg6EJyEQwKrwlZ7XTaGfBqV3jMG74uzITe0cjEDgfRYIUXopB3w8FQgDgwoECsWCMVUgCDlftU1UyXLOd9ogY0wXCLdruXnxVxfvFJ0PrAouTv4DOodUAsFYudXE5kPGKPBT+UaDMhpoHm20bpCF+/9QtgFgVbhVt3fAeZZKIAgR+irg9+fjUpgqEPgy2ZPHOXoSBhEb6DmoQBgYVCBQKBbMYFsQJrqFG3zBCdEXCMLWgQfaeATGzitMs7PnHAN9VvQazmodCMkYBRZEzgBYFfFuB1aFO/X7JBMIvEOeRO31eXi3xsJ7Ey6vSikXbfccFyS61r6ZnJfBUHdxFEN+f95TIJtUbHDuXTNaRdeUqgWhq/kI8UpojM+KXjMQCOqWo2T7mYotonMKgy4J0+dH5IqcIPHbVXNWAqwK00PSSJ6+KVlPBcIAoQKBQrFgHqeL4Y9F7w2oBeHNjMUG+4W6GTd6xvJws3YPIjy5YEdh7hHo0UaRVLe0w8nBG2BVCHQNNQuBwOeZb0HgXVQbu0+wKsRqwxP/WLbRIFKh/rG9nUN/2cXJj4gTPl1KgSBjFHg4wBaEi1W6YFF8sCXhORltmn5Z8UGntuQ0YlXKQoMy+bPyfcRr3TbLGNqCMFCoQKBQLJgnIRDu1O8z+HI8Omdlr+flWRw7D2BVWJ1aQfb5SGug+fDKzYnzyXFPo0DQR3gtNqkYYA3dWwv3/Th/DcCqcLbifa1oOoptuVwExMLwXLL/0yIQjJVJsl9iv+/Kp4VrAVaFTIEbaj4iZmZQKtcaIXhfLVUgOI4bWHcdDxUIFIoF059A6G4+ig/zX8WH+a+iVWuw+Ir1s6LXAVYl8t1/ffEuyBixQGhLKgFYFdzGBsCaUWBtWpXBtRYJ/O2vnVplEK1QxijwXek7Rg0sH8DnSQqEj7Rl8mH+q0YFwsFZL0PGKHBMG8VRWKbC/H9b+g5kjAKHZi3v9RmAVeGf81/HK6kVZHDepqw6yBgFGEEUxAiPKOyZ0WZQbk9KINyp20fKJNQ9QiQQhLEi+P03ZNVCxogFwndl3DMew7hhrIMPZoRkGFzrp/JN2nfzCBoTivB96QaDe+4RdFMIy3G/tlvKUgWCh2+0SXmjAoFCsWAGEu6Z54C2Iucr1jG2bqL1XxduBlgupK7+GAR+cB1YLnCRsestiJhucE3htD6f8cEAq8KP5RshYxT4XntOFyc/yJgnKxCE6AsEPrLix/lr4Orkb9RQyRgFwj2iROfhA14JsbXzIJEfeZoSFhh9Tn2tPwmBICTRJ14kECYowkT54gXD+9OaDcYg8IGcwPYeLOrd7EbR9R41HcYYQasOH7TprYzFRsvEEgWCh0+UyXmjAoFCsWCooyQKRVqehEAwteWAhwoECsWCoQKBQpGWmpoaePnHDDmefkq4uIfBxt5j0HmjAoFCsWCoQKBQpMWcf4NUIFAoFow5V04UiiVgzr9BKhAoFAvGnCsnCsUSMOffIBUIFIoFI2XltDq1gvg4GAg5E6aS/ZP8Ekw6diTg7OCL1akV8BsfInlengT2bmMxqdTqiV2PcRqPSaVWsHEc/0TvkwoECoVilpgyzVGt573ucQFr6BGvL95IryFT03iXuk+6vPhpjvz6+aqtAKtCrtaV70AZ6+CDsY4+Jh3DT/NM0k6nNCdmH39GREzD/3nsczoHyzH7+DNPJL8uE+1hrxiL2cefgZ2L85Bcg3EeD2s71373owKBMmIZO8YdNaMiUDcqUvK8UEynP4FwY8kezA7LwuywLMwKzRzSaz/tAuGTAs6LYYVyjsnn0Q9eNBDMXSAkr/qfcHAbi9x9/31IDPtwCQS/rBcx+/gzcI2whYxxxfT9/woZoxhygTD7+DPwiBvT735UIFBGHPY2bmCtotBmpUSblRJLqEB4KulPIFyq3g4nB284OXjDUe4NGaOA17hg0qrAe1NM8kuAjFFgt8CT33aty18Zw4U95tN5UcAv8+lfLniTXPtS9XaS3pZcChljXgJh2eRSgFVhfcYSss2aUZA4EWBVSNAa8uKIGSStp/moQfAiviwWar1JyhgFXkurJtv/rNwKGWP+AiFx+b/D2s4VWVv+DbOPcYbd3m2s6Et9/ER7yBgFEREzVVz6lLX/A7l7uLQZhziDzQuEiYXPkuOdAx3INWe2/wtJj6r6G0mPWPifJH2m6hnIGPFXvGeiNWYffwbxrf8Bma1uGy8QwkutyPH8du8Umeg+bJy03RC2rph9TJePyEX/ScqDJ2fHfx/0b1BqqECgmEze8yFEGPAkvRAgeb4opmNKF8P1JbtE6YytOy5qDXmSXwLcxwYCLOeG2MXJz8AAdtTvh4xRoC6+UHSeUPdwdDUdJvt+Pv91smyndSVsZ+dhVgKBx1qw7UHDQXRqvUTOCcsW3fs5rZF3Hcv5wjcWmwCsCjMnZiBcK6bGO/qRbY0J881eIAjxTXuJbItp5Lobcvf9K2kR4AXCuGB7zDj4r8S4xjb+H8w+/gzGyF2IQJhx8L9BZuuKWR88Q46feZQzyo6eTohnuWMUUQycJ3DHxLX8b8g9nDiR0P7fDPLLX58IAUYnELK2/Bu8kjgREbHwv2Bt64rZx59B5nv/BhvH8Zh1THcMLw7knk5IbPsPbtl9LCkT2oJAsRjkNu5EELRaKVGUW4I6j3S0WSmfXD5sFBhjI31ZjBT6EwgXqsUuevlwuzkTpor2S/JLwObsepHRW5+xhKwv0rq+BcsFFuKP41sT1k6tJPsKQ0PzzAjJMCuB4KwNtWzMyOu3DnyhFTxgVdiS0wQZY1wg1MTOg4xRGA2PfLrkbbMXCInL/x0yRoFxQfaYffwZ2CucMcbBxUA8yBiFqBtCWff/kWW5+1itcJAbdDHwBp+/3hyMzG8AACAASURBVCzVM6LrT1n7P5Cw9N9FxyStEK/rk/b2v2H28Wfgn/WirovB1ZmcM2nl/0LAtBdF5/BL/7soH1nv/1+ifPAtBlQgUCyG7OeDiThotJ+MjPoGBGZloc1KicrR4cN7fRsFsl7QXb9qVITk5TFSGFgXgw+BT+e/nndMZ4lASPZLAFgV8idNM4jTwNhxMRmmBkwWfVkTgZBaQdL57gU+H/b2XIhacxIIMkaBtmSum4EPUKVpaceDxkOQMQrY2LpjDMPFBuDL7QNB4CZjAmFh9CzIGF0cATvtfcf5xEHGPAVdDCv+F8Y4uCCumfuid4tmRKIgY+P/PSiBkPrG/wsZ44rpB/+F7EdaE2xdiXDwTXsJPlP/rhtfoP3yn3VMLBCs7Vwwfe+/Qsa4kut5T5YZjEHgBQIzdjxmH38GYcVWkDGumKXS5WP2MV0+nLwdMfv4M/BMsibHh80f9Vi/QamhAoHSJ9aMAqxVNDHOc4oqkVHfAN9p2SRtuK49ZowCLaOiDbozJrxk2uhvSu+Y0sXAG7RpwWmiPnXhGITbgkA715fsFokBY/3uxgRCb/ubm0CQMQr8VL4RYFV4L6cRjnJvUZ47mw6DsXUXpXU1ccGL6hMKjY5B4M+rH6DJzs7D7AWCkJlH/wUyRoHk1f9Tl64aXAuCkMSX/6PXa/LpfPcDj7WteAxC+jv/j9FjexMIMkaBtA3iY8aHyCFjFAYtJPqtGlye/33Qv0GpoQKB0is+Mm9ilNkX45DZ0IgpVdXwnZaN1lFcuov14P1894a1jQItVobCYLgFiSXyuJWTv2sowKoQ6BoKGaMAo43eKGMUuFW7VxIjTqE8TVCBQHnqKHk2jBjksoS5yGxoRGRhPnynZaPpxRi0WSmR8fyEIb2mtY0CTYKZEW1WSlRH5CGzvgGlyfPQZqVEyXOTJC+bkcRgKif+q7ZbMGJfxijg7hxIWgX42QltySWS3yOFYs5QgUB5arBmxF/vOdW1yGxoRNCMXPhOy0bjC5w4qB49tOMAFggESZuVErXu6cisb+CEScY0XesBHaA4pAy2ckoPnIwtOY2YoAgTpTvKvdGWVIz6+EI4O/pKfn8UirlDBQLlqcBpjDtatYa4WRaPzIZGZDY0wm9aDnynZaPWOpbrbrAaXGxxYyS/GEiu2WalRItNIrJq65HZ0Ii02jpETEkn2+xs3CQvo5GGOVdOFIolYM6/QSoQKJAxCsS/GEAMcblyFjIbGpFeWwvfadnwnZaNSrs4st1xjPtjX8/V2hOtgpYK9vlY5NTUEVGiLCpETnAK2e5k/fjXpBhizpUThWIJmPNvkAoECipGhxNDnFdaxQ1GrK4WiIP4IRsoOMZGgcWjIkTnml1YQYRBZkMjgnJyUGmvEyROQyBIKMYx58rJ0gl1j4Cfi2UEZhoowYpJCHUfWdOczfk3SAWCBPjLvLF4VGSvo/TbrJRosYpG/nOhw9rnPsZGIfqKz6rjmvYTysuJOCh3SjCaP2YQ+UoUtFJwLRWzRcIgpaYaAVmZaH5Wt4+jDRUHw8lApzlqWtqxOC5f8vyaAw5yL3RqPT+CVeF+w0HItT4LTOVB48FeZ3qAVeFk0WuS3+9A+UjPy+TaqZWDOk+YewTAqrAurcpg26XqHSNuZgwVCBTIGAXSX5ggMsgDpcUqCoEy8dz/3OdD0GAVBYX14Cqm8dYeuvNbJ5ABgdHzi4g4KHRLQpuVEnWyWIROzURgZuagWhDsx7iLBj422SUhq65BJA4i581DaGoGGY/QaqWELR2QOOz0JxA6Gg5gxZRy3K3bD7AqKMZatktt3pMkWBU+KViLfXlLAVaFcYMckBngGoqyqJm9lv/TIhA66rn341HjISyfXAZ181Go5q4a9PlWTlloNJ0KhCcLFQhPAPkYNwNhsMomGT/vOIq7f55F561r6Lp9HV23r+P+5Yu4/MXX2DG1xIhYiBYN6Btsc7+7zJMcWzlxuq7fXyAOfKdlY4ksFmGpGWQ9K2SKydcsejZUl9dRSuSVVImEQUZ9A4JycpAemiK6Jzrm4MnQn0C4ungnZIwCTlonQJXayIV8mGPeONrbe+Jh4yGsSeW+GpsTF+Bh4yGMd/QDY+tODMgfi94j53/YeAh/LdlNtkV6RkleHv1xs3aPNq+GA3W/KVmPh1pPikqvGLLs5xKCh42HMMldF7DKRusv4lL1drKfjFHgz8r3ieOlp0UgjHP0BVgV7tTtM9hma+eBh42HkOqfRJ45f78PGw/h6JyVuKt9/k0JRZAxCsjtvfCw8RByg7kQ2rNCs7ROpg5TgfCEoQJhmEl5IUhk+PZPb8DDG1eIIOiNzlvXcO7kIfxyYDtW208RnUNfbASb4FnQcYwunsL8zPnEUPMOkHojYrJuNoHrmP5bLaL+7i/KZ0V4nkgYZDY0YmrNYgRkZaLE2bAbo3UIZ0pQemcwnhRljAKXanZA6R0jClss3If3sMin/1i2EYytOzQt7ThftVW0/8opC4nfBKnLoz/0y0HIj1qvijJGgVjvWLLs7zIRYFVQt7SDTSoWneOGVnDIGAV+XbgZYFV4J7MWF6q2PTUCYUZIBsCq0JK4wGCbrTbYVlpAskH58cubs+txtmILwKoQ5h4JB7kXwKowIyQd4x25oF8d9fuJJ82n4T0xBSoQLJR8va/nexfPo+v2dag7OwENAAA9jx72KxLOnTyEXw5uExnQFc/FYsWzsSZ/0fMtEPXjp4qMdV/iID52KrlOyph+Bk3pjWtgX4xDtnbaopC4khIEZGUSvwrGkPr5WQL9djHU78e5yq0GlfKxua8YCIfX0qoAVkWa4ZdNLoXc3rNXoQFWRb4m+VYEqcujP/iok9aM4ZTb/gQCv5+Loz/AqiC39xIJBLAqIp749adBIMT6cPf64bzVBtv6EwiXqneI7vfonJUigdCQUCQqu+9K33kq3hNToALBAhE6/tngP4sYfY1GqwwEf321JNy/dp6IhHMnD+H9+EJy3qWjuG6HNislHPoY6W9to4B8jDt8Ba6TFyTnoyCtCAVpRciJzkZqaArCk9MNxEF2iF7rxX/1brgZG4Vo3+KUAgNhkNnQiIl5edx4Bq275kUO8QidmoGArExUCWZMSP0MLYH+BML1JbtgzXCBlx40HCTpfCX9Uf5qUYUNVoVftF/CwrRp2uZi4WA+sCo8aOTOefcpEQh8IKX7DQdIMKa/luyGjFHgVPFb5B4qtfvJGJ1AaE0qhoxR4OicFURI6QsEftnJwfupEQjCvCdo40TkBE9FtJeSxKJYlbLQ4B6Fy3J7ThS8mb5YJBCmBiSLxnjQFoQnCxUIQ4yLtYfoC3pH8iJi7NVdXQbioKers9/uhgufq0Qi4avX39BrjleifDTngtjN2hNTXghE3ahIkwdENr4QYyAQAjMzEZ6SgbqX+m+tEJ4re4lhq0FmQyNCpuciICsTAVmZCMzIJMsBWZkIEAyCbLQy//7okcBABIKMUeDonJUAq0K0VzSuL9nF9Qk3HyFBhfhjLtVwfcS80ZQxCnxftkHUevBz+SZy/qdNIMgYBX4u32TQIrJ1WhOyg6eSdWHXCy8QNIIATHwESKFAmBOWbXDep0UghLiFG+S9p+Uoec69tSBp9IJSyRiFSCDoH3+nft9T854MFCoQLIQZz4eQL/o2KyXe9p8pMvT6f+rurn7FQdft63h044pIIJw7eQg/H9imZ+AHLgZeHh2DdS8lYr1NMl4eLW7i762boVCRiDYrJZp7GRvg+5KudULo8Eif9No6JFZWIq64RCQOAjMySACoVqtoWNMZDE+EwVZOwYpJUDj5D3h/OzsP1Mblw0nuLfk9DxUN8UVYojf1U27vicygVFGasIshylOJYLfe44lYMwoUR86Q/N4GS1rgFKxNq0SA60RRemH4NFjr7QtWhRtLdsPW1h1zw7L7PG9eSDp8x49MnxBUIFgAlaPFzn+WPRdnYOg1PWpo1Gp0P7qPzgEIAyH6AoEfwNibCFjz9wQc8s7FX9nVUC9goSlt65U9iqzeBUJOFpq04wRYq2iDHzlPvRXn16F1lJKIgYNVLTha1YLcerFIyKhvEImD2Lg0UWsIY6R/lzI8mHPlNFLQH4NA4eAFgtT5kBpz/g1SgTAElIyeZGCgBzJTwRRunf3JqEj4cp2uu2GTQ2qfQqAviEDIySLiIDQ1Q3RPXjKvXsugURuFkX02hggBdWkrNKVteL2muVdxUMPEia5RO2pkeUkzd8y5chop+I4Pwc3aPZLnw9y4WbtHNO3VUjHn3yAVCI9JzvPBBk38xxa9MqTioOv2dTy6adjNwLNFmU+ufSGrelAC4Q2bZG5goVMC/LOyEJCZhaCMTEQlp6PSnhs4WPhsGIpHh6FuVCRqR0ViyegI1I8Wh2duFQiEjtJWbKoWiIO6evGYg6xMhCenY6Gj2JWz1M/UkjDnyolCsQTM+TdIBcIAyXghyCAmgFzgU0DIQI2+0EHSYLsZeJaO0o0lGIxAODu53KQBjcZotYpG62idQMiva0SWXvfClMpqA5EQkJWJhgEMgqQMPeZcOVEoloA5/wapQBgAJc/quhBC/65zqVr8XJiBkfx2/Z4BG/wr33wyZALhzCf7SR62jc8wWSD8lVfb62DH5c/qxMdSKyWWj+7Nd0G0qIvhSnkbNGXLDAYqBmZnicTBEhtdN0PmixMkf96WhDlXThSKJWDOv0GLFwjhL/n1+dU68e9+Boaw0SoKtjaG7pNNaT24deZ7Ytz/+vmrAbUm9CUQzp08hN1ZCwfdirD6RV0zv7qkdUDHPEiuxL24hdjtpBtkyD4XS4TAo7Kl0JQtQ1698fEHJeMTRWXnau0h+ftgafRXOXmMDSRT9rqbj6BSOVvyPMsYBe5rfTIMZD99huL6F6q2Qd3SDk1Lu9mML7i2eBf25i3td78K5ZxhKZOpAZPR1XQEmpZ2dDYdRrSX9K2B/i4TB/2u/Lpw8xPJIxUIZgxvnCYKWgZ4rBmxV8C7M+tw3H9Gr03se3Pq+jTwD65fFBn7oexi4OHzstlx6qAGKbZZKXHUb0af+95LXIR7cQsJ58OKyLFL/HOIQCgRdDFEFRaKxEH6xBSwgqiNS0ZFSv4uWCJ9VU5tySVk/jk/X13T0i55nmWMYsCzAnqbg/846M/dB6tC9oSpkpdJR/1+HJ69ov9nHjNvyMvk29K3ybl43xidTYclL5NA19BBvyvnK7cOa97I86ACwTxRvuhPDFT1s4aj55cIpi72CKYKds9vwSvPxxkIhAdXLvZp4DtvXcO9y2dx/acvcf/KOZMHKg5EIKwbz8VMWPNS4oDFQWdRi8G9GN13QatIGPBcj9IFlpq2cDEyGxpxrKoZ2wUDFI2NOwjIysSEtAwyfkHq98ESGUgsht62nyhcB2cHH1yo3gYZo8DS5BJcrdkp+vL6KP9VnChch/nh03GxejtCFJwPgHifOJwoXAc7Ow9crN6O96c1Q8ZwX+bH575Cjnd3DsT5qq04X7UVwW7horzxy0uTS3Bt8S58XvT6gO/h+LxXcG3xLvxTcMyJwnXYOZ3FgVkv40zFFqP3zMdIyNU68ZExnBdA4TmOz3sFB2a+jLq4AsjtvXC2YgsuVm9HeuAUcdk5+uLPyvfxaeE6UXprUgk+n/8G/qx8HzJGgfY5K3G2YotoivEnBWtxffEunFrwFkkTCgQ7Ow+cq9yKMxVb4KYXgZMXCPr3Fu2lxKXq7Thb8T4YbTCphoRCnChcB1cnf1yq3o5lk0sNjhuj9bTZ03zUaJkFuYbiROE6MLbuuFzDuVbek9eGa4t34YeyjaJ7/2jeq1ifsQR/Vury8GZGDU4UrkO4RxQu1+zA3LBpkNt74lL1DryZvpgcP9kvCZeqt+NMxRbYaz126guE/TOX4trinTg4a7nRd+VO3X6D9NMlb+Pq4p3YltsiyiubWIzTJW/jJ63jr+H4DUqNRQsE/QF2wm0ONroBiL8llRo1mN0LWBz2nW5S98LtP3/BuZOHBjWTwZQWhO0umQMWCMsEYwqWvcB1NVydtsRw35I2owLhbmy5oBw5PwiasmWi8QdBOdlGBULji9y1eU+QlCdLb5WTp3MQwKpwqpgzQO9Pa0ZH/X501O+HqyPnIEn4tcXYcS51X0ur1n5FcsbiobZ7QvjVLWM4V7zGvu75/Sq0USPv1u/HicJ1Io+DQlK0rnhrYuYa3c6f93bdXtyu24t3MmsR5xMHdfNRbMiqBVgV/qn1Vki+gLWBptRGWkv0g0rxZdJRv9+gTBZETMelmu34qXwT/lj0nug4/ft9I71GlM4HuxJ+kfOtNwk+8egR5P8XI03hYFX4s/J97M1bCjaxWPzMtQKBL5PbdXvJMftnLhV5x+SjSgoJEQg1GaNA9gTuWdbGFxotkygvpeh497GBAKvC6+lc7I4rWtGgX/58Hk4UruvzXfHXOmUCq8KevKXo1MbL0C+TbbnNAKtCWdRMoy1h/Dn5MkkNmIzWpBLcrd+PQ7OXA6wKS5NLRHntbjoCsKrH6qahAsEMcTIyA8FHMM+/eVRU31/TWlY8x42+3xw+f8CG/tLXHw1oP/0uCGOCYNlzsQb30WalxK8p5QMSB9dnLNEJnPsP8dOH/+SEwqiYAbUe8Ohfv+X5WJRGz0SWNlDThJwcBGRlIigjEwsdEwzCVttQz4mS0FvlNE4bRe+Hsg2QMQq8nl6NP7QR9xRO3BcpWBXyJmaQY2aEZOD7sg24U6dzh/tQ4HI4NzjNQCDwx4JVYXZoFlk+U8HNj3d28MGJwnXk2vE+8aJ8JvklcA53avdgQYShB0J9o7JV21LBJhXj5/JNULeIo07eazgAGdO76+cewf4yRoE/Kt4TiQb9FgtbOw+o5q7C71qBMF+bR7AqhGvDWwu/vsGqcK5yq8G5PilYa9BqInT53Nt9C1snyDPvpYvBzyUEXxevx5kKLuS0o9ybCAQ+PDUnfMTlnKoVaatTF5EyOasNWy1jdALBa5xuAHJN7Fz8VL6x12ige/OWGggEGaPABEUYyRt/TK3Wm2WoWzi+Ln7LaHAxGaMggupC1Taj4yP0yyQjKAUyRoG3M5aQ+CK/LXqX7MuL596eweP+Bs0BixUI1drug5Nv7sK+6c0GrQi84drnnj2gvvtvN+4lRv3Kt5/2avSv//A5NzDxp1N9ioObv50WCYGLXx039KR4cEev4yEGMtBQXdJK9l/nkgUAuHb+Akm7mF2D48GzsHSUEmcmFvYpEFSuOb3mpdVKieoxsYiNmYrQ1AwDceDZhwMmyvAykC6GMbacZ0s+Mp9QIHhrK/3TJVwfdIx3DF5JWWRUIKQHTulTIMR4x5DlPyu2YLwTJ1IqY+bAe9wEgFVhpkCQ8PiOD4FKGytiin+i0XsQpvU0H0Vn02GEuIWLjAlYXQwJvitB/1oHZ70MsCq8n9NI0rqajxg1cvbaSJZvptfAZ3wwwKqwNrWC7OczPpgs860VYFX4uni9wbmOaL9g+fRHjYeIsezNOC2ImGF0u7EuBqV3DMCqkBmUAi9tWY938iMCQVieC4y4gua/vvl1t7EBBgKBN+r3Gg4ArAph7hH4VGD8hXl9N6fBqEBwdvQFWBXp1gGrQl1cAUoj8wCWCwrGl7UwMBjPJI8o/KIVVsbuQb+LAawKfyx6DwHaroob2gGpYFX4pGBtr+/YUP0GpcZiBIL/S96Y+BI3ENFaEHXwypUr0Gg0ZD3vuRCkvRBE1juLmgckEO5fvoCOi7/j3MlD+K19p1Gjf+Hzdpw7eQjt5U1YHzgdF7/8wOh+HRf/ICLgYMES/K7aZbz1QDsOYhMzBffiFuJ+/CI8TK2BurgVF7OrseqFOKyzToIqIA8PCpr6nLmg0WiAzm6RQBDy0+RyaEpaoSluhaakFeriVvQUtKBnbhPUc5qgntsITXErHsxtwG8p5TjglmUQ54Gn8fkYIhKCXvKR/N2wZKqrq3vdFuI2yeCrqjeBwAdken9ak+iL+nEEAm9gVXNW4mL1dqMCgU0qRlfTEXw4b7X2KzVItN1Y5Q1Whe7mo9g5vVW0fSACQcYoSBO2sa9w4bKNNpLhF/NfJwJqqARCd/MR7M1r69U4aVracaJwnUGXiIwxLhBC3SMAVoWd01lyf6YIBN5AGyuT3gTC9tyWXsvOVIFQHJFH8n+/4aBRgfBp4VrcrN0jirqp/14YEwh/LdmNI7NXDJtA6Os3KDUWIxB0Hg+Voi/YK1euAAB+2vmhaDzCQLoX/ppRS/b7duP7WOeSTtavfvtP3ewFbcjmEy+vFhnKl5+Pw/nPDhvMdOAFwEqbJNH+6wOn4/Smd3Du5CF8u2WjTpzEL8KjzMWiVoNPQueizUqJu2fP4Js3d6LNSolDvtPJ9r0e03RdCx33AQAPL1/DHydOGTXqv6UuNGlWhJCHhc34MCDP6Hkd+whTTRl+FhSX9LndmlFg5ZSF+KFsA7blNmOy4Au9Nq6AVPoy7X6vplYgwjMatXEFkDEK1MTOI8s+44PJsr/LRLLMn8t9bCBZLtEaoYygFOye0QoP5yDUxhUgyDXUII9tySX4fP7rRmcS1MYViK4jYxSwsXXD5uwGLInLR2F4LtleG1eARdppnKVRMw2OE5IRlIJ/FKzFJwVrwGrDOBu7XrR3DA7MfBlRXkrUxhUgyTfBoOxq4wqwRJCHeZNyDM6VG5JGlhlbd7yX04iqmLlG70/GKJAZlIIjs1dgc3aDQfyUSMHzEb0LETOwNbeJXNvO3hNpgZMNntNEd+Pu0O3sPLApqw4/lm3E5ux6MlZBMTYAtXEFYOx0v/X1mUvQnLgAuSHpovLnl6cKrjs7NIss29p5oDaugHR51MYVIErbXVAWNRNbpjUK9hHHdLGxdceaqZX4OH8Nor1ijL4rlTFzRWnOjr7YNZ1FgfY94d+P2rgCzAzN7PUdG8rfoJRYjEDIeGGCUQPFCwQAeIWZYrC9L8P3cx/eB1dYJ+DhX5dx/acvRbMLjHHmw33ovHUNnTevEnGw2t4wL8Y46TUD6kLDYEz385s4w35kJ/44vpe712mLoSltwy43XXCma9o0zZ17+LhVJzq2T6nG2c+/Jet/zagdtEAQlVliqSj/8jE0MJOUpKRmSZ4HCsWSycmdAy//mCHH008JV89JsJUPvgvXYgRCwosBxCgte1Y3sG9L4iLcuHkTmp4ePDxzAUtH6YzXJnlKn8bu11Td4LwjLlm4EV2Kjlhd2s60Uny/7V2RQfzMewbuxy/C/fhF2GgzmaT/rtqNcycP4c9PD2KFtc6B0JXIYtyLW4ifJuRjs41YNCy1UkI9nxMHPcWGYw7arJRo097P2/ZToCnVxVxos1LijsDod12+ju82HcbtPy5xakmjwfWLl8i+A3We1B/3EyvIOStH08BM5oCDs6EPEAqFMvw4jfODrdxz2PHwHdw0cosRCG7WnmizUmKlzWRcvXQZAPDZiq14xS4VS0fH4K/fz+J2+wn0lOjGFexx7X+qoLqI5friC1ugXtCK7tmNuByxwOBL/z3bFDJOQMgeR50XwqMl9ToRM0qJDv39kyrwYHIVHqZW42xiGdQlrfg9dZHoOrvdsnFjJmf478zhznfQZzq6F7BE/Lw5Jgmakj7uS63GrYuXRQJhKMTBvbhF+CFoHjmn1O8EhaOkpEzyPFAolkhpadkTEQi2ck+4eZn+QWYxAkHGKMgX9ZUrV6B+2IlHN++iZ9tR9Hz6DdTsW+hZ8iru5zcTAzaYmAaa0jZoStrwD0+dx8WbylLtAMJqdOU1QL2gFT35zbifXIn78Yuw21Hc/fDqC/HcuIJsI74IeGFS0oZ11lxLw7akRei8dQ2ftb3DjW14VjxFsXN+C1Y8F4vDXrkih0+9AQDXL17Cn1//QM7XZqXEZ+EFgxYHHbEL0RG7EDvkU9FmpQRLHSOZDT7+kRg73k/yfFAoloSziz9cFEFPTCDYyj3haWJLgkUIBFdrD0x4yQfN2sGHV65cwR+nfxpQH39fRu9cRhVeG8M12S9/NtZg+yeBs9Azt+9ZEJrSNnROq8VH7rlos1LiQ/dp6J7d2O8x79inoM1Kia9f24au29fx6MZlXPzyGNqslHjHvpeukb5aDbQ82HsM+/OXGi2LL6OLBiWWeHHQEbuQBHqa+9xEyd8LigLOLhNgK/dEbu4syfNCoVgS2Tl5T1Qc2Mo94eBs2oeARQiEUkE0xjYrJZb/PREfr3iPrB/ymoYfYxfgA/8ZeMduMlY9H4dl2vDJvyWUGBi9Y0GzuO4KWRJOrduGTZNmD1kzvClwgyETce7kIfywawtWjuFmPVzKqe7juL7HEjxYvwMPjp7AlStXCHw5PepnymdfLQc8/Lkyn6dRG80BD98oUnkUFi3AGDs6q4RCGU5s7N1RUDD/iYsDHlPyahECIU07g2H5S4nYmV2H/XNYfFC0fND9621WSrwbkU+mJraXNUoiELa5ZBp85S8dNYB8GBtwWNIGdX4T7idV4X78IiIO/vHqtscbh1DcZlQgcIMUw+FMpzlKipd/jKjySJ6cgYmhsZLni0IZiUwMjUVCYppk4oAKBCM4Ctwq84bv0lff6QyfkRkA/QmEDSF5OP/5UZz77DB2pBZLIhA0pW1Y9Xwctrtk4qdk4/Ei+hMJ6oIWg4GT9xMrcOXKFVz88xwpo1Mx8wedxwfJleiIXYib0WW9duXkPRdC3S1LgL5A4JmXX4Tc6bMgd/KGtS2dikqhDAZrWzfInbwxY8ZszJ1XKKkwoAKhD3jnR6955BppOm8xWSCYOl7BLClpNRQH8Ytw/dT3OH/mT3Jfr7wQNzTXm9UAjXZaZkdeHTY6pBgtx1nPhcCaioUnQm8CgUKhjExMqR8sRiDYjXEjBuhg8UqRQPjAL89kY7feVufD4B15Ch4VmiYyzIn7CTpxcCliAVYwk0UGWz2AwY2Pyzu2k42KBanfm5EOFQgUTkERmwAAIABJREFUimVhSv1gMQJBxiiQ+PdA3VTCsbqphSufH6Iv5KeYb+OLjRpoYw6YhpM1LyVQgfAEoQKBQrEsTKkfLEogyBgFCp4LNWoIVb656Jn/ZI2hudE1vwXvOXHCabPT1CHznmgKfyl14xRaqK+EYYcKBArFsjClfrA4gSBjFMh83jAuw2svJUpuoC2akjZu/ENUCXkmdVaRkr8rIx0qECgUy8KU+sEiBYKMEc9sWPmcoZMjyhOiuBUPJ1eRMRDXBAKhbPQkyd+TkQ4VCBSKZWFK/WCRAsFVG5ehzUqJ18ckSW8kLZEFrGhwJM/lCN1YiLCXqPvf4YYKBArFsjClfrA4gRAk8yEGaJ9btvSG0oJ5kFBhIBDOhc0nz2csdaI07FCBQKFYFqbUDxYlENJf0I09+CG+WHIDSWmDpqQVD7VBq+7HL8KZ0ELyjFytTXuZKaZDBQKFYlmYUj9YhEAYY6NA7ahItFkpsWxUDB4WNElvGCl6QqENnemLcUPgbXHJKDpIcbh50gLh16ptkleQFIolY0r9MOIFQthLvsTg7HbNfExDthSasmUSGtKl0FSs4ChbKr1RHya2j9P5qJD6/RnpPEmBcH7JHkQGBKAsZo7klSRl6GiaXIor9fvR0dIuwtU5UPK8UQwxpX4Y8QKhySrqsV0h47dzgEYD0Z9aDWzYC03VymE3mPjoC+BOBwz+NBrgxNeSG/Th4OVnY6gvhCfAcAqEN7LqUJuoi1r3QdFqRAYE4I+aHYJ96vF52Xp8Vvy25BUnZWBcqN0jEgIbpy+B0t8fMQIyQiPwenad5HmlGGJK/TDiBULSizrviSq/GaYZqhUbOCOs0eDLV3fhFbtUrHgpEetccnDuH6c5I/2oE5rXtw+PoaxdA41aDQC4d/UGNgXnY/nfE/Hy8/FY45SOs6oviFDQNL4muVEfStQlrbpATs+HSP4ejVSGUyB8Xb4B08ITcKVuP7xcgnFMKxA6WtrxR/UO3Gw6hMiAAEQGBGDHrGWSV5yUvlH6xomEwdyoyYjx98eMpDj8+uk29Jz/CD3nP8InO9cixt9fJAQp5oMp9cOIFwgyRgFWG6ipzUqJOzFleDSlCj0FzX0bqcWrAQC3z1wSOVRqFZxr+YsJUHf3cAZ6GIwkZ/s1WOeSLbq+MA9Ln41BZ8cDbt939khu2IeSu7PryX3a2dCIgsPBcAqEjpZ2RAYEYF12JTEqvEDoaGlHTEAoWZe60qT0TVpwKnluB+YtRYy/P2anJBJRIOTPz3cixt8fl+r2Sp5viiGm1A8WIRCCBeMQlo+Owb24hbgRXQrNvD5EgloNdXc3McqTXZ2h9HQgFNsEcAZ6dAzXynDkH0NrID89BQBYIUtCm5USjc9GQOklR7SAGY6eRCz0dHVxIqF+reSGfSj5Z+g83XgEGuFxyBlOgbAyrQpNKfmIDAjEjcZDKIpJQ1SAPyL9/VE7eRYWJ88mRsfJ0UfyipNinEC3SeQ5zYyIR4y/P859vkskCh6dPY5v2jdwAuGfOxHjH0AFgpliSv1gEQJBxiiwcHS4qCVgnawP18o1rwAAlssS0WoVDaWHHEoPOSLd7HDtymUAwMuLyzHLyYPruih9lTPOQ2gYAeCb9fvRZqVEzfNhaCwvJEMPJo23RaSHPREKrVbRWG2fSsZGSG3Uh5pXXoij4xGGieEUCMVKTgAsT1uAqAB/zEpwx/ZaG7xbZYusaE9EBfhj2qR4YnzSg1MlrzwphvDPJy4gCAkTgkTCoPPscSSHTURmQAjmpSWj5/xHOPvZdqQGh9EuBjPFlPrBYgQCY6Mg4mBVP9Eb+QGJbVZKxLk5QOkhR+j4MQgdZ42bf10nhlrp6YDGZyPQZqXkBMLSt4fGKK7bSq7fahWNaC+5aGxiqLMNQp1tEOZsg2gvObKcuXtT93DjFfCwE5pyKWdbDD38s6scFS75uzSSGC6B4OociI6WdjSnzIMy0A/qI1bY32SDKD9umSc60A8R/v7ECB0vfG3Q1zxx8gs4jfMn6+MVQThx8osBHes41hdpGbMkr7zNjVtNh9HR0o6ssGgkBgbj8mf70HP+I9z69jAOLF0BpZ8fTsfn43R8PtbWLkLP+Y/w3qsNyIuYjFtNhwd93RWrXgMAnDt/AXKn/luXAEheVk8LptQPFiMQXMZw7pVfHh3Ttzg4+Q0A4NKJ79BmpYTSQ45wF1siEELHWePOzZvo7uqC0tMBye4OaLNSovtRJ9B+YmgM4olv0NPFdW/MtPdCtJcct2/eQGfnI5TOyCACIdTZBlGeXEtCm5USZz74UjzL4cEjaNZskdy4m0xJK0dxK9QLWqEpbMFBd904jOi/UxfMQ8VwCYSOlnbcaDyIqAB/dB+ywul9hZg2JQXR/v5YXSQXiYSoAH98X7GZiISfq7YO6ppdXd148OAhWb99+w41HI/BspRF3IDSmu2IEYi4jpZ2fL9oM2L8/Yk4OB2fzz3zNYcQ7afb90bjIZOve+/efcQlZpL1np6efo+hz3ngmFI/WIxAqB4V0fdUx3f2AN09xLZ+tXYXEQgRrlqBIGScNaK1XQ9tVkrc+v0CcPqXITGQ+PVP3D7LDY7kuxGEokAIv73NSonv3j2qPxESmlWbpDf4plLYbOCCWdg9NIaORRgyhkMg7J+7Ch0t7cgNT8CWGnvR+xjt74/4CT7oPmSFRwc4gfDLOy8gKkBsgNgp5SZft6urC2q1mqx3dnYSwzFxUiI0Gg0ePeo0MDoAMF4RhPe37ibbAMBhrK/klbmU8M9C6e+Pbxa+Q9ZvNR0m0xn1BUJHS7uBmDDlmo7Ovvjl199FaW4eE3H12nU8fKgTf/xz/ejjE3B1D6YCwQRMqR8sQiDYaLsXlj/bR+vBhasiXwfq7h60WSkRK+xi0EMpEAg3fz0P/PD70AiE38+T2RO8AAhzYQzEQaS7HaK95Egb74I2KyVun72kq4k77j09zpRKWqEpZNGdsdhAGNyPX4TfJhYQcVD4bKjk79NIYjgEAm8YogL8oT5ihZ7Ou+jp7EC0vz9B3fw3wu0doxAV4I+P568ZtGGxlXMCYbxrEBqalqGpeTncPCcaGA53z4mYnleEmbMWYM7cUtg7euPI0WNEIASFxKK6pknySlxqXs1YLDL4d5uPCtYDsT2jALkhEQYC4W7zUSgfQyCEhCWgXfWhQfqdu3fh7ReOgqIK1Cxpwa1bt2Er9ySCkAqEgWNK/WARAqH8WW6A4rXcxf0b59v3iI3ljRIvBJQeckS72yPa3V6U1malRMflv4CPvzR6zp+nlGHZ6BicCJs7MIHw+Xd4eOMO2qyUyBrnppu54ClHlGBworD1gB8HAQCahS9Lb/RNwFjQJp57tPVgWBlqgbBr1nJ0tLTjl+qtRCCQ8Qa9CAR1898QFeBv0Ipg6rW7urqIsdBoNCLD8ejRIyROzoGt3BOF8ytgK/eERqPB/oNHYSv3FLUgOI3zg1qtRnBovOSVuVSIBYE/TuS1ida3ZxQgf1IMEQeH0yvQ0dKOVWllmBM1+bGeo76xLy6rwetvbNQ+R12rUGh4Ij498U+jx1B6x5T6YcQLhDGMbnDigL/gN+4DANy7coMbKPhfSpTLgkWiQOkhR4rrWDLN8Nf9n0Kj59XwYWGzyLjxdC9g+87DNz/j98Ofkf1LbQINREGilxxNz0aSfboePOIqxooVkht8k5nP9ioQttqlknusGRUh+fs00hhqgcAbhfmx6SKB0NP0t34FwoyIJHJ8UdRMk6/NC4Rduw+iqXm5yHBw3QgTcOfOXRQtqISt3BMHD6nQqT2GFwhz5pVi/dvvoba+DRlZsyWvzKVCaOBj/P1xImY2PprB4uTkEiIQ3g3PwOn4fOyJysGd5iNGuxdKlKa71U7PnIXu7m5UL27Gb7/9gbt3O8g2tVqNjz85AVs5J/DGK4JEz5nSP6bUDyNeIOQ8z0VwPB4w0ySjhbd2AgAe3upA2yhDIy/k/vXbnHF+Yzs5vnsBizYrJV6zjwL+4Q/8wx89x/3JMT3Frb1fe8MeAEDXg0d403N6n9d+0yMXam2fKV59CgckajEmDv6KLhXdqzVtPRhyhlogfLfoPXS0tONm02FEBfhjf6MNrm0ZDXXz3/DlgheMCoTN02weu/VgIIwdHzCg/ewcvCx+/EFFnG5MwfWGA8j0nyjqTuCZFjgRFQnZ6Ghpx6bpSzA1YAI57lrDgcfKg8IjxOKfw3BgSv0w4gUC/4Wv6cMg90rdGtJs3/2wE5e//Akf17yB9qIV+OPoP9F1/6G2TV8DzcLlomM3OaZwzf5accDTzXK+EzbYp/R97fKlwD2th0S1Gjd/u4BvNx7G58vfx9kPT+HetZvQCONDHP5UciP/OPQUtPQ5MDHv+eBBvwOOY9wx77lQ1I6KpGMY9BhqgSB38CYG4r28ekQF+OP+ZisiBiJ9/ZAX7kHWHzT8J6IC/HFVEOzHgTpNMgv+ajgoEm3/TJpPhMHXcfMQ7e+H92bUc4KwkRu4eDq9alhFHuXxMaV+GNECIVkQh+FxjBfWbQW++A7G/jQrDWcJqAtbdOMChALhoDd6lrrrugWm1fV//do1wLlLRq8NAHj5HaDlTckN/FDAC4M/w4pwcFymSCAMxoti3nMhvba8JL8YKPn7aQ4MxyDF6oRCYiSWpc1HVIA/3p3GGHQrZIdxzpJ+qHyX7B/mGSV5BUrRcUcwFqGjpV3UenAqoRCnJpfidHw+Yvz9cTKWesZ8GjClfhjRAoFvPfgxseTxDRg/8K/21b6/hOc1Y711kk4gvO+pEwgr3bD8OUEsh9ExeJS1RHLDbC70zG0yGHfQZqVE0bNhJj33iL/7obWPbhkyI+I52powXH4QNuW2EGPxe812MghRSEzgBNxoPET2W5JYJHnlSTGkN4FwOj4fBUERiPH3x8cxs/DVlDJ0tLTDffwEyfNM6R1T6ocRKxAU1p7EEKiL+xkUOEQ8TK/BmhfiseaFeJzynYU2KyUuFPhy4mCLJ87O8kOblRIrRsfgl+B8vPFSIpaNVuIvZSl68vsJHmUh3I9fhFsxZYNuPagbFSkWAqOU+G7zQTz46zo6O+7gh21HRNsVMg/J31UpGU5Xy29m14uMi5BbjYfwfXoNTsfn42bDQbyd0yh5xUnpndtN3CDEk6mLSItBjL8/Yv0CRNMcQzwiJc8rpW9MqR9GrEDgHSPx3hPv5NUOu3FTF7Wge1YjHmUsxv3ECrRZKbF0VDSw0g1Y6Yalo7jWgzsx5XgwpQoPplThYUo1OrNroS4ZxBiJEUhneo1o/EGrCfEXhM+8zUqJH7e3o7PjDjo77uBRxx3cuXQBF77+En9+dpLsw1p4fIfhFAi2ck+UKHXNzt/PWy1uoo6bh46WdmzMbZa80qT0Dz8A9cvpLE7H5+OYMo88y1uNh+DtGiJ5Hin9Y0r9MGIFQuFzoQZNyiqXHNxPrkT3nMYnYux+TORG4R8NnYhvp3LjIT71nI6uvPr/v70z/XOiSvf4XzEj2TqpVGWBdHpvIGwJ3ezQG82OLMoiqwgIIouCyGID7rsoriOOzuiMuzLjyMwdd0VQLzMO4MiiM1cUaEAQ6N99UXVOnXOqKt2BbtLdOS9+nyZJpSqpCuf51rNm3RC3Wy3ZjFP1K3CUqWAo1Zq/yx8ZSJmhG2U0fj72ow4GJ4/j6IF9OLTrExw/+G80/uc7nG08jm19Zl1SfkNnUVsDQjSWQEWPoY6ehFUjF2R9wZRqueYMm0av3bujF+keoA1voKQwmfXPJtUyZbI+dFpAUCPl6Kv2ssSinwqPRWPdcl0jl6OpuZ4El6h7/fX02Le7anCqfkX2jXA7F0lWfIzJ5Uh3nbsz4aTHEjNxpvE4zp46gePf6R6D0z8dxdlTJzj9d88/6Hui4e5Z/61mS5cDEIj+vPBhDg6q+9RlfbGUujjdN/lm/GXRI1g7enHWP4tUZspkfejUgKBGyqGGy7HBVcVBwn2+kRQSLixsaHOD91L3q3Fv3kicGLlchhJaoAsLbrOUOt7oHWp7fUPMlM5Hyq/Gmcbj+Pn4Tzi06xMcO/hvCxhQNR6n7+uhZfafpjPpcgKClJRU9pXJ+tD5AcHQcqPdMtHDgVForFuO83MvT7hBagualrZ8WwIIx2pvpNesMNTDcl03uE34e/HK1fjxwH5Hr4ETIFQryaz/PrMlCQhSUrmlTNaHnAEENWKtiz9ec2P2jWYO6VT9Cn0wk/iaTQUHO5/hf3qa3STZfIG5vkGWPJMvfvsyTv34Q3o4EABh2iU0YerokoAgJZVbymR9yClAUCOmO/pubx1OTW/7ygYpHhBO1a/AhcV83seFhXwXxdOjrG2XHwrouRy3ekZAjZSjVOtJr+X7U4bjiaJqI0FxlF650AwgHNm9i75/tSd3ZzxIQJCSyi1lsj7kLCAcr5Xeg8ut02P4qY0X5m/UW2AvtZ/F4NR6eUCwL/33k+WjsPPqK7HKMwzzDI/CmRPHLEBw8v/+i/989SUO7frE0Kd0xsZ6d1XWf5fZkgQEKancUibrQ04Cwu2X2HpZKkMt3cwlHl6M2OZJpEPmFlcNvrt/Jm52D0e5alYy7Hn6VZw5cQwnD35LgeC7Lz7Hie8PU2A48/dP6PYbJSBISUnliDJZH3ISEN6vnJd9o9lJdWHuRj7PYN7GSwKDU/Ur0DhyuW2r5B8fvwZbXDVY5xqBLe4a7ByjN0p6rn4pDu36BCf/+73Fk3Dm5HH62ch+GlwSEKSkpHJDmawPOQUI9YreTCfbRrRTa5He6IiUc14qHLBVDKz2rrkKp5+fjWf6jMI3d0zDqedm4S+j9TbLDxVPwZmT1rwDFg5YQFjuHpb132a2JAFBSiq3lMn6kFOAsNlVLcMLramlmy1VCedn3EqNO31uzoaLgoMvK+cLYGCGFk4/P5tqa3wkNrtq0GC8/kDBZJw9aU1UFD8/2VddQJY5SklJ5YYyWR9yChC2uGrwyYhF2TesnUTnZq6zNewXZq233f7ncTe1CAxOjlyO2928x+Dx0nq8OGgc3p81CXtXX80BwhZXDabnDUCVksQWVw229Z5lrWQ48RP3Wb6sXcj0V8jdgU0SEKSkckuZrA85AwgjlH4tCi/8cuXNWTe8HUXnZt5qa+DTvae5XIN7vHWWcMKnM4dj37IROLCyCv9330QODk4/Pxsnn5uFf2+ehieNUsffjV9l8SBcePd97nPc4xvZojbOnV0SEKSkckuZrA85Awgb3FXpwwuLjVr8UXJWQkt1frZ96OBiAOHD3rNtcw3oHAt3De70VeP5PlX4x6KhOPXcLJx+fjbeGjsBW1w1uD9Uh/cm6UmKHz+8HUf27MJP336DM416yWPT6nu5z8HuO9u/zWxKAoKUVG4pk/UhZwBhi6sGLxROpgbiwsJNaFqyBU1LNuP0aLM+//SYlVk3vB1F5+fbVyhgkfO8CSdA+KTvHM5oi0O2uG6J84ZT78HtnhoktF7oo/amrx/bfwDff7kHhz//lJY5Hn7/fZwavRJnxt+E02NW0m0X+AZn/beZTUlAkJLKLWWyPuQEIBSGemCLqwZ/HTAHF+ZvxCmjUx8LBkTnpqzJuuHtKHLqbXB63CpcuPY229kLzeUekD4HVUoSV/orMM83CKu8wzlAOLptJr69YwbuyqvFye2zcK9ai01GguJjiWv0/ANB5958F02LN+H8wga8EJtI95XLkxzViAQEKalcUybrQ04AQrWRvHavbyS+HbIorZFqWiKnLdpq8SZ9sNV1xtyEpVvQdO2lNT+y0xZXDTa5qi3XUGOmNu7beDXu8NZgULAv7vDW4F9Lh9OkxhOHDtsCwtmjP9DvIsMLpiQgSEnlljJZH3ICEObYDPW511eHl+KT8HHv2fiq//wWxc9zWRcWNLQ6DDgBgpPhXu3RPQlP9xyFv149Cbe6R2BIsC/u9OnveXnmOns4MNS09n78sriBHmN6Dg9pIpKAICWVW8pkfcgJQFAj5Zjsr0ybBHeHu8YKCEs24dyMW3F63KqsG+isa8nmywII9+WNdASEoUYlyhaX7jXY4qrBdb7Beu+D+CQc2vUJjh8+6AgIZxqPY2tkrAkh4cv/O2xvkoAgJZVbymR9yBlAICrXEljkHWwLCafq9XHEZ666heYpEJ2ftS77RjrLonka09fi53GrLgoAjtfdmPb130QmOAJCOGKGGe4JmE2THi6aijMnjuH00R/w/Vd7cOSLz/WBTQIgnP7xKH3PLe7cneDISgKClFRuKZP1IecAgVUPNUG77xFASJuf0A6MdHsABPL49ChrkmfTDVvQdP1mnJuzHqfHWxsj/a3nTHw/fInt+f33kEXN5gaIUPfOyvt4EDhxDN998TkO7foEP337jQkHR3/AM0MW0Pdp0nsANSIBQUoq15TJ+pDTgKBG+OS3xpHL0wLChRxPYBQB4dwMa6MkS+WCMMr5CW0stiqjuee+6D8Pd7hrOcPfXbP/IROge2HUcpxtPI7Duz7Bzz8dtXgLfj72I77/6gsc2b0LBz/+iNv3Et/QrP/u2oskIEhJ5ZYyWR9yHhDUSDktkftDweS0gHBm/E3pjej1m7JuxC9Zi+2/wwVmnsL5OXor5QsLrYmL6cDiVP0KCgJ7UvPwUnyyY07IMKWf7bW6xjeQbnO28TjOHP8JR3bvcs47OH4MBz/VAaE2kMQMv0xMZHW5AKFf+WA0NuzgdMvoxbhn0s24Z9LNWV80pVqmwYkqy3W8ZsjVWfs86zbe0eJtC4r7IVbQp0Xbrr/trqyf67ZSJuuDBIRIOeZ59SqH+3wjmw8zGHfIFxY04PTolfhlyhru9Z8ntt9WzRcWNQ8w7Hc5PXYVfp60GmeF75hpGIZ9PV2i6GZXDZZ6hyIScu5NwHp8fti7D2cbj+PYoW/x4/59jpDwr1d3YourBqs9Mu9A1OUAhNlDp1mMyiNXr0B1MoXqZAojkilsv2Yztl+zGZ/d+AxemnMXBvQcnvFxmpqa8Kc//xX/+tcBPLv991lfiDub1o5ebLmORD9tfBNFBf1a5ThnzpzlHp8/fx7RWALDq8bT5yoG6L/bI9993+z+CktSAIDfv/gKXn/jT7hw4UKz7/nPf/4v6+e7rZTJ+iABIVKOimAfLg/h5Mjl+LHmBuxJzcPvYlfibo85H+CUTXOljHMVrt9s746/VDUTAvl5jP7Zf5m2tkWAkE5O4RjLoKaFm7j32IHBMu9QlDuEFOy0wVWFLa4a3B0cTSHgyJ5daPzuiAUOThw+Qo9zq2dE1n9r7U1tDQg31y/kDMmb192N6mQKm1cswPmDO3Hmm3dQnUyhJjWAAkN1MoWdix/M+Fjnz5sLPwBEYwl0ze+FIcPH0H/Hi/rSbQpKkojGEigu649efYfR54vL+qN7r8EoKa/I+mLeXvTktA2OcMCqYdyySz6WCAgl5ZXoFu8NACjpXomS7pX4+ONdKCrtzwFCvKgvUpU1lv2R3wJRafdKnDx5CgXFJtCUdK+k/84v7CsBwZAEhEg5uoa6p72zZbW34tpmjefZyc7dGH9mEvd+mXpLqwLCqfoVOD1qJZqutwcFC8gsauA9DLPXtxgQPu4zO+3rv0y4GRfmbuS6Vf6t50x6Hhtc1eil9bqo6xUNmV6E9zY9TWHg0K5P8eM3++nj498e5q5dQahH1n9r7U1tCQjTBk3B4bV/RFU/0/DXVVTg/MGdVLteeQDVyRReemwzfe6Vp+7E2rHzMz5eU1MTvvxyLwBg8+33IRpL4LnfvkhfY/8+uu0Z9O47DPc/sA2Lrr8Jg4aOxvsffoJoLIELFy6g/8C6Tm0kMtGaNJ6D3Suewe1XLsaHNzxGn/v+1lcu6XgiIPzyyy8o7T4AADB2/HSMHT8dX365F1U1EykgTJt5HR54cBuKSlI4evRH7v0iIJDnevQajK2PPoVoLIFz584hmp/A7158Fd0Tgzr1tc9kfZCAECmHGrZmx6dTY5393fNJ5q5aNM7nrrrFIWTRwsTHFmzH7XvUClxY2GC+b6l9H4PTo1fq3RGXbraUdqbTs5HxODmy5dufql+B+/16j4N17ku/k7/JY7Zf/uD2Z2hZ45E9u3B03z7sfenP3DUbGUhl/3fWDtVWgFBU0A9bJi5CdTKFJ+9cg/MHd2JKXTVO7/8zBYH/3fEodj99I6qTKfrcB8/cgvXzxuODGx7N+JjEg8AahNde/xN++eUXCga7dn3BbQMAJ0404sSJRvrcseMnEI0lkKyoQf8BuZ3EWVbUH40NOzBmwDBUpVK2qhs4kP67tn8lBYWLPaYdIIjX9YMPdJgjgHD8+Al6Hcm1JrIDBLLNuXPnMHfBMuQX9sVV067VQSEmQwxEEhAM2cfEq7HaMxzT8ioxXOmHzUYy4+1ua0nkD9U3cKWSF5ZsRtOSzbiwZFNao3l6dHPDoTbj7FQzB6DFgNDGutNTi+9GXN/i7U/Wm+GFAcG+rXLN2BLVLa4a3N9tAu4JjbVcxwn+iqz/vtqr2goQ7p60BDWp/py34N3n78dda5bi/MGdOPLRC9i7fSU+e2IZ5lw5Dr/8+13s3b4Se7evxOgBlfjPulczPiYBhPUb78Tsudejpm4SKgbUcQYhGkvgrrsfwroNenLb6dOn0TW/F6KxBHr1GYpoLIEffzqGaCyBZEV1zgNCY8MOVCVTqK0cgOvnLcTyRUtw+4YGfPz++zh0YD9+/+SrOHTgAD7/5DNs3/oiRg4ahKpUCt+s+f1FQ0JLAGH/gX8jGjMBYc+er1BUmkI0lsDgYWO496/feCeee/4l+viTT3Zj8tQ5iMYS+Omnn+h+m5qa8OlnexCNSUAgkoBgaLy/AtPyKpEM9kYozXbE6LxefBU1fv+tWkqff7f7jIyN7YX5G62egqWb8cu0tfZeh3YACOT7ftZvbrPloSdHLsfdXrOM8WJDC3Za5x6RJumxGqVqz6z/ttqz2gIQnplxG+eTUOP/AAAgAElEQVQVIPrTvddh5ph6HP7weQoDj66ahk3XTaKP925fiepk6qKMy0+GYY/G9DvKaCyBo0d/xL59B7B7z1eW14gOH/4Ox44dp4+//fYQorEE+qWqkKyozvqCni19fuNvMGVQLaorKnBw/348u/V3OHRgP1594U388flX8fVXX2HciJH4y9vv4NCBA5g2bipGDavGwtlLUZVKYfrQUThx29sZH/f48RNU+YV9acige8+BOHnyFKKxBA4eOozX3/gz/vn1Pvq+z3btwcmTp9Cz12DLPmvrJ+Pnn3/G6dM/o7jMzC0pKk3hww8/RTSWwO4vvkKpkYuwb9+BrJ//tlIm64MEhBYqFC2HGinDTKbM7m5vna1hOnkRBrdp3gbqUWjJ9memrMa5mes4sLhccHCyPn01wn15I3GXt9bx9dbOBeihJah3h1RDDHcok5Ti1RaAMHVwDd55/gH87ztPUzjY/ZsV+PCxG3Dl8MEcDEyuHsI9XjVjNBb0r8J/V27H2P5js76Y5rIaG3agKpXC5x9/jFeefwNVqRR+u+0PNJywYtFqPcQwaDA++Nt7qEqlMO+q+Vz44csVv8n695Dilcn6IAEhjTRDoagpLVLmYPh4d3dzRvbwsMWX9Y6/NbWzx4yMcjbYO/otrhqokbKsX1spXa0NCFun3orqZAr/evNe3eg/dxO+etYEgFEDKi3eAvHxZyOvxX/WvowhiaqsL6a5qq9WPIcJA4fh4QcexrL5KzD/6jmYUj8RVakUNt1yN77dtw+jhlZh754vceuN61E/eCiqUxU4dGA/7t5wPzbcdDuqUin8uOGNrH8XKV6ZrA8SEDjphosFAlZqRAeGaMSseljiHYIKtTe9cyXP3+WpTWtk3y69GltcNfipZllGxvmj3umrB0S9l7gGH/ae1aJtjwy/Hnd6anGimXkJW1w1uMU9Avnh7ljgHYz1adz8IkRtthnlLJU9tTYgNDbsQHUyhQeXX20x/k6AQLabMmIwxiUHYHf9gktKcpNqnetYlUrh4P59mFg3ClWpFL7dtw8vPvMKvt23Dwf378czW5/Hwf378d5f3sOmNXfi6Yeex6ED+/G7J17D4llLMOIiQ0VSbatM1gcJCAYUiJ4C02Ogb8f+W42UozDUA90iekOfYLgMaw0jeafHdK3f7qrBwSGL8N2IJdiVnIsHA/W2hvPJ0FiuAqI54/xS/qQWA8Kfy6Zji6sGD/nrm932eO2Nls92j7cODyuj8Lg6Ftu0MbjL+H4z/APoOSHnZWiwLwcDD/pH4lF1FO5wm/DUX+3dDq65FFFrA8K3t/wB1ckKjEpWYEpqMCYJIQUWCMjj5f1r6fO76xfgH4u2YkLF+KwvpLmsnza+iapUCo8+9Aje/dM7eOHxl3Fw/36suH4pRg0Z4ljRwOrYxrdQWpTK+neR4pXJ+pDjgFCW1ltADCDrPSB/xe2DITP08Ehw1EW54B8KjMIP1TdwRruxbjne73UNHvKPwu3Mtnd6anGstnnvw0vxSdwx7vTU4t3u0223PTkyfW4Bq1ItwcETOVf5YeeeEutko6J2p9YGhJLCJBobduDgyt9id/0CixehPlmBuwaNw/ghA/HuA4swPqV7DFh9e8sfsr6I5rp6lFTi+3Wv2hv/ZCXmjpiIeyYvw56VT2PPiqexZ+XT2DrtZkwYWI3qVH/8tPFN7Fy8NevfQ8qqTNaHHAaEMoiAoEX5vAPxPfYwUQY1XIZguBQlag9qDH+ff6XFQD4VHofb3XosvqeaQFLtjY3uqouCCaI73LX4Y3yy4xjlbeqYZvfxWHAM/p6YiTeKp9LnNrqquJAJ0QZXFVZ5hlmgifybaEQgyb1/kXcI1HAZPe/Zv/5SaqRtkhS3TVuPxoYdOL7xLdw7ZDwWTqyhgEBCCKzHYHf9AnxYNw/7r9922V3S3eIt682fi9px3YP495oXcfvExfj65ue5BkkHVj6HvVNW48DK52wbKF3u3ANSqirVvDJZH3IKELRImQAApqESQwhqxDnsQMEgooMBq2qlHzWKf4hPwiOMV2Bv5bX0NfY43cLdscIzLK0Rv8k9HPX+fqhR+mGeb1DabR8NjsYHvWbhmyGLcIenBq8WTqalmJtd1baGn5Vm8730c6fLKRTjBAvmd9XPmfV5qWyprfogfLLsKWosiBfhw8duwKTUQIvHgOQcNDbsQNdLOGb/QaMzfs+AIePpvysHjcGsa2/J+gLenvT9ra9ajP9nM25zvH6X2iQpGkugV7/Mk1PLepqljVV1V2PGnJuyfu7aqzJZH3ICEJyMvJ2hSgcF5t1vmcV4kgoHNVyGCf7+jLEegx2l0/BUaBx9bpQ/Sd/L7iscLuPK9a73DkZcLYMSKja2LWU+QymGBPtguTc9WGxx1eCfAxbQf9/gGYqg4fEo0rpjqNKH60pYGOoBNVwGLWyCAPtdVQMS1DSwYOd9SXdeJSxkT23ZavmjG55EY8MOXF87BROGDsTEoYNw96Bx1KjsnXc3vl78KDUq8Uu8m2cBYfSEeZh41fWIxhIYNGwCorEEJkxZiK75vTBlxg2oGKhvywJCfmE/CQg2OrT2j/QafbFkG75eso2DgaPrX8f+xVtbBQ6iMR4Qxk1agPGTFyIaS6Bvhd70avzk69A1vzemzrwRiT76UC8WELrFe0tASKNM1odOCwi6QeruaJDsDJluOMXQQxlCUWIU+bvqUKScynxvOdRIGUYwngRWG11VtnCgRsqghksRDJVA1YrN59jnjb/k32q4FCr5d6QMY/yptKCwxj1cP2aoWN9PuMRi/M3voH8nNazf8evfkdmWgQX2fGrRMvO9luuRXhIULr/aeljTb6/ZjMaGHbij6iosrqimcPDJvLs5IxPL733Jx2IBoXLwOFQMGoMevYdh+pxViMYSKO0xCDPn3YyKQWMwYcoiRGM8IERjCQkIDvq7AAVOao1jEUBI9BmBikFjUDl4LApL+mP2grXoZoxrnnPdragYNAYz5+mjwllAiMYSEhDSKJP1odMCQnMeAxYOWONFDL3oYuc8BsYdtnhM0ehHQ2XYxHgErvRXIBguhaIVI2BIMRRgRCDgYkQmHYq6Mq+/uf9wCVhPiOgRMUMvVmDQDGhQHc+P/h47CGMhoLmqEanLo8sx7nn64CnUgPzvggfbxKhEYwkMGDIO+YX6tMZkxUhEY3psulu8N66etQLRWIKCweDhVxrvGc/tQwKCs5bXzXcEg2Mb32q14/TtX4f8wr4oLOmPHr2G0WtaXFaJ2QvWIhpL4Jr5qxGNJTCi7mpEYxIQMlEm60OnA4SWurLtmiCRMAJn8EKmVFso4EMO1PCGjLtzB0MeEKCABYZgmL3DJ4+Nv5Fi8zlWdPsSTMurxCZXNTa5qnGtZxA0lYcRy+cxPBFWbwLrVRCTC8uMc2KcHwES7MIP4rkTvTnptpVqG10OQIjGEsiP98F/173GGZUfNrzepsd0SlyLFyWzvkh3VBUV9MOxjW9x1zFbVSeFJbKE8mKUyfrQ6QAhXUhBS7OdFimjho1zo4dFI8h7GNi8BDYckE6ix4BKLYKiFekQIMoOCsIMNHDbFiGgFiGgFdkeR4cN+8+msv+2zbmw8bBYAIFNanSGNLGkVELC5dflAgSieLwPpg6clPVFUurSVFaUwtSBk5DfCqEhqcurTNaHDgsIen4BER86aC5xznrXyucX6FCgu9N5g2jecVvyCNJBQZgFgyIDBBivgOEhUFT9NT/7OpW432Lmrym/sY+AWoSgVsSDBDm+IdbrYAsLJPfBUtXAex9IroI1VGHvTWCvoxO0yVLIy6PLDQhSUlLZVSbrQ4cGBDViBQM2cc4unm31GlgTD7WwNfbOQgINB6QDAsYwB9QiKERakWD0ReOvG3m/Wgi/Wihsby9FM7fn3yMCBfMe4/ME1CImdMEDjZ1ngYYoOI9CqXmOw2XGNEyrl6UllQ6q8V52+2z/1jqzJCBISeWWMlkfOiwgNOcxsNveTFTkwcAuiZHE3sUwAustsCQWklBApBhKqMgw9LqcjbUzAAS0IuQFC5AXLIBfLdSf13gwyAsWwB8sNF93VJFwLBZGiszwBpfnUAIlZJNAyVQx8KWX/F2/WeEhhh/ShxFkuOHySQKClFRuKZP1ocMCAvEgpKtUIApaQgUCGFAXOXmPTY4BSeTjwgbFhgEtol6CABMm0MGANc6ikeYNPpeQyDynMKBgJ/peu7/icTQRGHQFtCIOFjixCZSiZ8EhT4Gcd6d+Cvw1Mc+9U/KomUvSPeu/vc4kCQhSUrmlTNaHDgUIfN6BtceBGrECglPZot7foNxwhxM5lDg6hRCMO21FZb0Fpqvf9k7eMdlQhAhDmq48pcBWilpIt+HeF27meDafjf3sLCgooSLOq8CeE7H6wQQr45wyfRRCUbvy0ZYDgpnQKCGhtSQBQUoqt5TJ+tBhAEE0CnaAYNfa17GvQahU6GXAl/MRI6ha4MA0sopWbAsGVMEC/Y7dDgQ0HgB4FSKoFUIx/uYF4/ApceQp+l9RilpA30feo0vYLwcQPEQEgjafn4EFWn4ZYQBDhCebcAx7zbRwGVSbkkgCCGIZqgw1tL0kIEhJ5ZYyWR86DCCka7CjRqzGg23YQzLpSeKbWJpn7X1gUzEQLqFlhCYYOHgKDAPKhgG4O30BAohRV0KmAloBfEo+fAFdAa0ASogX3UZht+H3Ewzxx+DAIcSHLgJqoWn8mVBEgCZBFhmNlorNkkoxGdK2j4LxnNE3QeMgwrxGYvfFdF4E2VCpdSQBQUoqt5TJ+tBhAEGNOMel2W2IkRGrFbiQAutVEO5+raEEJpwQ4sMJbD6BKrrzjTt1RS2CXymAX4nDr8RtjbgSKoBiAEBAjSMvkE+lqAUtEvsev6LDggkVwvG0Qvp5/EocgWAh42EQwhBMjkRAYzwKKtOvQah6UAVvgv682WgqFDErTvSwg3PFQkuTUKUuThIQpKRyS5msDx0KENRIywyFWE/PwoGZc6C7v9nSxSCbhEfgIVyMoFZkAwZFvAENF0MJi2ED8+49oBWad/tKPvzBAgRUXYpagECQGPkYfIEY/ME4AmocQS0ORY1D0eLU6Ae0uCHjMdlOK0Ceou8jLxCD3wg/KOQ4mn4M83PEEeC8C8xnJyEILl/BgB4moVFRme2ECg9aFhlmgUGHOAIJJrw590pQI1bPUbZ/h51FEhCkpHJLmawPHQ4QzGmC9q/beQ5oTT2znaUbYpifkUA7G1oqEuwSDgksCGAQsoYNAkHTQ+AzYICVDgYEHAovSoFgAbfPPOYv65lw8jBY8hZsExuLuBwMRbV2bbQN35AwggAJ6ZopEWnG9bcrqZS6OElAkJLKLWWyPnQwQDCNA4EENjeBr683WyfbVyuILnChBTJXrlgIS3kiG0pg8wqE0EFACAUE1AIrGPhj8Pm7wReIIaDqHoOAIfbf4nP+YD7ygjH4lW763yAJScQRCOYb+zXEHE/fj/l5AmoBE5JgQaHQCgqWJk2FfHkk095ZzEuwQEKknIMEsZmSNc+gjMtfyP7vseNLAoKUVG4pk/WhgwFCOVjDwBkaSxKbaXDYagXRc2DX9EgR4IBLRuRaF9t5DIjbn4ECLU6NMgcENvIrMQoC/mAMXn8U7rwwPL4w3HmMfPxfj0//t8cXgccXRhe3xsnlCcHjixrHiRlQEKefTWHDHSwosOEHMeygFUMsi1RaAAnslEjSJ4F4Edh8BPtERAkIrSkJCFJSuaVM1od2CwjWssbm8w/Y0ALnOWAa93CGyoiZWwYZcd0GixBQCxEIFjKNiYQ8AzbRkN6ZxxlQKOSgwK/kIxDMh6LG4ScK5sPj72oYdBVuXwgev2H8/YbyDDGP2dddvhC6uFVTHk0HCF/EAAcTHlweDZ68qOlFMHIbFA4SCiyQQNo40w6PQbG1M/EsFHHNlVTLTAeziiFEr136XAS7ChYRImR1Q2aSgCAllVvKZH1ot4AgqrkKBr4rHw8I7EhmNqxgAYOIFQ7YmLtfNUoClQL41TgfStD4MEJAK9C3D+RTMMgLxBAI5sNPwgXGHbw3EDEBQDDyLq/Gew5s5PKF+fd4NHh8PEx4DS+DfowI3N4w513QvRaFnPcjIIJCSM9vyFOYskhLw6USztMitmm267ioRvjKBr5/Be8lskICD5ISEDKTBAQpqdxSJutDuwWE9KOZ+btLs5Uv7yFwCi2QXAOF3OFyDYBKrHAQNiEhqBXBHyRNivKRp+RbDGogWMB5DPICMeopCGjmX48/Ihj7EFw+Ig1XuIK63EFc4VGZ10zRbYztXD4NLl8I7rwQt28KIAYw0PAEBwqa7t1QrcCTx1Q++JWCNHkJRRZICIrzHFhQY0ofrcOzyixeBLbvhaxouHRJQJCSyi1lsj60W0BgZec1sAMELVLGgYAqNEQKGkBAQgtKiPEchJ08BzwckJBCgJYUChUJbCiBeAu0OPxqPucxMO/+rUafyJ0Xgtur4dduJa26uIN0+7T7EkISJHeBhB9cnhAFBS9XBWF8z2DcmpdggQQh3CCAFzcVUuhsaQcHIgTYtWJmO2hKD0JmkoAgJZVbymR9aLeAQAbz2BkDu7tKsawxGDKMDtv4iNTk28xVUMKMUXOsVLCGFBzhgIQQCBgYlQXEU+BmjbcgD5Wmy6vh1y7FVl1cQXM7Ruz+rLBgwEEen8vg9vHeBI8vykFCgE1gZHMSwiwECF4ECgn8gCdrt8pS2obZqeyRhQGncJMEBAkIUlJSzspkfWi3gEDgoLkGOWJTJBLj1owGSBZAEA0T5z2w6XNggYNCCgd+JW4LB16jZNH0GuTDp3RzvMN32xh4j1el/3Z5VPyqi4JfdVHwa0PsY/N9qgAJ5l97r4I17KDnMZiQ4PKEaA8FMXlRDRWm6ZVgE2qwbWPNdmA0AUEseSTXW4s4exGy/ZvtiJKAICWVW8pkfWi3gOB0pyhux8IBjWGH7FzWfCMk2iWRmycgeg/MzogBJrSgNzti+goECxAI6pUJecF8ePzd4M3rCm9eV/iUGHxKVwscuFkPgeEl8Hg1uA0RMNCBIKD/dQUNox2Ey6PiCpcJDC5PkL6P/PX4VH2/DqDgZkMPXjY5UoPLS8IPIbi9YQoJeo5C3NorwaFPAj2XkWIaWuArRkroNVOFsJAdJDjlprC/m2z/djuSsgUIUwdOwne3vow/L7oPG8YuzfqiKSWVK8pkfWi3gOAUXhC3Mwf9mEZF7LSoP19q2y3RtmrBJrQQIFMVSTxe0fMLFLXQaDYUp2WLJOfAm9cVLl8EV7iCcHk1XTZg4Pby3gMdDAJUXdxBuH1BuL1BeHxBw1Og0sc6KBjbuxRuf267/TOQ0MWtGkmOKlwe1QQGIzfBnReBNy8Cn78r/ArTBdKY96A0Cwg6eCmhIttERTo+mumLIFY6sGGldIAg4SBztRUgTKqciNGpMbavlRalsG3aKtQmk6hNJtHYsCPri6aUVK4ok/Wh3QKCaQS6WwAhXXkjX9pItjHbKfNdE81WyuIdrzlXoZBWLPgUvk1xgLQ2Jt0NtQKmhDEffjUfLq+mVyEYlQYuT7DFYHCFW4HLF4TLpwOCh/zbqxqgEDRf9/KgcEUaUHB7dS8E97m8Ohh42YoHXwSePBMS/EazJ78BSnoVR9ycVGmcO1VoxxwQWjE790UwGidFyiGWOoqTHvXfhqxmuFS1BSA0NuzAlEE1+HHDG7av/8/1j+lg8PUOCQidRHX9RuHI2pfR2LADDeOXZf3zSDkrk/Wh3QOC7hHgM9WJ+K57Zv8DjTMojBESkxMjxZaOiXrinZ6Elxc08gyUuFH3X8A3ElILjeZCfF8Dkpjo8UdMd75XpVUHV7iMygOPftd+hTtIDfuvDONODL/LawKC/pxmKAiXT6XPE4Bwe4O4wh3gQEE/jkaP92uX8TncOhiY4QYmeZGpcCCA4M2L0D4JAVWHIR85P4oxO0JjBzox0x9JMmNISFZsZkYDe63Za896l6Tn4OLV2oCw47oHUZfsj/rKCjw0dRmG97bu/7/rX0NtMonzB3e2KiC89/7HnC52P+U9B+LpZ15odjsA3N9cVWPDDkwcVIWqVIpqz4pnMKFi/EXvc8sd9wMAfvjhR5SUVVyW7zH5qnmOr61Zu7lVflvtQZmsD+0WEMwGOOz8Bf01p5HOdkOZuNa81DhZ4+LUmBkdAmlDJCVu5h5oBYz3oIDzHvhZQNDy4dfyOVc+9RK4gzRvwJRp0N2MV8CEgZbJbQAFCUeY+xUSG10K3B7VSGIUcxKYpEWmBNLLeRGYgVKhQiNhkzlvRodFs0U1U/IoAIKldbIBCBrzXLrOivx8BuvvSMJDerU2IDQ26F6BD159DDXJ/vj97Dss2zw0dTmm19e0OiCcP3+hVfYjAcFZBQV90bOkkj4+uv4NVKVSWDhtEs4f3InzB3di71+fQ1UqhQ+WPoqiwn4ZH+PEiUaMmzCDPh43ccYlf+6WaNHiVY6vPf7kdiT6Ds36+W8NZbI+tBtAsG+Zax3O5DR/wW72AtuQx1JaZ5Q36m2B7QHBr8QRILX/ISsgBAxACHANkPJpDoIdILhp4qEVDrq4dcN+MXBAIcFrhhx+7WIBIcBVQdjlJJCkRdrK2W8CgofkIgS6cedBbzFdqOcnZAoI3PUpp9eXAIImAILT70NjAFICQXYB4YcNr6f1DgxKjEBtMokT/3i7TQChW7w3usV7o2t+L0RjCdy8+jY0NTVh5ar1OH6iEdFYAmPGTUNTUxNeff1tatx3ff4FLly4gMFDR6O850A8u/1FAMDf3/uQ7v/s2bNoampCWY8BiMZyCxBi+b3R2LCD08NTb8Gz16zD2GFDKBwQ/XzgHVSlUjhx29sZHSe/qC/27fvG9jUA2PPFV5g9bylefOlVnD9/Ho9tewbRmO49mnftMjQ1NaFm5CS6/cFDh9HU1IS+qSo0NTVh0+Z7EY0lUDGwDk1NTTh37jzdf79UlXGdf0FTUxPyC/vS10RA6BbvjaamJjQ1NaG850BEYwmcPHkK586da/e/h0zWh3YLCCpjAMT2u3Z3lhQQIuUMTPADglQOEIxcA9YVHuRnLuQpBUZ4IW4aRZqQaCYnsuEFM0mxmwEGZm8DlyfIGWkREH7VJQCXVzWSGS9BXhVXuPl9s4Dwqy6KkaOgmp/NpvuinqzIA4I3EKUzG4hXRe+uGKctmEVA8KtFnMeGa5okhBiClhBDmWOOgSYAQrZ/wx1RrQ0I26bdjJsWzLQ1/r+bfQf1MBBDQrbZNm11xsZEVFNTE57d/iKe3f4ili1fi2gsgb/85W/09RONJxGNJXD06E+c0YnGEvjyq730ufKeA3HkyPeIxhI4f143IKdP/8wdh31vezcIl6qCeF8LHBBVpyrx6VtPYdeTyzBr9AjUDaik13btknnYMH4husZ6tfhYA4eMwjvMNTt16rTjeY4V9KbX6e23/4Lquittr0t13ZV47bW3bfdR1mMArpqxwPyuRf0w+aq5ls/1+JPbsf/AN/j6X/vx9b/20+fzC/vg1OnTln1Pn3Fd1q+bkzJZH9oNINgpkzJH0iDJGmKwS1I0Qgs0/0CfQGhpDxwsoDF2n5KvlzM65B8QMFCMv3nBrkz+gdkN8VdG/oF5B08qEYS8gYuEBLdHE7wSinEMM0HxCtJoya3gCk/QOcSQF4Y7zwAEvwkI7Phqs/1yHIFgIT1/qnGeyflVVKbDYpgPMZieHh4QSPlqS3pgOCUpSo9CerU2IGy5chEeaVhBjf/fl2zFVyuf44wKCwhX1VbTaoba1MBLOrZdiOGqafPpvwkgvPTSa/Q5dlH/8qu9eP+Dj7kQwz/+uQ/RWALnzp3D3PlLqewMUWcVuW4jknp+wY0jp9Hnpg8bjT88fjte3jIfkwdX4+GrV2HulWNw/uBOnNirhx8+XvZURscTz6fdeQaA/MI++Obf3yIa0wGhoLif7fYVA+qwdt0Wy2ujxlyFguIk1tyyiTteQXESZ8+eRa3hiYjGrB6ERdevwgcffEJ/G+zfaCyBNWs3tei7ZkOZrA/tFhDsyhzFbXiPAuNB4BLa+BADV+ZoZNY7zl4wShzzgnFawUA6CuoeBLaCwcw/IBUMXbz6PAUCBy5P0LZ6gYCCiyQyUlAItBwObCsgSLWD0EDJ6LnQxW0mK17hDtoCghhi8Pq7Mh0k9UoGv1pgTrfkZleYDZP0EdBCJYMQAiLXlJ3u6DS4SY3YN9GSQJCZ2hIQHlx3A9aMnoEPbngMdakKW0C4f+Ny1CaTePzONZgzfNwlHbupqQn/u/drKvLc1kefwoULFyggnD37C15+5U2cPHkKAFBaXomDBw+jeuQk7N37tS0gDBwyCocOHcHNqzdaDFBnBgRyzapSKdSkBuD2iUtQlUpxwFeVSmHplHpcM3w0fXz+4E78/PWbdNtMjjl2wgwAwKYt9+KF37/sCAipyhqcPfsLorGLA4Ti8go0NTXh1vW30/3ec+8jeHTbM3jiqedw5eTZ9HkRENZtuAO3bboHd9/zCPUySUC4jCJJik6AQLLXTeOhu6pZD4IID1yTHq7zX3pACGh6kiLpA0AbJJFEPS5JMR9ef1d4fFGmtFE1uyXaAoLe04DkD3TxqpxH4VdpQKGLV8Wv2FCCW4HLqxqJiirtmSDCAc0/8Gq4wmOWO3ZxqxQSbAEhryvyyHyGYD4CdC5DYYs6KrK9EBSuksGapEieJ2KNf0u8S1LNqy1DDP/5n8dQQ7wDySRuGTMT/7zpOYwZNJACwudP3Yj/+eNWjK7sj/2rf4fdy59ts4XRLvu80YCGaCyBWEGfZvfRLd5yd3lH17GNb6GxYQeuGlqL79e9QoHgvik3ojrVnz7+ccMbuGrwKPy44Q08Ou0mTBtdh/MHd+LvW5deFCAQFRQnESvo7bxN/qV9v/xC5+tNcljSKe1na8fKZH3oUIAgDuVhjSTJijIAABVYSURBVITYNdGEBt2lrRgGyTKkKV0XRZv5C4FgHH4ln2uvTLoqepkOiu68qF5ayM1baDkkuHxst8QA51Xo4lY4gCAJjgQMXLTkUYXVU2F2VxRnQrg8Gq5w8WOj3b4wfY22XVbymSRFtpuiCF5Cu2VhJgNtVEXzRAyoE7pgstfZ/H3YA4J9squUk1obEL5c8SxG9tfvIL/44x2oTSZx3dTxWL3gGtwydg52LX8Kk6uGmRnv21fi3SduRW0yieO3vY3Ghh34v/WvtdrnAYCDBw/j/PkLyDcAoKmpCYePfI8zZ86gV99hWV+w26OenbmJAwAx9+CBqctRlUph6pBarBo9C9OGjkJ1qj/1HujXdtUlAYJU2yiT9aFdA4LT1D52oiObpGiZDsgNaTI694lzGCyjiq1tlhW2zTKJvdMZDN2oPP5u8BiAEFDzuUoGfhCTPmvBPtTAwoL+VwwfiOpCwIDrtGgPISwcWNsuk4FNKjeTgcxlcOdF9aoOtsSRnewYLhIaJRXzgBDmExTViNibgszQMNXSVst6Q63ul+332VnUVmWOBBAev2k6fj7wDhZPqsUDU5fjwxseo4DQ+M83sXf7SuzdvpImKxJ9f+srWV9Ic1lOSYmiPlq2DVtWLcILD9+G/+55lcLBrqdW4NMndE/D/BGXp0xRqmXKZH3ocIBg3c7qRVDDxmRAm5p7sVGSbZghbPUi6LMYTEDIE7wIZEiTx5i/oPcLyIdPiXJG2OXjJzXatUI2WymbIYJ0gECSEJ2AwxJWcBgFTQY3iYDAeg9MOGC9B0x4wQJc7NhnJkGRhhf4iY6a4AVq+aAu+2ZaUunV1oCwd/tKfPTSPZheNxQPTF2Oj254jL5O4MAOEBobduC312zO+mKai3p6+m30Gvxn7cvYOWV1Wkg43vA2jv/jLQoHnz21Enu3r8KoQZV4ae6WrH8fKV6ZrA/tFhDYBb85I6FGhJJG4qI2jA65O9XBwVrqaHb4MwBBEwHBDDUEtAJzHoHDJEcCCSRxkYx4FvsisCEH3YCrFmBwezVLOaRFTFtl7v1eldl3M3BgJCZ28Wo2cKDB54/R3AO/0Va6+WFNwshncYKjzcRNdlgTCTu0FBCkMldrA8KzMxtQm0zio9e24fC7WykAzB9bhZtHTcfx295CbTKJP26ZxwHCNfXD8ezVN+PH9a9zxifbi2kuij3/u+sXmJq0ygIHPzS8gbPf/AXnD+7EX3/TgL3bV2Hv9lX4/Ck9BHHUod22VPaUyfrQbgGBzTVI52bmkxT1mnh2HoMupoNi2nHPpkFTbcY95wULuJkMfqM/Ap3JoOn5CQQSCCgoapz2FbC49blxz+yIZw1dXEHa/VBvomQDDy6jQ6JLQRdX0OItMEc+m/0O7MBAnObo9oaZ7okFCGr6DAazeiFuhYOwAVdO4YUwD2scHIRLhQRFPklR/H04JShKD0Jmam1AiOX3wm3j52PMwAoOAL54Rq9WeGHORuxb/QJqk0m8esd8ixfh1dp51PgcXS+NSzZEzv+XSx7nAYHRh+NvwEczNuKrl+/Cp08sp2BAVJVK4dMbn8z6d5GyKpP1oV0DguhBsBvWpDLbkJI4jTZM0l+nxibEZNDTkc8lQrKiUM0QLqJNk/KMngi6Z8DsBaDQx4XGLIY4fEoMXgMSvHld4Q/mwxfoasT5+XAD28XQ5QvhCo9ZGnmFmx26pDJeAfPfbo/R28B4TxejAZKYhEiBhJm54PbxYNDFG9J7H+RF4M2LGt/LzDsIaAUGKMVp98SAVijkHhQhnfeAO/8hsweCXYMkJ4MvAaF11FbDmmqTSdT1T+GlTXMpAHz17ArUJpPYXb8AR279I2qTSQsg7K5fQA1U/+6Ztbbt2Xt4xp91wJDx3OOaUTOzvoC3BzU27MCRNS/h1REzHCGB6P3F11Ew+OrZlahKpXBt9cSLHtpU2j3zfhhlPQdzj6tGTs/6OWyvymR9aNeAYGcM7LblX7dvmMSWQnLljjQ+LsbOixBQC7n2wYFgIZePoISY4U1sAyW1QAeFYD58Sox6E7x5XZEXjDFNiHiPAh29TPoSeMlrGvU0uBnPgDuP9wqIkyO70PHNfJdEcnyXRzPhwBuCJ88sZ/Qr+eCGU1mqFnSvCds5kUv05HIPivlzrrGVC/wUR3INtYg1/4D1JDQXepJqmdoCEL5Z8xIaG3bg70u2oqZfEsumjKQQ8Od7r6OGZfWAkRjLeBo+qptHAeGTDJvrRGMJ9B80OuP3sIAwY+5NmHXtLVlfwNuDrqycQEMMawbWpwWEnWsXYu/2Vdi6chqqUincMmaO7QyOlqpXv6qM38MCwpQZyzBjzk1ZP4ftVZmsD+0WEOzFGw7yvLWawdmLwHbvY70JikYmEPLTHQPBQmYSIZOPoDGlj4IRpY2UtDhtxewNMFUO/q7w+KP6JEWvhisIGLj0yY4um1yBzKSXK3Kg4AvBk6cfz/QY6KWMZBiTJy8Cn78bAzvCzAWHqgVFK7K0VlY00wvj1PuAbY/s1F5Z9A6YiYhmcyXpNbh4tQUg5At9+2uTSbzOhBNY40J6JKwZMBK76xdgz3UPXnTuAQsIw2qnItF3OPIL+2LWtWsQjSVQM2oGakfNRFFpBabNXolozOpBkIBgamnNXOwYvQgjUxV4YthkWzj4bOS1uGfJFFSlUhiRTOHLlc9icfXsSzouAYRYQV8MGDIOqQGjEI0lMHXmjYjGEqgcPBaTpy1FQXGKXi/RgyABwVmZrA8dChDSVTSIHgTNwYvAGifi7tZVpHdWZNovK0ZtP81HECBBDRVaJz0a8XoCCQqbn6Dmm4mMhty+CDXWbm8IXuL6tyjE/HWYmyCMa+bzCkRp+pwFw2OQFzDBgJs7wcCBGipkOiZakxIDDGApxrlk4YB0TnQa8ayJ184GBO16IkhdvNoCEKKxBGYMnmpmwq97lYLAygG1jnei741dgsaGHYjHm29YZCcWEKpGTkNV3TR0TwxFTf109Enp33PWtbegqk5/LRqTgNCcJvaqwttV13CjnEVNTA3ER8sexz9van4CZktEAKF3soZeq+KySkyYshCDhk1ENJbAnOtu5a6jBISWK5P1ocMCQihaDo0BBf41xsBEyqEyiW68a7uMehDY9svEyLE5CTwkFAueBH7ao56XwIcdSOiB7ZvAVj14/N3gDUSpcWcnKtJkQpvXLI/9PCyI/QxIZUIXjwafP8qDgJ03RCtgvAaMN4WeBzMkEwyVWOBAYbw0LByQa0pbK0dMD4Jd3gmRDC20rtoKEKKxBG4bdwOXDX//kAnOSW/GtmVF/S/6eHMXrsPchevQLd4bM+bchJnzVtOOeHMW6MObSrsPxJQZyzBx6iJEYxIQWqIhJZXctXqjaib3+KMbWjcZkVzHrvm9MHPuzbhmvu4B6prfCzPnrUY0puebTLp6CUZPmIdoTAJCJspkfehQgJCuL4L1NfNOVIuUQ6Xxa+YOlvMg8J4E001ul7hIMvaLGMMpgAI3/VGf+sh3YIxZYCFP0UsI/WocPqUbvHkRuH26ofcaTYyId8HjMx4zf3VFqHQPgtDsyBsxjqd3RNRDInEODGh+hUNIwZqvoZ+nAIEDrcgCXnZ5B2qEzz0QxzuL11fCQeurLQEhGktgSfUcNDbswL9vfAa76xfg0+kbuPDDd2v+gL/N1Ovu+5UPbtPPInVpeq92Lp+cWGudeijV/pXJ+tChAEEV4tNqxLn1cihaxsezje24Fsx0LgNTgkfc5VyooZiHhJAICaZYUCCwQGY4kJbMJAEwYAx8ylN4aPAr+Vz+AlUwH3mBbvD5u8KbF4U3L2okFkbNBEO/8bxPn5tAwMMcT202eSJ9DQKkXJOEE9j5CuS7ha0hBXJOFE2f2hgQwgpsUyq91TXfVlmLmJ6DYLhMDzU4AICEg7ZRWwNCNJbA6NSYZjvyJUoqs75wSjWv/FgvbOw/FiUXGQaSyr4yWR86GCCUw8wxaEnzHLZcrsxomsR0WGTvaMPC88YEQiUdKHCNloSmSloh/GoBHRXtIw2GmMoArkKAjE4mzZcCMaOtcWGL5Q/GuffrzZoKLMek4YNgnPY0MKcy8s2PFNsBTGYpIx2XzU7GNM6fKiSFBoVzzF2bcBkXGnKqYhETFKUuTZcDEKKxBGL5venwH1HZXjClpHJJmawPHRAQysEaiOYggS1vZHv9k/3wHRiFJkpGt0UWFBQu5m52XVTCRVCM+Q1+tRB+Rfcc+JheAaJnwZwGyRtv1tvgC8TgJ2WTWtzoSRCnHoagFkcgWMB4BHSvAK0+sMspIOGDkF6yqfd5iBufWc+ZoJ0kbco/SWiG5BsoKoEIEwDUUIn1/BKjTloqh8znnRIT2espXnupS9flAgSibVevp2Cwb/Xvs75YSknlmjJZHzogIJiZ7k7GgoQbxFHQtPSR685XxhkwCyCwpXpO3gRNT2JUtCKub4J+R17E5Srw+Qo8NIiJjqSlc14gn05QtIcJUyRcQPcV4oGAzyvgwwh+oe+D/rx9OIH3GvCNkAgciOdWjfBJieL0TeJREK8je93Nf2f7d9g5dLkBQUpKKrvKZH3ogIBQDt5QOBsLExDKLAZINDyWO13mbliPnZdQUPCr1n4JRLphFcIPlhCEDTDQBky8AprZ3jmdSBMjiywwwOYV2IVKii3fie1vQKsUyHcUgMoeDJybIZFr4dRSmb/O0nvQ2pKAICWVW8pkfeiggEDEGw39jpM3NGw+AgsJYo8EcX+OHoWwWemgcKCgw0JAE5IZRQPsCAzOUmgug72I4ef6FNgpxIQNnMT1NLCCgWKTayCGFJwMeSjChn/4kALrObCCggSDtpIEBCmp3FIm60OnAQQ+pGAFBGKQxIFOfCMlMhyo1CphlgAJObDycy53Jk+hBcCghJmEQPpeAgiFdBaE/peXwkEAaWJk5EQwQKDYViLYycwx4EsXrRUKKpPsKYqcV7ZaQYuw1SXWpET2GsqExLaXBAQpqdxSJutDpwEE/u7fCRLY/gh8hYMm3LWKrZnFzotic6UAY0yDXFxeMPgksZFsw/7bDhyEvAYnBTQbz0CIOUZIPJ7wmdicC63YbHbk0NfAvjOiEFKI8GEFUnqaLiGRAJz9tc32763zSQKClFRuKZP1oYMDQjnEpEUtIuYd6NtZ3dmCsYrwSXEkHGG6zXUvgmLjXifPKwwwKKroPRASHy2NhgRpQi5AsMBq7ENGmIPMQSBzIyzbsccRgcBMxFTDxVwvA9q7gNleDZdCMUApaHRHZMGMvTZsh0TzfDv3MxDzRSQYtL0kIEhJ5ZYyWR86ASCwsnoS1DBvZOy8CXZ5CVxrZi4HgblLtimN5O+y9btvOi2STQq0GGnTWIvJgc2HBOzeU2S7b9swR4TxhIjjsNkcA66vgZibYTQ/4jwG5dRTExSaILF9Dlgo4OEg27+nzi8JCFJSuaVM1odOBgjlEMvhxEoGEttO602IloPW6IdK9YoG6k635ig4wYLYypkYYyohHMAmPQbUIubuPR1Q8MafK8VUiyzHEI+vhMycgoADFKTLMQiG9HNEmlCp4VIm5yP98CWrp4cNL5RDQkLbSwKClFRuKZP1oRMDAn9Haht6CJdZvAmcAQyX6rkJnOucbGPNURDj8VaPApvgx+QZhPg5EErYHiBs/814AYgUUmnBgglTkmgej5+VoLLeAJv8AvN7M+eD5AzYQoR9pYK1/NR63SQcXB5JQJCSyi1lsj50QkAoh1PSIgk5sIaJb6ZkTbijI4YjzZdFBgWjyv7bDhTsZOY4MGWVbFggUqy/xgBEgAIDeZ/hTWjp8Rgg4Eo8LQBkfnf2nNBBS2F7D4v9+TavjbVaQcLB5VKiX03WFywpKanLp0zWh04KCOUQmylpNrBgZ7TIXa8aMePnYkkeGSFtd0zHEESkDKQTISvLYKOLkZgPYBPmEI+rJyCWQI3Yg41d0qG1KsE8v2ISIgsG0mPQflXac0jWFywpKanLpPxeGa0PnRgQWDl7FOwkusVZUBB7KJhtg00DJ7Z4ptMjxYTHUIlRbVDCf0ZyRy/c2XOvOW0v3PkHw6X0GOIxCVxYvCzM91CZ1sgiGJgTM/nGR1qETfK0AwQJB+1JsQI5mU9KKheU6FeT0dqQk4DQXCKjGrGWRYoJjXZeBS1cRnMWxLtvWziwGGuh74JNqMLusZ3Hwq7Bk733oZQ/V8bnt1Yj8H0MuIZTaToi2oKBrFRoV+rea3jWFy4pKam2VbwomfHakCOAQOQMCnZ30GokDSgwsXPSeMmSrU/2aZleKJZRiiOorS5+q2ue7dVQzmzPwgUBAWs+AJuIqRqVCCIQODUssjsfms35bt5rIAGhvahHnxHomt8r64uYlJRU66uwtCLj8IIayTlAYNWykAPZXiyNZA0jCwhmxQRfDUHL/yKmNAoZ5WYVQIj3BGT6vVjg0KswSqlnQwyL0BwCwQPBlRralIW2pNFR+qZHEg7ao6L5vdGzbzWKyweioKS/lJRUB1dZzyEoTwy96DUhhwGByM542TXvMd+TzmCmy+K3azPMhihC5Pgh5s4+XGo17DYS4SJI+xHYQQ0fKrCGLJxyMcQRzLxknoGUlJRU55EEBMtdLZ+Q6BR6ILLCgTWPgfxbi5gGmq2OEI9pyTkw7uqdjL0IJE6hARYMxM9u9x1ICaITEKiRcrAQZQ8G7DmWkpKSkuookoDAycbAcXF9Z0PX0twFOxc9KQ9kKwL4skznhERrcqL5mUXDbjdiuSVhg/TfWeYXSElJSXVGSUBwlLNngYUF/s7Zfl/kLrwlxtluO5W7qy8V/jqHA1p6vHTnQewXwSZD2nsqsn3dpKSkpKRaQxIQmhUPClqEN5KsYRSNvBrhDbBokDVBToBg5/pPBwfi/rSI9bPYye4zqBF7T4HGwYAEAykpKanOJgkIGcs5vq9GxNCB1eCn27dowJuL/TeXHyGKPb4IMSJQ0AoHx5wC6TGQkpKS6sySgHDJspbutTTOL8KE+Dx7B58OBNJVWdjtL52nwtyO9RJIEJCSkpLKNUlAaHVlBgp2uQdWz0GZ5Q6ffSxWC6SDkZYlKEoPgZSUlFSuSwLCZVDmSYNsGWSmyYZmyCOT42b7HElJSUlJtS9JQMiSnO/c9b8trXpwBoz0x2quv4GUlJSUVG5LAkKWdDEGurk7/1C0ezPv7y6hQEpKSkqqRZKA0I7UkjLETPbXHDBISUlJSUk5SQJCOxPbs8DOy6CHHrpzj2W4QEpKSkqqtSUBoQNJQoCUlJSU1OWSBAQpKSkpKSkpiyQgSElJSUlJSVn0/+0sSMmacfv7AAAAAElFTkSuQmCC;" vertex="1" parent="1">
          <mxGeometry x="160" y="500" width="320" height="160" as="geometry" />
        </mxCell>
        <mxCell id="FflpXugrEhwSwH_WfC18-4" value="" style="shape=image;verticalLabelPosition=bottom;labelBackgroundColor=#ffffff;verticalAlign=top;aspect=fixed;imageAspect=0;image=data:image/png,iVBORw0KGgoAAAANSUhEUgAAAggAAAEECAYAAABN1syFAAAgAElEQVR4nOyd91sU1xv237/ivV7AliwwwIIiuvQuSGcpNhSlKlhQioACCkhnWVBjjzFRvxo1atTYZWOiMaaZqCnGGKOxl6gIInX3fn+YmbMzu0sVXZTDdX0uZ6eec2ac555znvM8/0fCyEChUCgUCoUi5P8YuwAUCoVCoVAGH1QgUCgUCoVC0YMKBAqFQqFQKHp0KxBOL1wDKFRGoaX8ODzG+Ru9gSgUCoVCGYp0KRCMJQx0MXYDUSgUCoUyFHk1gVDD0dV25Zddb6s7TQUChUKhUCiDlD4LBM3as8D+S8DaM9Ds+Rmar65pt2k02n0v3AI2n9f+3vY9wG9Xc/+2d7LH/XwbOHudCgQKhUKhUAYJfRMIDxqBB03AoxfadfVXWSO/9xdoTl8T76+6ql3+9Z5WINx6xv7b0g7svajd59SfVCBQKBQKhTII6JNA0DxphubOM2jucAZ+98/Anl/YbW0d7L93GrT7f/A1sPMCoFaz63iBUHsa+OY6cPBXYB8VCBQKhUKhDDb61oPwqAk49Cu7/Nkv7FDDB2dYP4Q2brigUw2sOQMc+R1YexbY8h3ri6D8UisQhMMMChU0P90Cvv6bDjFQKBQKhTJIGNhZDELHw5oenBR7ibEbiEKhUCiUoQid5kihUCgUCkWPLgXCufQNRhcHVCBQKBQKhWIcuo2kGOYajpSJcUYh2W+m0RuHQqFQKJShCs3FQKFQKBQKRQ8qECgUCsHC2gm6f1a2LrCxc4Oja0CPxzu6BmDMOG+j14NCobw6VCBQKBTCrdt3AAA2o91gN9YTOz/dBwkjQ0ZWPgD0eDwAHDh41Oj1oFAorw4VCBQKhfDThYsAgO079pB1ox28RD0Kox28cOnyb6J1EkYm+t3U9ALB4TGideZWxq8fhULpPVQgUCgUEc3NzcSo3759FxJGhrnzF4t6EOzsPWFt5wYJwwqDyupVZJnvQejs7IRarYaEkSEjq8Do9aJQKH3jlQTCn1f/xl9/Xe/Vvmq1GrV164xeYQqF0jtu3LxFRIGuQNixc6+od+D0V99AwogFQvSUeFGPgrHrQ6FQ+ka3AqGrvy9Pn4WEGVwCYfNH/+vVGCmFQumapNmLcPRYPcwZGT4/cIT8n5oVP0/0/wsAJgREk+VvvvmOLP9y8VdIGBnsxnpCwsgQEDyF/t+kUN5CeiUQuto+mASCrb0Hvv/hgtEblEJ5m/nnn5uijwHe2DNSF7JOOsYdnZ2dov14gfDixQsAwM2bt9DY2ES2d3Z2Gr1uFAqlb7wzAoFCoVAoFMrAMWACAQC+OHxCtL2jowMtLS2QMIYFwrOG5+Qaly//rndtcytH0VeKhJHhr2vXyW//wElk/8nTkvS6QH+6cFHvnPzyh5u3AwDyl5UBAGanZBj9ZlAoFAqFMljolw+Cq0cQJIxYICwrrNQTEwDA2DhDwugLBAD4+efL5PfLly2km5LfrtFo9Mqy/8BhSBgZTpw6LbpeXwVCYVEVAKCxscnoN4FCoVAolMFGrwRCQtJCEfz0Jt0hBgAICJoMCSNDUNg0kYEXCoTpsXP0xIT9OG89A19YXEV+f3PuO4MCxGuCHBKm7wKhYHm53vkoFIphkmenIj+/ABMDImFh7WT08lAog4nRYz0QOzMRy5Yth7PbRKOXZ6AYUB+Eixd/Q0PDc3Jsveprsk0oEE7Vf9Vl74Tw2tIxHuT31u27DQqEoNBpkDBUIFAor4O589Lg6hlo9HJQKG8T6RlZGG3vYfRyvCoDKhAYqTPZX/c4oUDIyl7eo3EeCIHwx5WrBssmYahAoFB6Ij+fBjeiUPqLzWg3JCSlGL0cr8KAz2IAgMePn+iN7RvyQfjm3Pfk92d7D+GUoMfhVQXCnj0HRL8bGhqpQKBQesmSJUuNXgYK5W3H3MoR06bHGb0c/WXABUJYxAwAgI9fhGi9rkCwGe2uN7wgHeMuuvarCARh+QEgZobY74EKBArFMKlzFxi9DBTKu8LY8W9vdtMBz8VgyFBTKJS3B+pzQKEMLMuXFxq9DP1hwAWCWq3GV1+fM3rFKBRK36G9BxTKwGNp4wRbe0+jM85pIpzcQntd7gETCJ9s29XjkASFQhncJCXPNXoZKJR3kTmpC2AldRkU2Np7QjrGs8cyD5hAsBvrCVfPYKPfBAqF0n/cPAwPL4RFxIp8eu7df4AZM99uD+2BQPfvk227RNvnzs8GADx48MjoZX1TSHX8y549a8BYmS/ZfunSb2Tbb79dMXp53xTLli03ujAQIh3tDnMrx27LPOBDDBQK5e2lqyBIvEA4e+47/PnnNfKCr1edMXqZjQn/t/mj7fj31m0AQHGJAhJGhkuXfyfbh6JA+GzvIWzjnMv5nmU+Q2hN7Vp8++0PAACFco3Ry/wmKCwsNLoo0MXZI7zbMlOBQKFQeoQXCMJ17e3tQ35IUXdYFdAGaHv06D+kZ+UPWYHA58o5/dU3pI2cXAOQmb0cEkYGZ7dAAMCOT/cavcxvgqKiIqMLAkN014tABQKFQukRQwLhxMkvAQCOLu9OaNm+YuhP5uKvt89QFAjCv+bml3r7aTSaISUwB6tAsJS6dFlmKhAoFEqPGBIId+/eBwBYcgnZhiL831dfnwMAuHmGGNxnKAqErdt3GxQBljbOpN3sxvbsKPeuMFgFAiN17bLMVCBQKJQeEQoEm9FuWLl6AwBArVYbvWzGRDjEoDvcINxnKAqE0IgZSJ23GACQnVsECSODg8wXgDhT71CBCgQKhfJOojuLAaCp0iWMWBQszmVzzGz6cKvePkNVIEgYGTo7OwEA5laOuPDzJb3nSPXl0HB0pQKBQqFQKBSKHlQgUCgUCoVC0YMKBAqFQqFQKHpQgUChUCgUCkUPKhAoFAqFQqHoQQUChUKhUCgUPahAoFAo7yShzuFoLj+G5vJjovXPSg4ZXN8bxtl5AgoVotyjjF6//sLXXbf+/Low1+5j3RuitfIEoFAZvW79xcbGhdR/tK07Wf9b7rZ+PysSRgYoVNgwo8Do9esvVCBQKJR3knAXOaBQAQoV0oOTyXp+XX8NGhQqWNt0Hep1sGOo/qcWfEDWhbvK+3zObfErcKNgt9Hr1l+kNi6k/leX7hiwZ0VdXQ+3sROMXr/+UlRUhK07j0I62h1WUhds3XkUW3cexYSJk2EldYGLezA+2XGEGO6tO4+KlrfuPIr1m/dSgUChUAYXQoHAv+BXRC4y+NL/LXcbHhZ/jv8llEHCyPBtxkacz9hEtp/P2ER+n8/YBK/xbC6Hj2YW41Hx5zi7aL3R69tbhPX3kwVBwsigqa7Hn0t3iARCrPdU3CvchxsFu2Fp5UTqfnL+alG7lEVn4nTaWtI+5owMNwt2499lexDi0vfeCGPAC4SmsiPkuRhr5wEoVHguWCdhZPgmfQMeFR/AtxkbIWFk+CAmr9tnZbbfTEgYGXLDUvGw+HNcztn62uszUPA9CLzh37rzKELls7AwcwWspC7YuGUf8gvrYGfvaVAgJKdkIyR8JhUIFAplcMELhADHEEChgqWVE1orT6Cl4rhIIGyeWYTGsiP4auFaQKFCQfh8BDixx8T5TIeEYY3q77nbyHKQcygUU7IBhQrlkzKhqa6HBdN9nvrBAl93dfUpaKrryTp3Bz+RQIBChaPzVqKj6iRpK2G7fT5HQdr1RflR0T5NZUfwWXIVTi1Y/Ubr1l94gTBa6gYoVHBz8MOd5XsBhQrPSr8gdUuZGIf2qpPYm1wFKFQ4l74R1tbssd9lfKjXRlCokC+fD+/xAYBChdUxS/Gi/CjG2HoYvc69wZBA2LL9C5EIWLNxN5SrtxkUCLZjPGBj50YFAoVCGVzwAkHCsC/qj2YVAQoV/B2D9XoQNsQuw+WcrYBChd9yt5NjmsqOYKrnZGII+fVBzqEoj84AFCrcWb4Xsd5TjV7f3sLXvWJyJqBQ4dv0TYBCRYwkLxD8ZEE4l74R1/N3kbYKcQkDFCpYMI6iNtQVCFCocHbRBqPXtbfwdbfjBEIDJwoygpPxvPSw6FmpmJSJi9mfAAoVWitPkDprquthK3UFFCo42HmS9fny+fAc5w8oVHhacghFkYuMXt/eUlRUhM1bD4iM/hgHb6zf/BnyC2vh6x+tJyB0lz/85AAVCBQKZXAhFAjN5cf0vuyEy//k7yLC4d9leyBhZPh8drXB4QheIEgYGQKcgomxmOY12eh17g2G2uGTuGLY27oTgbBMvgBQqLAgIBFytwi9+j8tYQ2o9/gASBixQJAwMuSEpkJTXf/WOC4KBcLpBWtFbdRUpq2bproeTeVHEewchvZKbc/KJPdoQKHCw6LP9doqXz4fEkYG17ETcGRuLaBQ4cOZhUavc2+gTooUCuWdRCgQRnPG76esjyBh9I3k/aL9OJSiFAkExsqJ7BfpGkHOywuED2cWorHsCOo5B79g5zCj17k3COv+khNOjJUTxo/2IgKhmPPV2Bpfomf8f1y8WU80CffprD6Fc+kb0fYWzWwgQwzcDAZ2CIYdfuHFJb/+ZcVx7EgsMygcoVDh2LyVonX58vmYOzEenVWn8EUqKxCUU3OMXufeQAUChUJ5J5GN8UZJVDr5XRKVDqmNK1nmt40f7YUDKTVIC0xESVQ6ckJTRccIz8GvGzfaCxJGhlXTluDbjI2Y/hYNMQjrFOQcQpZtpa4oiUqH4xhvSBgZlobPw66kCthJ3URtwFg7oSQqHcWCrvLlEWlkn0j3SBxOrcW+2dVguGGZwY6lFVsnK2tn0kZ8OxRFLiR1s7Z2xq6kChRGpInq3N2zwvc2VUzKwg+ZHyIzZI7R69tbqECgUCgUCoWiBxUIFAqFQqFQ9CgqKoKrVwTBzt7L6OKACgQKhUKhUIyMrkBw9YowujigAoFCoVAoFCNjSCBIx3h0abijpyQAgGidjZ0bAKCichUVCBQKhUKhvAsYEgi2XNREQ2g0GpFAGO/oB41GA2XdOioQKBTK4MFxjDfKojNEjOc803vDifmr+jRNT3idEBftlMcZXlN7fR4oVLjBTbN8XQjLGekeCfM3eE98xgeQawvXl0anG1xvqH0OpdYOeLksrZzI9fPC58NXFvjG2kR4T3LD5hpcb99N5MV9XFTH11GuvgiEP678hVD5DL0eBCupCxUIFAplcKGbiwEKFYJdeh+roK8CQfdafBjj1IlxZLk353jdAkG3nFCo4DDa843ckxT/OHJNJ4FYMxSQqquyvw6BIEzWpHv/3gSG6n+YC6rEBqSa2OWxr1sgfOzq1aNACA6Lwe3bd2EldaECgUKhDH6EgZJ0sbfzwNrpeYj3nU7WjRvtBXcHP9jYuEA5NVskENwd/ODu4Ef2dXfwg70gLbCEYV/yK7h58GcXrRMEaXIjx44b7Ql3Bz8w1k5YMz2PXHfVtCWw5cL8vimBIPx9nAvu42zvi42xy+A4xkd0TOrEONRMycEYnTr7yQKxeWahSGB4jw/A6pg8g1+9QoHQUPoFJIwMyRNiDRrI6V5TsH56PmQ6QoIXCLr3JNApBGXRGbDmYhnw+9jYuGCZfEG3bcILhBS/WZAwMlzL+1RUljifGKQFJop6W8baeWLdjALM9J4mOpeVtTPywueJ4h1YWDliUVAyZngZjpfBBmY6BShU5Bqa6noSyIoXCHZSN9RNzUGK/yxyrFAgWFo5wt3BD65cBkkbGxcURy5CqEAYO9n7wN3BD6Nt3VES1X3Y56KiInzt6tqjQAAAV48guHoEkWUqECgUyqDFUA/CaFt32HDJdVoqjovCAR9K1X6x3S/aLxIIQuNVOXkxoFDBVuclpXutE1zWw9LodHLsQS5aI0/qxHi9496UQAh2DsXdQjYh0YLARPy+ZDtnuNncA2tiWAHTUXUKnRyGIgdqqutJ1MGXFcegqa4n+QtifcTGkxcI1ZNzRG3L3wd+3aPiA1BX15NwxnyXPy8QlFPZ43PDUsl6dfUpNHKZF3nB0tueCV4gFEUuRLzvdNExULA5F14KIiryia34xF8tFcchYWRwsffVu78WVmzeipflx7qMLgmFCg+L2TDNDSVfkHWOY7xFAoEvi/C5FQoEYc8Hn42yqeyo6N7xWTuhUOGX7I+7bZeioiKcdulZIOzac5AAALv2HKQCgUKhDF66Egj89kke0TjAGWwJoxUI/BecUCBMkAURw/Oy4liXL3ldJIxhgcAbMN18BW9SIPDUp60m60uiMjDNawqOzxMPr1hZOyM3NBVQqFA7LRfhrmx+hvFcREnhuRMnxGKa1xRRkiceXiCYc/tO4RJh2dt6GDTkGcHJbBkXfEDO/8tiNvfFhcVbIGFkCHNl7/M0rymY5jUFrRXH8aj4c7L/95kf9tgmhoYY7KRu+CX7Y9G5oVChbmouOS7Gawo+S640KCR5Hq84oHeOSLdIvXZ7VHwAP3FhrL9etJ4rg6tIIEgYGUKcw7BlVrGeQGgT5IYQlkV4XWsbFyIQevOs9NVJkQ4xUCiUt4KuhhhquK/Pb9I3YO30fD2BwO+n64MAhQpPSg4CChXmCLp4hdv5IYYo9yhAoYKfLMigQBAeIxzrfpMCwdD6e8v34Ub+boKEYUVMe+VJLI9YCChUOL1wHTKCZwMKFQlNLGFksJey+S5uCo7nz8HDCwRhOQwZVzUnnEq5jJnCVNvfpG8EFCrcLdwHCSNDVvActt0MXFfYy9AdukMMPFc5Yyo87474MlRzvUinFnxA0n531bbNXJ4K4Tl0nRGhUOG/FQdJNkj+3A52nkQg8D0bl3O2oSRK+0zxAoFPoGXOiO+z8LruDn6vLBCko7ue5vimoAKBQqG8ErxAaK88STizaAMu5bBfoJZWjnjGvVQlTM8C4Wz6+i6Nq4RhX8gtFcdJN3d3PQj8MV8tXMt9PX5OkgIZSyCoq+uhqa5HceRCtFQcx5KwueRLf3lEGjI5UXB64TqynjdAfyzRpshurTyB8ugMdFadQphruOgaQoHAG7ynJYf0ygWFCruTKjDJI1pPIBxKrcUXqWw7pvrHw5xLPf289DBWxyyBprqe+D+8qkBwtvcBFCpcXboD++ZUo5UbSuCfIXNGhlZumEHCyHB8/krSG9BQehhSG1fkhLE9L6fT1uJs+gY8Lz1s8J48WSFuB0srRzhzQxbe4ydiH5ddVCp1xe3le/UEAn8sLzjPLNoAKFTYnlCCK0v+R5KQvapAMLY4oAKBQqG8MoaGGM5lbIKEkaGJM+Jz/Gf1WiBIGPYFzDvX6cJfQ1Ndj/q0D2AndYOE6V4gSBgZzi5khQdvAIwlECSMDHc4w9Ncfow4+62OWQooVNiZWE4EgoRhHeb4IZKvFq6BhGGHIniDeWf5Z3pTKIUCgS+LoXLxPRTnMzYZFAi6+9vbeZCy8Bk7+X1eRSBIGNYRk7/Wmun5kDCs0yHvC8D3FvH7F0YuJPtP4HwnhH4N6UGzDd4TXihtnrmcnM9znD8RCBJGhgdcOukIQQpuoUDw5crKixD+2YNCm220vwLBxVNudGFABQKFQhl0BDgF48s09mtfd9ydQnlXocmaKBQKpQf4r7ArS/9n9LJQKG8KKhAoFAqFQqHoQQUChUKhUCgUPahAoFAoFAqFogcVCBQK5Z3ExtoFE52CResmOgXrrTMWfFkmOgaLvP39HYNxq5czGaBgI+X157rCdbN8YvBX3o4ej+Xn5c/SiZDYE2PtPFA5OQuVk7O6TTzUXT1rBQGKBhpzrl10Q0lfztmK2X4ze1W+3s4MEBLvOx3rZuRjQWBin4/9LXdbv67ZF6hAoFAo7ySGAiX190X+OtCdgvlPARvc538Jpb0uY38EgqE2uJyzlayb7j0V62YUkG3rZhSgeko2JEz/BML9ov16dX1ScrDPZX6dAoGf5rgwKEnvuneX7yXtsJoLP+1i7ytqo74+V7ohmXmi3aN6fQ4qEAyXmQoECoXSIwMhEAyl/fUY5w8LK8cuj5nQy1TBUKgw0ycGEkY/OZAhAgRf/QFOIeQcAyEQhNQIIgPy+z/gQhcbEgg2Ni7wGOdv8FybZxYCChWu5+8i624U7AYUKnw4s7BPZTaGQNAtA59zgQ/v3F2bTpAFwdLKqdt7MJNrR7exE/r8bFKBYLjMVCBQKJQe4QXCd5kfEoQvYeGyMFwuH95XCH/ODi7pDR/Yht/2feZmQU/ALhIwScLIMJXLN6BbPihU2DKrGKVc2NybXA/CqmlLyP7buN4EKFR4UX4UTlxkPyEDIRB+XrxFr12gYKMiCn/rCoSOqpOkrlCo9AIjdWX0oFChs+oUFgQkAgoVpDausOSSGvH7twoSGxmzB+Fy9ickgJQh6qbliso9xtZdtP233K2ic/JJlH7mcknwrIph7/tEp2DR+fjnLMxVTsq0JCyVCoQuykwFAoVC6RFDkRT7IhCc7X1gz73Mc0JTEOgUCijY/AoSRkayHkoYrUCY6jkZEkaGiuhM0XWE+RZ4dMt0p5DtyjYkELJCZuuVmbFyei0CoXxSpmh7Vz0IoS7hgIINHDVutBegUGH/7Koer6W7HgoVTs1fjV9zt4qSV0GhwraEErJsTIHAL/M9CEHOoV32IPDiZ9xoL8i4bIzCc/o5som/jsytE62fziVUmhcQj2PzxJlE1dX1+CtvJz6IySPrh7JAsLBx7rLMVCBQKJQe6WmIQbjMpw+WMFqBIGFk5Ku2btoSrJ9RIDrfIUHYZF4g6F7rLBcPf0PsMr3yQaEdYkjyiwUUKvg7BhsUCIbKz/82lkDYz4WGfll+TITwvI+L2UyG3uMCyDqf8QGAQoUnOjkYNNX1SJwwA1CoMJdLg23BOJJ93iaBoKmuF7WJk71Pj/fAUGbPYOcwQKEi96S5/Cg6qk5CwgxdgTDawafbMlOBQKFQeqQngfCc6wGI5mLp9yQQ+ONbKo5jUVCy6BhDAuHWss+6/ILmz/XVwrX4fI6C7Gdt7dytQOBzSCwKSsLP2VteSSC0VBwnCAVCelASoFAhxmsKSYQEhQqe4ybqDTHwbePu4I+m8qN6QwxSQXbC+0X78aD4c7024RMy8eseGtjnTQmE9ooTpE3spG56AoFtB3+4O/gBChUqJ2fBltuPL28bNzTi4eCHBYEJmO2vPwviYvYn5JjDXOIpKFRoLDtC9uEzWrZzgoDfh5/xMFQFgrNHWLdlpgKBQqH0SE8CYYytOzRcBkPhV3N3AmHexARoquvRUnEcX6at6VYg8AbGUPY+YVk01fV4UX4Ucm6MuTuBIGFkaOGSIT0vO/xKAkGIUCBIGBnaOd+C8aO9UBA+n5RTVyDkhqWSL98X5YbLIbVxIWUWfoV3dV/ifWIAhQoKbuYEv/1NCAQhugJheUSaqJx8GudUrrdD2H683wAUKmw00HskYWT4X0KZ6HrCJFMSRoYts4rZXgQX1iCqdXoYhqJAcPGU91hmKhAoFIpR+DFrM1nW7RIWYmHliIXcl7itjYvRy02h9IfBIhCsbV17JQ4kDBUIFArFCAi7wnn8HIMM7tvd1zKF8rYgTPdsDFw85Rgz3q9PZaYCgfJKWFs4wtzyzV1Pd1yWQqFQ3gaKioqMXoa+QgUCpV+YW8pQahYKpYkcbpLX2+1rwcgwfaQvFKbhSBrZNwVMoVAogwEqEChDAleJK2pMwqE0kUNpIsdYC8MRzl4Vc0aGmJG+omvNGOlr9PpTKBRKX6ECgfLOkzTCjxhrpYkcNSZyWL6GIQappSOqTMNF11KayOFq3nXUL8rbzY2C3ZjjP6tP+9/gIiYKl4cKZdEZQ67Ownu/I7G01/tfy9tJ2urC4i1GaTcqECjvNEvNglhRYCZHavZyVJpHo8ZEPuB+AfOGTyS9BjXDIpCRsJgTI+FGb4OhiqFIivyUsYECChUygmf3aX9hQJ3XPU2tpzIIf5szXeeXMIT7OD+4OfRt+GzdjHyj1LknDE1z3BI3sMYRChVOLVjd6/3bBKGm+dgQb7pdqECgvJOYW8qwgvM3UIyMQlJxCSYmJKLGRI7cYYY9z/uDtYUjqgW9BvnBqYgvK0dqdCqUJnLMHW44iQ3l9cMLhAmOQQQr665DtPaHt10g8HPrGeu+D7lBoUJDFzEeumKwC4Ro92jyrMjGeA94u1OB8PqhAoHSLZaWMlSahEFpIke1ZBISSsvhmzIHZe9HoMYkfGCGFyxlmDTKWzuUYCpHypJCxJdXIDR1PmpM5FCYhL/R2RIUMbxA8BrnT+B7ju4V7iOG8lLOJ6LgSfz6Ti4xEx+I6GXFMbLt9vLPIGHYl/7J+avJ+mj3SEgYGclTwOM4xofsP1gEAl8/G0GchrTAJFG5R9u6Q8LI0Fyurfv1/F16X9u5YfPYgEvZ2oBLjVzURyhUOL1wLSTM4BcIclc5eVb4TIzfC5J8nUvfKCo/L7A0OlEPr+XtJMfwAaSgUJHgRlCoUD15MSSMjOSx4FnIRUqkAqF/UIFA6RLGUvtFXzZ2OuLLyuGXmoK4iTFQmsiRNOLVZxRYWMpQYhpKxEHpuBmILytHfHkF/GfPQfUwdr2nhPoeGBNDQwyjbd2RHZoCKFTIDJ6N0bbiMLl8tsaxdh5InBArEghQqBDkHCq6BhQqPCjaD3tOWDwV5Bc4mKqEhJHh6Nw6kqxpMAkEXiToblsaPh8SRobfc7eho+okSQrlJwsCI0hfLOxB4AXC70u2wW3sBJHosuGMr4QZ/AJByARZIEnWtWVWEaysncnzIWFk+HPpDkChgve4iZggCxQJBChU+CAmDxJGRnqt+PPa2rjqPQc3l7H+BfG+08l6KhD6BxUIFINILZyg4PwAitziEV9eAb+5qQiIjUONiRxVpq/uD+Bk7kyuUWMix8L5SxFfXoH48gpMSE5G5cgIKE3kmDOCDi0YG0OhliUM6/AlXK9asEb0sr6e/ynZJhQIN5ftIS/2NO4rTzjEYMj4C+lqnzfdLvx1a7gMln/l7dTbplvufwV5Jeb4x5F9dQUC3xth6DzpQXcpyBkAACAASURBVMmDXiDoDitU6CSuEobk5nsOhG3HCwTVgg9IvT9NLCfb+SGG3jwrVCD0DyoQKHrYCsRBoU8S4ssrELBgPjwTE6AwY7/ox5u/WuyDmJE+qOF6Darfj0ZCSRniyysQV1aOCYmJRBwUm4UOSJ0orwYvEIoiFhJS/OOQ4j+LfOF5jpsoeim3VrI5A3xlgSiMWCgSCKtilnL7nBC93LsSCFc5w5sRnEzKNJgEgoTRJpTi8wVAocLBlBpIGBlqpuaQYyomZZLtrZUn9M7DCwRrTiD8vmQ7oFCBsXICY+1E0mAPdoFQPXmx6Hmx5ZJN1S/4AONHe4nyIfyYxebfiPGaghne00QCYTX3rNzlhrL49upKIPD5OgKdQkgvDRUI/YMKBIoIqYUjmUGQH5yC+LIKBC1Mg0dyIoqYKChN5FjyCo6J5pYyFJgFkyGFIp8kMqQQV1YOn8QEVI5gxYHCJBwW1O9gUGBoiOFcxiZIGBl+zd1K1vFj6hJGBmtBVzOfObGp7AjpQubJDk2BhOlaIES6RYr23xJXrLfPYBAIEkZriKZ5TUZWyBxRuReHpGCq52TRurRANiXyfysOknW6AkHCyPCCS2YEhTZL4WAXCIa+5PfP1mbb/DZD7IPAJ6Hi/TnaK1mBwPskQKHCvtnVpN0NCQTHMT6ia57nnlEqEPoHFQgUgp1QHITORXx5BcIyM+CRnIhEvxhi1Jl+Gm2phTa2QY2pHIvmLiFDCrw4KHs/kgw5SC37NlWMYhymek4iy8KvQgsrR/IFxxuNQ5wvAWVokjghliwLewQkjEw0JAGFCo2lR4xe3oGECgRKv7GxcIT/++5IHOmH9GGBWDQsAPEj/TBB4g4bi9dvKK0sHcmwQh4nDqJysuGRnIiAGXGiYEXV/fA/EEZfrBkeicQVpVpxUFoG74R4rDCPJNdIGxFg9HtC6ZkFgYl6X4qTPVjBwH+18QjHmClDDz69tRA+DfWFrC0GexzeJahAoPQJxlKGBcMnosZAxEBdFCbhyB4eiDGvIawxYykjxjtPPg/x5RWYumwZPJIT4ZmUAIWpfnlC3vPs9fmnjfIhx5WN1c5S4HsOvBPiUWQVpXcNL4mb0e8RpXfMC4hHjNcUvfXW1s4okM+H81gaIpvCkjBhBmb7z9Rbb87IkBOaiomOwUYv4+uACgRKr2AsHZE/LFjPINYNi8BKySSsHx2LddIZWPneJCjN9I1ztWkYxlkMTJAaG0vtsEJBSCriyysQW7wCHsmJrN+BJWu4K0dEYI7PNNRwYmHqKJ8ez21hKUORaQgp99KI+UQYxJdXYBbXc7DcJtqgKCoxpQ6KFArl3YAKBEr3WMrgJ3En3vtKEznqRkTifM1WvLh7G23PHqG94bGItmeP8N+fv+LU4jLUDY8UGdACs2BYvMI4vbWlIykLP1shrrSMiIOZgdNRYyJHkk8Muy4pATWcYBndQ0+G1MJJFBVxfkaBSBzwwwqLHSYTn4P57lMRGT2LlGmZ2bv5JUGhUIYeVCBQuiVteIBWGJhF4M99J1kR0PAY7Q3/cf8apuneP7j13XH8efgzrHxf/MXt0I8ph4ylI+kNWOGRgPiycsSVlcNzdhIRCCne0zAhLp78TvWcxgYzMu0+Bv9ocydi5GtGRCKpuFQsDrhhhVkBrADJcJwC7/h4eCfEwzsunhw78X0Po98zCuVNYm/nAQsrfdFvZe2MBYGJGD96YEMWU94cVCBQumTpsCBi0Dc5JKDlv/toa3gMdWcnhH/diYQnf/2CW98dx63vjuO7VetEIiFmlA8kvZ1dYClDFTesUGY/gxhufjqjIUKnziLXsuwmEY2NhbZXotqcDc2sKw58kxJZMcCLAp74eFSN0Ppc0NDKgwdD0xzHcKGDhzpn0zcMmINdV8fzIYSnGfDzGGwYmuboK6NOx1QgUAyy2CyQGNdDCSuIwYdGA92/7gRCe8Nj3Pr+BBEJN789irqRWue+hcN7958wZYQ/a8Dfi9Ya77LyLsWBT3y8SIwsNgvs8twKfljBLEIkDIQCISI7G1OLihBbVCwSCBXvRZBrSN/AzA1K7+EFQoRbBJL8Zr6znuZ9RRgDIi0wEV8vXPdKszW6El1vo0CYH5CA6V5T6bPCQQUCRQ9hEqJTmUpi6DvaWvTEQWd7W7fioL3hMV4+ukMEwq3vjuPf88ewXjpdKxKGdS8SLAQzFpILS4jh9p87t0uBUDUiAtXDtQKhq7TLvu97kH2Sl68wKBCE8MLAJz6eRE5UmshRSqMnDjp0Qy03lB4mv7fHl5BgNi0VxyFhZLiW9ynUAkOprq5HBxcZb3dSBdl/R0IZJIwMXuMmQl1dj/JoNvyuuvrUa6/TQNCd8VNX15NIiT8v3kLa45fsj6GurieRF/l24Y/h97OxdibtxIclfpsEgr9jEKkv30ZpgYmkTh1c7ooNMwqgrq6HhYE2SPWPI/tfXbJD1E7LIxZAU10PTXU9LA0Myww2qECgiBhr4Uy623dH5IicEAFx70FHy4sexQHvtCgUCLxI+NBR+5UfO7LrKWXWlo5kP6Gx7kocCEn2ZYMlVZkZ9kGYO9yfZGPkpzK+WKKEOleJK/nVouv5JycTgVA9PELUQ6E0kcPDnE5xHEwYGmI4MrcWEkaGKZ6T4O8YDCd7NopdaXQG+eKtnJyFsVySnoVBiZjqGQ0oVHAY7QlbKZvcyc8xCF7j2TDNTeVHkBnMRiA8wIUpHqxYWjl2KxCgUKGNEwi/LNYayYvZbPKla3k7McOb/cLu5ASR8Hy8YfQdHwg1F13wbRIIQh6vOAAJI8NYOw/E+cSQ5+PkfG00xIvZH5Pl33K3QcolYvIaPxGMNZvkKjN4jqidIlwjAIUKdwr3Gr3ePUEFAkUE78W/hpmmP0OhqQEdL5rQ1vikV8JASOOdv/VEwq3vjmPj2JnEwBabhiB9eCBmjPSFq7krrCzYMjGWMrKP0D+gJ3EQEBuHGlN2tkFXUyyJE6aZVnz8mq+AJleJohVacRCctkDP98AnPh7zXaeSsvlRB8VBBS8QfLkwycLegbTARFFQpGPzVkLCaHMNHEpREqNnKATvlllFRCBMdAwh+/28eIvR690TryIQ+P1aK07otQ+/zAedsuDEyNskEFL8ZxGRw2/zHR+AZkHY6PtF+yFhZAIBNJnsfyBFofesNJR+QdqmQL6ALL8NQbioQKAQ4kZOIMbuxb07fRYB3dH69IFBgfDv+WNYbT65y2BLNSbhqDIJR83/Y5dTs5aRL/3uxEHwNO3Uw/ThE7uss79giIE/b11xFVaUiH0QpuQthU9iglgkJMSjgIuHUGMihyV1UBxUCIcY1kxfCihUiPWeBgnDvqDjfKeTZVXaGkgYGUqi0smL/eayPZAwMnybLo6/bytl03jzAoHvln5bBEJH5UlAocItrn6eDv64X7if1IGvqzC1MS8Qxo/20ttPd/n3JdshYWTYkVD21gmEMFc5PBz8AIUKOxPLSJ3qpuaS5SdcSu8Ql3Bi6Fu5Yao43xhAoSKzOpzGaGOvQKFCHpdKmwqE1wcVCK8BS0sZMaj1WSsHVBwQZ0UDAuHWd8dx45sjUHLTF1cOi8ARp0SsGaEfpVBIJTMZsz2nwic+Xk8c+M+Mh2KYnGRxLDYL6bLe5gL/Bj47Y3JZBf7Or8HsMrH/QWxxidYHIS4eVQIfBzvLgY8WSXk1dH0QDBk1Hl4gCLcJp+7p7m8rdX1rBYKh+kChwmipG37gMhRCocKDov16AkGI57iJeu369aL15HfnWzjEEOYqh4SRoZVLwsRYOZFcHTy8QBDWnT/OUNv6jA8g66lAeP1QgfAaSOHG4uuGRaLtqX7wI4POh4/v9k0g/HCyS5Hw06bNxNheCM+EJlcJdU4N2jOr8SBhOU64JqPOLAK1BkIoK8zkyHSYDJ+4eHgkJYjEgmIYu495N3Xn8zmkLClEfHkFksoroFlSh44ltUQczCzRioMZwTNE15/WiwiNlMEHb+B6y/jRXvBz7H9W0MGGtbUzoj2iiAHjGTfaC1IbV9E64RCDr6zrGUESRgZ7W3d49bFtBzvuDn592n+MrTsCnLr+MHlboAKBAgmj/Yo+W7yp1wb/9o+n0Pr0IYuBiIq63L90pkuBcOu749gk08Yt6FjM+gHokVOD69OW4mPLqQZ7FhRmcsx1mwrvhAQke7NBkqp6SNRUbhIGpYkcCxbmIb68AjklrEDYVlSF+PIKTMnLFw0rTA6PRZxfDCq4WQxLzN4do0GhGELXB4EyNKACgYKI97yIgW198qBPToePrvyI5gf/Ggy5rMuTa5e6FQg3zx1BLTcscNgl2bBAENCZXYM7ccuwWTIZtV34LyhN5AjuIUlThSkrEOZmLUN8eQVSyiqQxA0vzCop1fM74AmfxAqaCpPuozRSKG87u5MqceEtGT6hDBxUIAxxxps7ky72T4MzuzXwzQ+1uRdufX+yV6JASMPNK90KhFvfHceh2flQmshRayrvUSCIyFbi+8CFWGmmP/2w0jQM3t1kWeQDJc0uYOMg/JVfg3/zakQhlnVnMCT7xJDz9yRAKBQK5W2ECoQhiqWlDLmCUMpKEzlunfm+RyN/7+JZPL3+G57fudZnJ8WGm3/0KBC+Klb2TyBwqHNqcD+hEOtG6WdbrDAJg5tEPLZqzmiHV/hZDPfylDi9TBsDQZ6eToRBrv0kkg+CHb4I69a/gUKhUN5WqEAYgoS970mMotJEm72w9enDXs9G6GvvQXvDYzy5+ouBYYWjOLm4DGfLV+K7Neux3m46mc3QH4EgpHF+GTabT9ETCiVmoZByGSUDuGmOilFRiC8zEGJ58WLSc+AbF4eS97XZKWtMwkkkNQqFQhHiMnYCXMdOYJftfcny2wQVCEMIc0aGIrMQYuA2vDcJO21joTSRY71tLDHkPRn/3gqE/65dwpO/L6H58V20PXuEuxdO6zsmjpulZ8CVJnLsHRf3ygKB51lqKTa8J+5RqDGRI3WEP6pMQ9lYCbOz9cIqhyxMM+h7sMhpChEaxr6nlJ6f+fvcdD1DU9KMxVdpa3vl9Ccb4603bS51YtwrX38mN1+f53LOVqO3iYRhp/9NdOo5ZbqhaZqveu2V05aIpmhKbfqecVZIR9VJUq7m8mNvpZMnFQhDBGeJq6DXQI4/o7OhyVWijusuPzy7jJ26+Oh2lwKg7dkj3Lt0lgQ4evm462BKT//u3iGRxD/gylNnKscqswisMovAmhHR+C+1FJ3ZNejMrhkwoXBn1jKDPgq6ERp5fJOTDAqEEC5LZEUPKaQpxod/4f9TsAvnMzZBU12P9KBko5errwLhUfEB/FOwC/8U7MJMn2mvdO2csFTSLt9mbMQ/BbsGjfHqq0Dg2+Sfgl2vdF23sRMAhQpXlv4P/0soBRSqVx46pALBOFCB0BcsZZgpiJD4oWQyOhZrjS4fV+DaQRWe/HURv+/7FPumZ6Ph5hWRwX/55D5ufXcC1786hK2+KVCayHG+bi0ab+v7IjznZjjcPHcUH1hMwY6gefjl4y349/wxkUDYMIaNJ/CxZApeROejeVI+2lPKoMlRoj1LwZbZlB1u2G0/C/+llLyySFDn1OCM7zw9gVDgm4z4snLElZUjekmuNr2zjnPixBlxJAkUFQiDmz3JlYBChapJiw1u/ytvBxrLDmNPciV+yNoM17ETSHCfHzM3k/0ayw4jL2w+OqtOQV1dD8bKiaxvLDuMyzlsdsQJsiB8kVILKFTICplDjv8h80Ni0Gy4r1KhQJDauKCdMyafxK8QlZEXCDmhc0Xrw1zlJCTw+hkForLy2Qibyo4arHdPX9yNZYexOGQO2Wft9DxyzAQuBsLRebVoLDuMFP9ZgEKFz2ZXiY6Pco8CFCo0lh4BY8XmJGivPEGMrp9jEDnn4bl1orLxAqGUi2qpqa7Xi0PQVR1OzV9FtjnYsc7DfyzZjsayw9gUuxxQqFAYmaZ33OKQFIO9S/w9ljAyrJtegMayw6RnobHsMK7nfwpzxhF/Lv0foGATdvF17E4g1E3L5favJ0MPjWWH8byUvdZUz0loLDsMJ3sfvW1vEioQ3mUsZcgz0zoinvZO1TOY/LYtbkkkmqHSRI4j85aj7dkjtD17hOe3/sK/54/hC26GgZDDKcvw7OYf2pkOXA/Ev98ew0pdR0FTOdZYTcGPazfi9/27yPqGiKVoTykXlatjMSsQ7nz/HZof38VW3xSsHhE5YL0J6mwl1o4Ul08xKhLxxYanNS5wFsddqDEJhzUz+LOxDWV0jYhud/Tdwn2Ags09sDOxDPnh8/FdxiZ8OJM1JMWRC0XH/ZqzVXQ8v/xH7nZR9EGhYbBgHNFScRzzA+L1YvzzqKtPob3yJOb4z8L5jE2ibYaGGCSMDD9lfYSDKUocTmUFCR+UhzeoV5fuABQqnE3fIDqfuU67zOYMPBQqbIxdJqoXn3OgrfIESqIWkaEaCSPDaU7gPCv5Ak1lbJ4CZ3tfcry6uh43CnaTc/3OtRF/zk/iVkCVtgafJlUAChX8DQRfgkKFFVHpUC1YQ8JbG7qXwvq0V55EelAyXlZoDfK/y/YACjY5UnvlSYP3QPecFZMyIWFk+IerA3uf2Pu3d3Y1HLn7EuoSDmtrZzwvPYy5E+NEZelKIPBt91feTjSVHSHC8QwXhVJYlnvLtSGwFwQkvPH/Q1QgvKNYWGrn9ytN5HiYXGTQUOoa/A+Ga53wrquO4t7FM7j+5UGsFIQ+3jgqGsfHajMx7gpfiP+uXkDLkwek52C1ZLLBc+pyyG4W1Fn6QZHUOTVYNSwCHzrF4drJz6EcFoGv/eYPmEDg+Sl4kV6ZQifPNCgShPkd5O95Gf0eU7pHrWOQVWlrSNIdCaMVCPx2axsXXMv7lLycr+d/CgnDvpx5w90pyE8gNAYXBemBk/1mis67kfty7eqr9/GKg2Sbh4O/aBsvEJ6UHMLt5XtxezmbAdDBzpOkr4ZChZKoRaRM2aEpZPlh8ed61xOWI9o9Cqq0NXoCYa+gRyAtMFGv/Kd1hkigUCHEJZwsxwvyXPBtJzzeTuqGu8v3kXXCUNe65fyDy+1gaBvfJny71EzJ1isrLxAkjAyJE2K77T0Jdg5BO5fEa7rXFIy18wQUKtLjcWRuHaBQYWt8ieg8fN6J3ggEKFS4lvepqC4/Zm3GGFt30bU2xS4DFCpUT17cbZlfJ1QgvIMI8wvUmsihye7aQNaZybHbejqehC9Bc3Q+mqPzcchO6zh4tmIlWV5pJsd/4blkv6fyXLJt24QU/Hv+GG6cPYJaLhVyrakcjZF5aI7Ox4vofDyPXIojY+JQZ6r1A1AvZv0MzgUsRGtGNdQ52uGPazF5ZL8dtrEDLg54OrMUojIpTeSI9Z8O73h9kbDcmhVKfu+5G/0+U7rHm8uVIHy5CsfbdQUCFOKsjreXf0aW+W5w4UtfeO4fsz4iywkTZoj24WPur5tR0OWL3oJxxNOSQ3rbuxpigEKFRcHJZHmDwLjPD0wky4YEAt+TEeQUKjqfUCCsjlkKCSPDeq7MFlaOJPeEhOlZIMRw+RegUOH0wrV67QWFCptnFpLlP/N2GGyXRK4t/1z6P73667YV/zUuYWRYGj7PoECY6TOty3sQ5xMjOv+66QVk+c7yveyXvrU2LbRQQHZWsamvhUKxO4HA72/BsBkvD6UqRduE+7ZUHDda3gYqEN4xGEsZmadfZxoh8jfoFTlKtM4q0vvqP+ecQoSBkOcRS4kfQ90I7TFrhkWiiRMHLXHFaEsuRXtKGTrmVUC9qBqaxTVQ59TgXECa6Dq1pnJ8xExFZzbbq7B/fDwuRmS9NnEgZPeYmaKyZDpMhnd8PHxnxSEyMhZFTBSZAeGtE0+BYjzMrboe6rnJGQddJIxhgSBkIATCw+ID3Ev+WJdDDIbKxtOdQBDSF4Fg6PiuBEJu2FxAoUJH1UlR+QdCIAjRFQgxXlNE279IrTVYfuG6P7lhFd6g9kUg8JkrhfC+BL9wRv98xkbRtR05/wD+2NbKE6LrdiUQYrky8AiN/57kCtE6/nzR7lFG+b9VWFho9P/ffYUKhC4QBv3pa6Ch69PzRb/bF1ZyvQYReBGVj5exhaxhFw4DZCrQHJ2PxsilolDH2yymojk6H52Z1V1erzNbgTpuRsG58s1oe/YILc8eYr0d67jYZS6GPtCRVYNTXqnY8P4kfDMxrVfHXInO7nI4hBcHc0f4G/1eU7Q4u/Z8P2qn5WB7fAlxsuuKnNDUAS9fqHMYvMZ1X8bUifFYFrGgT+ctjkx/pXJJbVywf3YV8sLnw6Ibfxp7Ow/E+ca80rUMsYzLbNgVllaO+GhWIdwceh8/YIIsUNQz0lc+TSrHoqCkPh83xWMSSYXdW4oi0hDg2POMDWOybNlyo5ehrwxZgSAf5YVK0zAUm4VitLn4P7S5pQxVnM9BnVnPBrYtsxoHHBNE2RF1pxR2ZCnY4YmcXvQ6zC7F+lFRuC7PhmZxz8e0ZbJOiB+YT0HL0wdcbocTqBsVhVWvGCSpM1uJT6xi9Ix7b49vmFuqlzWyZlgEMkcFw4amdR50xCXMMXoZKJR3kYysbLh6RRgNF085XDzlsLPvvfgasgKBz5lQO4z98q40DYOtBWuw+ABItb34+t43nnUwPDizCE13b+Hi1v9BaSLHs3llr70bX8gmzpHx69I6HEpcijrOd+GM/4J+n/N+chFqTeT4wHwqHl+5CY1Gg82OyX0SCJpcdhaFUCSsMKVBkQYri9IzjV4GCuVdw8LaCVZSl0GDk3vv3sFDViBUm4Zj5choaDQatD5/ga3eC6A0kaPILJgYssZeGPl1o6KxSjIJL5/cQ9uzR/jz4GdQmshxddqSNyoQSKwD3v/ARI6PrWL6HRzpl8gsKE3k+H7lbmjUGvB/G8fEYdXwSFwIz8BXfvOh8p6Lbyam4WFycfc9EYsVWCPwqyg0C6F5FwYhjI0z7Md7G70cFMq7RH5+gdFFgS4OMr8eyz0kBIKzxAULR0zE4uGByBwWgLQRAajkhhA0Gtb4aTrVOFe5nRiwq5NyemVIVw2LhNJUjh83fIib3xzFNv+5UJrIcWVK7hsVCJpcJW7MLMCjOSvQlqWAuqehjG54uagSdWZyPJ1bCk1uLTpu3QcANDQ2YvV7k9jhDMup2DdlGb6YXYWP3dk6f+Yws9vzqnNqsF4QzyHfLMjozwZFzDinQGRmZRu9HBTKu4KVrQvGOHgZXRAYwsWz+1Dp77xACHnfE0oTOTbLkvDj+v04W/YJNoyJ08Y0ePAAANB855E2noAsodfG9KBzkkEHvGfzSt+4QBgo6r3nop2Pp3DmZ7S/bMGzP67h3p27UJrI8YdvGjTZNeg88CUA4MW9h+xsi1FRPZ5bnVODjYK4DukjAoz+jFC0ODhOhJXUhQ41UCgDxNx5aUYXAl1hbdv9DLJ3XiBMHuUDpYkcj2/fBdo7oLl+C8hW4mk4G3fg5qU/8OD6Taziv4yHR4riB/SGhgXlWPdeNFaaReCvaUsHNOeBMVEf/xaaj/ajOX0lXsypxFeK7ag1keNFVB6art1EW80naJ5RjH9+uwqliRw3Ygt6d96cGlEK6YQRb19mtncVGzs38uLIyDAcVplCofSMpY0TFi7KMLoI6AnLbhJpvfMCwd7cCUoTOU6v2IzmSflQL6oGth1Cc3Q+Vg+LwBaPVOzznk+MVcuiSqMb5kFB/mpoClajJbGMBGeqNYvAQbuZotgNL6LysIpz9OyLsOrMrhHFh5jwPg2WNBjQfXlkZC7GWJmP0ctFobxNTIuJQ1DIJKMb/97ASLvuRXjnBYKEkaHaJAx1pnI0ReWJjNvVCYtIICSliRwXQtKNb5gHEa0zi0hb/eTG+hl84zwHpxwScVqWjN990nCB8z8424/ZEh2LFagz0+ZjsLWg+RiMjaEXiI2dG9LTsxCXMAfOrv7dBlOiUIYi1nau8A+IwKL0TEyeMtPoRp8KhD4wzsIZShM5tltOw3m3VBywnYU91tNFYZDXjIjq89DCO012DV5OLsDtoCxsFAwH1JrKRYmoeFozug7k1K0ISa8i51CYhsHc0vjPy1DG2C8rCoXyZhnyAsHKUiaeAjgsEnXc7AN+XdOC8oE1sO8IbQsroc6qRmc2GzRJffA01O0dUHd2orOtAz9vPgSliRzr3ovu9zUeJhZqYySYhUBCRYLx/q8MghcWhUJ5cwx5gbBg+ETW+37vl9ppjR0dqOWSCn0+Ls7ohvjtoRaa+u/ZNtRo8PD+AyhN5Fj/3qRXOu/X3nOJSAij2R2NhrFfVhQK5c0y5AVC3IgJUJrIcf/uPXRqOqBGJ47MXKENizwAuQreeZbUQn3oa2g61VC3tEKtVuPB/fu4cflPKE3kaF5U+UqxF9Q5NdjwXjTxR7CivQhGwdgvKwqF8mYZ8gKBH2K4sPUQHjx4gLaWl2R44YfANOMb30GO+ssfoTl/CeqqLdAsqUNr5ko8+2AP7t66g9phkSL/hPXvR+NW/PJ+XUcYDbJ0AMIxB0o8UGIaimLTEMSNmAB7C5r7ocf/K4PghUWhUN4cQ08gWMow4X13lJqGosZM7FR36+p17J9VzCZiMu3b1LwhTY4SHXNK0RSZh6aIpWhYVIe6EVGoNZWjdWEFOnJr0dnajid//gulWQQ+Yqb06zq3Z+STe+XVz6mPjKUjFKbhBgNYVZqGQUpnS3SJsV9WFArlzTLkBMLC4QFslMTLf7Nj5YVr0JmtwOphESKxcDk8s+9GbEktNMtWARWbgRXroVla9+aN9ZJaaFZth2bjZ0DtVmjyV74mUcCKJ/XCSlYYcDwIziYpqR9PyQO+OA3N46doaWjEy9v3sXLUJKwb1ZXTYi06N+5Ha3od1BnVBjNV8uGYFSbhfZ7VILV00hcGnK8JmS1hEg4rSyoSDGHslxWFQnmzDDmBwDslPrx7Dy3NL4Hf/wYuiRq17QAAIABJREFUX0X7omqRoehz78GPv8PgX0sbcPXmaxYFSmDldkCQOEn0p1YDH+x4DdfmRML8SjyRL4FqfBLX+xKBJ+G5RDS8CMnBi9W7sSMoE0oTOZ53MSsE63aJyvxynhLqLPF9aMvQ3qcpo3ofpIexlKHGRNtzsN1/EZoePERrYwNu/fAjtjjPHtAhjHcRY7+sKBTKm2XICQRLzlCsMp+Cx+cvEiPWGJGHVdzXZL3b7F4bSSxfA01nJzQaDf7YXY/VltNQOyIKq0ZNwiZZElqev4BGo4Gmte21CQS0tQMA2l+0YLPzHKwaFQ2lWQRWDo/CprEJePnfc3aGxvMXbA/DaypHc1oFdo9LgNJUjjozOb51noPGiKV4EJKND7ghh0dzSrqux183AY0GbUVboFm+BprmFnR+/wfa54gzZ+6UziDG3KI3vQiW2hTeShM5jqfVoK2xAa1Nz3H30i+4d/ki2pqeY8+kpWSf6FE0a6Euxn5ZUSiUN8uQEwgSRgYrCxmqTcNQZxaBX70WoDFiKU6MTex7YJ8ltYBajc62DqwcHsV62ZvKoTALQ42Z1iCdr9nJfhV/uHfgxcGvfwEaDc5X/Y9cr8YsHIph4jJ87D6PTc3c0QnNktc07MChbm7B9fofRUM2u8bM7DEPBTo70Xn8OzJ8oclVAs9foOPKP+hMq9Lum1NDzhszsudehKQRfmT///mmoZUXB5d/wcunT9DW3MTS9Jzk3agxCTf6czrYeJMvpuzwefg1/1OjvyAplKHMkBQIEkYGiaUMQe97iLqdlSZyrBwW0QfjfA0atRp1I6NQYxKOWAcHyF2kCOeIdLaDwoxNHX1l32lArR5YY1y8FgDwy+YviFGLdrLDJC8HhLtKEe4qRYSzLYpHBLHG0T+DFSovXg5cGTKr0Zm/Gk1XrqHx75vo+PgAWh7/x44SdHSi1pRt095Mc4RajZaZxdAsrUPnsW/RGr8CmiV17HDDVHGypz1jYntlyBkLGWpIEKwItDY2oK3pOR78egkvG55qxUFzE1qbnuPhpSvkWZg90t/4z+kg4k2+mBaGx6F6errRX5CUgUNq64p7pV+gqbpej9F27kYvH0WfoSsQOHKHBYm+dG9Mz++dYVxaBwD4pnwbMcxyFylCZNaoysuCRqNBW2sLItxsWRFiFgF1pxqa/fUD13tw9yE629tRaypHjWk4Jnk5QK1WQ6PR4MbffyFwLIMwFxuEu0qxSOrBRoW8+4gVCTuPDExvQVqVNofF5GV4kViBR/cf4GHTczx6+Ah1ZhHYYRvbc13qtkHzXwM65ldA8/gZNGo1NJ1qtJZuBc5ewMvJYoHQlqENw9xdMqfg9zzJfne+vYi25iY03P4XT/75WyQOhL0IH7lo/REsqcMi4XW+iB6VHYXHeDaddJx/LEK8vBHs7Q1vxyBYSV3gONYXTytOYP/8GqO/NCm9I8g1XE8IJASGI8LLS8TulDKEuUcYvbwUfYa8QJg4yqNfzon46TcAwKr3JiFP4gu5ixSBDgwCxlpiVrAP8bVbX1OCKY6joTSR4/bZS0BD48B9vavVOF+3C0oTOSY72mPLagW57q8//4gAe0sE2FsizJkVCQrTMHzsOQ9cqENofv5jQMrRMm0Zl70xHw1zKvHbsbP42IfNgrlmZBQ6s3vRnodOo/P8b9Dk1AJqDVpSq4CSjdC0d6BlRiHU6frDPvyMhgrTsC7v7zKzYChN5Pjg/SlobXqOlsYG3Lt8Ea0vGg0KhNYXjfhb9TV5HtJGTDT6MzpYeF0vIT/nEIR6e+PggloUTcrArRUHEertg0ifADRV1+OPgt1YHBmPUG9vbJ9TYvSXJqVnTi5aT0TBw7IjiPTyZsXA+gq03jyNzttn0Hn7DBbETkGE9wQsjx78qY+HIkNeIEgYGQrNQlgjMjyydwJh5XZAo4G6o4MdBx8/FuHOUgSMtWSxt0RB8iw0NzUhbUYkwl2kUJiG44vkCtYHYCDEAdeDsdYqBlWmoQh3lWJWiBeaXzRhXVUpEQcB9myZwl2lKH5/Ila+N0lnhoPm1UVLTg0+spgiElofWU7FvaSi3guuX66g48DX0NRtQ+ela9DkKKHOVgJXruPF9CKDx9yOLSDXYww4K5oL8mz8sfsEWl804s7FC2hpem6496C5Cf9du4rbv/yEtUwMGcKwGATP6GDgdb2EXMf5IdZfjlBvb2JUflzyMS7lbSe/Q729kRI6FdUxS4z+0qR0z4Ul2vsWHxCGCC8v1O/6gIgCIRVL0xHh5YWdc6qNXm6KPlQgMNqvzEuhPaR0/nAvNI0viG3tbGcFwvRxYyF3EQiEsVrjHDSOQbiLFPkSP3zslsp+uQ+AQEDJegDAylHRyDf3Q7irFCEyK7Ew4AiWWSHcVYoVIwOxapSOQACg+efOwPVq9Lc+tx+g4/OvodmwBy8TSoHOTmieNaJtfhU6f/gdmi4cHGu54aFZIyfo3dcxFtq4By0NT/H0779x79dLXfYc3P/tMh78/itanjfgr1nLybHhNP8DJMzrHWJoqq5HsBcrEMpj0hDm7Y0wby+EeXtjSVQifivYiabqetwo+tzoL01K1xyYt5KIA7mXF6In+OqJggeXj2BT9TJ03j6Dqvx0TPIJpAJhkEIFAiMjkfVa06u6N2RVH0HT1Kw1rBoN6oZHovC9iZC7SBHmbCMWCWMtEe5sA7mLFEvMfbHNa/7ACYTidWSIY6mFD8JdpQhzsdETB0HjGeKwWGMSjk3jErXlb2mDpnqL0cWBJlcJPGtE5/d/QL24BpraraR9m6cug+bFS3SkVRo8buP7k7scZoge5U2M/GZZEv79/nu8fN6gLw4aG3Dn4gU0PriHtuYmqFdthyZHSY4t72YIYyjxOl9ETdX1eF51khMFXjj3gQT/7BiBH9ZLEOXnjjBvL5zOXEeMj8MYL6O/PCliZgfEk/sT4eWFwoWzRcLg5g+fQ+7piYIJETi2czU6b59B7pw4fJS0HGkhs41efoo+Q14gWHLd0LWmcoOR+wwas5qPgU41AOBExiooTeRIdBgPuYuUncXgbIMwJxsiDuQuUtSYhmOPPJf9Mh4oowpgtWQKFKZhRASEu7JChfc7CHdlr182gu0lefrPXdb47jhsdFEg4mUL1P81oC2lDNh2iO2h+eMGmmcUQ9PahrbkEqh/voJOnSmof0Rlc0MB+jERVpiF6kRNlKPx7j20CfwPnt+5jTsXL6D5yWNWLPz3mJx7zYgocqyxn9PBwOt6Cd0o+hxN1fUI8/ZCvdIc6pMmCPfyxMLJMqhPmkB90gT39gxDmLcXzmRtIEYoxmdav67n6xeB27fvistw4xa+OfdDr45fs+4jSEdTr3tdhD0HK2OziDD4+4t9SJ8Wi2hPb1yOXoTL0Yvw675P0Xn7DBIiwvDHsk/xoPRwv655+/ZdwvLCyh73b29v73b7jz9dxO3bd3Ht738wY2YqrKQuKKuog+0Yjy6P+efGv7CxczN6+78OhrxAsLd0htJEjtXDI/tm0PJXAR0d0KjVWG83k43lbxaK+VJXRDrZIoIjzn48Kjkfh9XvT2a983XO1Z6lwFabGGKMPndM6HnsvmA1NBoNVo3kQg+bhmGu1A0RzraEpDGOKB4ZSKZy/rzpIKDRAF//aHxBoEtLKzSdaryMWQ7N/lPQNDSxsQ9ylNB0dKJlZhHQ3oGWWcWi41oXaWcz+AtmM5gzWv+DK+mCmSpmEWj+7z+0NTfhyfVruPfrRXbqIycY1ALh9JXvPHIOG5qj4bW8gBaEzGa/OL19kRfngIenZ+HRzR8g9/ZGuJcXEQjqkyb4a+sIhHl7ibzip/VDJPgHTsKFny9hTmomWXfv3gP8/feNXh1vbetq9Bf3YIMXeTmRcZjlHyK6RwXRyYjw8iLi4HL0IjRV1+O3XZ9C7qm9nxeX7ujzdZ89a+jT/j0JhDt37pHljs7OXp2TCoR3mAiJF5QmcnxiHdN3o7a0DmhphUajwXd1u8l4uC6r3puMO99zoZiv3xad45/YAnKc8PhVwyLQntV9wCY8bwIAPLh4DWuYaQavrTSR40NZEhr56Y23HxhfDBiqy637AICX85XA5yqo/7mHzoVVwOZ97HTHhGJWQEwvFB8rGArIHB5A7qutIO/CHUUsis1C4CpxZYWaZAruXvoZ/139U282g2bFOnLu/5KLyTlC3vc0+rNqbF7HC4g3DmHeXrhx0J8Mf2XNT0O4lxf+2DIKD/eYoeUIKxKi/NxRE5shMkB9vaZ/4CQUrahGa2srrKQuKCyuwnhnfyIQ/vrrOppevMBXX5+DldQFGo2GHPv1mW9x/MSXsJK6ICJqJl62tODFi2ajv8iNics4P9HQgvDeHFu4ksxg0BUIhvbv67UbGhowdrwPxo73gbWtK+zH+UCtVkOtVmNqTDKspC54+fIlOjlj397eDv/ASfjww22wkrpg7vxsuLgHkfPduXMPY8f7wD9wEl62tMBK6oKt23bBSuqCnCXFSJ6TjqYXL+Aw3pcMg1KB8A6TNTwQShM5rkZn99O41QKX2WiGGrUGzY+e4fa5y7iy9zT+/foXvHzChjnWdHRCU/Ox6NifwjK0X7kLaoAth9CxcS8OeswlgqEzW9G9YV29HZqOTgBA+8tWPP7zJm5+eQF3v/8dTXcfo7O9Q+uN+NPvrzXU8isJhC2fs5MqrtxER85KQAO0lm9jZ4vcfghN3mpWQOgKhFwlPhjOppWuMtUGTQp8n41/sNYiEmeSYmFv7owak3DsdmUDV50p3WhwqqMmTxtlsiNTm/chc1ig0Z9VYzPQL58vMzahqboeZxZvwPQgN3ScGIbbV7/Gh7VLEe7lhXAvL3ySYA111f8lfLrcWq8XYVeKok/X5QXCTz9dhJXUBQBgbesq6kGYMDEKarUaVlIXPHn6DFZSl//f3nl/N3Glffyv2IB6GckSyL1AZIpkqinuppsaagCbXk3vxqaGdFI2yVJSIAkJgXg3WZJ9U8kmZENIWcgCIYWOKQaMv+8PM3Pn3pmRC9gasC/nfI6RNNKMZnTu852n4pNPv0B8UlciEP7xwUcYKrmhWzOnlr+JqrJKvDZprcbg54fCeH3kNF2BcGzRbuTco0C4evUaphTPw5TieUhO60ae79N/MBF2AMjzsgdB7zV/QBQIEx+dhdlzlxJRIQuE6TNLMXP2Ys37ampquEBoqayR2hFXTVp1bwZu8Vbg+T1ibsL1aqIuceWqblOi/0qjizfb8nDrydfE9z6/B3huL+6UPYOvc0tEA+csaFCpIJ7chdqfTgLVN4Fbt0Wu30Dttz8Bb30ArHjScBFQL1Jex7XBi4GfT8qZoLhetBQ48LEoEIZpBcLO+CJiyD3SdV0khXXezRuCjfYcLLb0wyudB+CnWeLzG235TGiBCISy7eRz71AtnZdY+ACnpl58aO/BIznpJJTwWamTCIQJmWmMQPi/6U5khUOYnT+SvH9KIxPcZIGQlNYNn3z6BZ7d/jIRCLEJXYjbWjYQ7WLTsXjJWmIUZIEgG6KrV68avpAbiXwdPpz5JHJDIRyb/bzY/2DlO5jWNxevj5yGfCr/4Ozqd8XwULde+H7RDvL+i2sONHrf6hDDX1/ahdVrN8EfUIy4nkBYvGwdYhO64ON/fca8nw4xbH3sGWT2HcgIhLRgL81nnj13nguElopsAKJpCKulLoCbrLmoefYN4Pk3gef34E7Fc7g9cyXhzQ6jUGHKwbcFc4w33lEAb7wPALj9/hdiD4TbNbhZ/jdg3gYxdwLQ5CDUzq3A38OTmH4IXqr/wa9bxmKzIxdPJ+TjyisTsNEqTmusMOXgxN8/1XgRbr93SPzcmeW4MWwJCfusMfFKhuYyLFnhEIZkdsKdgyZceMOMO+seIgKhNDeREQiPDY/TeBAau19ZINALvSwQ2sWmo7q6GusrHsPvv/9J3kO7rGWB8MsvJ/HEUy/UG9du6dDXQvYUfDN5M44UlGB8r37YPbyYiIMJGZkRwwsdk7s1et937tzBmTO/48yZ3/HRx59h5aoKvPnWfnz08ad1CgT18zKnT5/Bd98dw++//4Fz5y/AHwjqCoSiEZNw9tx57NnzDk78cpILhJaKEQLhCbc4EOjGjyeBc5eAPR/g9rx1jDiQ2WjJlUINjRw//SAiDb9CbS2uDVmiVJVcqiLehNuT12je933BbHIdAzEdMMbenTy+umMiru2ehGu7JmGTLQf9XF3Rzd0Z5aZsPBFbhJtVl1F99QquXbqAiyd/wW//OYKqCWtxfUApasauxBNSEigf3tR8AmHd0BJkhaWEREkIDOzWGdmhEL6Z42AEQlY4hMdHzb9r7wGn6TlQopSffjpnO7ZlDmHCCbuyRmFX/1HIDYdIOGJARnds6jWYvO+pkcujftytXdg1BC4QoiwQrkxZgwpTDt4cthQ4fxm15y7h6uff4vbSjbg9cyVuzViJi5MW47/DZuPSo4vx57gFYo7E4HnGG/AogF3viVqg+haqp24ALl2RxAFQvWQ7anXaNp8ZuYhcx4k2ZXLjVlcurr86CddfnYSruyZho0XM63jSm42NUmjp1Fdf4vTXh3H668P49ci/ceX0Sdze/0/y2c/FiB0i13OB0OSLz4tj1yh3kxndkJPRlRUDXbuieo3yuKhXEHkZ3cl7vivdafgCyhG5uPYA4w34khIIX+VPxYQ+uYqImL0d2V1DOLf8LVSVVeLMirejeqyB+M4AgMTUDMPP2/0OFwhRFAh35lTgX72LUWHKweu58/Bl2cvYmTkD21PG4Om44XjaW4gtUsKdzPO+QaKxszeyDPMBBlLSJf2v5svvcXuS1ntQO7cCf1DVBurpnFd3TiQi4druibj80gR8OzUbT8aIyYp/fncU18+dxc2qywy1W15G7dwKvNx+KBcIzSQQ/AFxSBMtErLCIRwvtRJRcGP1Q3hrkhdZ4RByM7op8eq1BwxfPDkstED4bsYzjBdB5u1speTxbkNEnOjBBUIUBcK3kitcvnuNxK8LOqD2xyD2ZmeiQjJ4Gy3RDYMYyvrnGXFw57fzuFGkTU5UBMJyzTncHl+ASy8p4uD6q5Pw0SNFWGvOwnJzP5RJ3TOv/vGHRhwQTp7Gnu5TeIihGQWCPxDE5XXvK3eec19ETjiDdFTMCoeQk5GBD2Y8SbotcqNy/yJfx5+mPYkjBSX4Mm8qPsubgn/mThKnN3aVqhlmPMOv4wMAFwhRFAgbzDl4NjELdz7pgGNTxDr9ba4BuP30a6gqWYHvCsWyxy2ObJwpTUHtsSC+XNQLFaYcPC0MMN5wR5MvxGmZd85dwo0i/WFNMr+NXkKu40sPF+Lqzom49Nxo/LI4Bz/N7ouLz43G9Vcn4f2hw1BuysYacxbKTKIHQc97QLMrZ45YQskFQrMuRBdULmqZsyv3obKoFEcKSvCxdNdp9KLJqZtLa0UR97EkEOSxztPC/XGkoASH+XV8YOACIUoC4dLkVWI55cedcW1jguQVyEWFKQf7uk8Fnnkdt2euxJUpS7HFJj5/dlkKbn4jNvf5oNtkVM+ou3FSa+X44PnkOu7vl4UfZvTBGxlZ2GLPxkZbNs5uHYZruyfh08kjcPmVCfh+el9sdmSjwpyD6ssXI4qD6iuX8FSSWEmyls9jaPbF6I9V7yhd9Si39Nf5xfhm2pO4su59wxdMTsP4dYWYX/DRqOVMiOHf+cX8Oj5AcIEQJYHwuxQnv/1NOr4aJTbxuT2rHJulnIN3uk3B7fllYqLizJWoMOXg+Iw0HJ7Sk3Gd35hez0CpVsgnvaeS87PJqg3fXHllAv41bjjWmrOw0ZKDXZ2yUGHOwSZ7Pq78+mtEkfDLoU/IZ8y28UZJ0ViQZudM1vUk8DvOB49JfcaQa3cg51EcLijBpbUHDT8uTsNp9QJhvRTjb24jVjN7vWRsslFhysbz/sHS8+XYbM0lHoVfRszFs54BUnfFjngpvR9u/CsdVesTpJ4Id9vxseWyN3kklaSozel4wpeH4+sewXpTNuJiOqLQkSGKsomrcfrrwzhz5GtSyXDmyNe4cOJnXPzfCfyt/wyUm7LxsCdIGjC1ZqK1KLWPTSdu6qqyShya8azhCyXn7hnbeyS2Dl+MxPiuhh8Lp3G0eoEw3ypOOayd1fx9Bv4cvxyPOwrwWsoopq9BzexyPObI1xi2LY4s3Ngah+pN8ajMEkcX/zhkvuEG+X6DnrpYbsrBIEcGkjwdSRvtClMOPps8Al9PzibhggpTDq6dO4ubVy7hZtVl3Lh0AdcvnMP1C+dw9ewfuPLrKfzv089QYcrBSt5FMaoCgcPh3B+0eoEwWLqbPDM6cpZ8szOrHFcLFuLH7iXYZMnBVmsuvuw8ERWmHGwwZ2ODlHG/wZyD27Pqns3Q2qDbIVeYcuBVXd8xDqUvwvfT+uCFBFEcvFq4oM7kxJtVl1F15jciOoz+nd4PGL1YcTic6NLqBUKSVxz3fCg80TAjd23AQlwr0HK48yRslFr9bnMWoHoGzz/QnLupa4gAWGvWqTSISSMVCyRPwZ6PU199iRsXz9cpEP6v7K/kPb4YPu7Z6MWKw+FEl1YvEGKkvv3bHPnGGblCfYEgczV/QYMGNrVGPqDmMEy19tK9xrFeZfTzBmsublw4j+vnz+HsT8dw7r8/6wuEK5ewyZYvlTjyCgbBxwUCh9PaaPUCQfClYb10l056/0ebmeWombIONVPWElFQPXwpbgxfiuqhS3CHlzdGZJNUKlphykGaJxjxGme7QmS796aU4+YVUQhcOXMKv37zFa78elqc7igJhNOffE22H+rIMPw3ej9g9GLF4XCiCxcIvjTMtfRBhSkHlyatNNbgzanAjeFLcXPUctRyj0G9XJF6SzSoFXJMGqZbeysiYWo5EQTVVy7h3H9/xOmvD+PsTz/i4okT2CglPpabsnkFg4TRixWHw4kuXCD40tBBCKLClINnPAMNN3qcBjKnAk+7ConBn27tXf+1jklDqaUvec+T8SNw+dRpUslQfeUSzv3wM7bGDOLeAx2MXqw4HE504QLBJxoO2SC0irHKLYBzBUr3xApTDvyNSCKcYuvFJi06C/B4oAiP+Ycwz5da+hr/27yPMHqx4nA40YULBImFUj+E1+KGG278OHVzY+gSbLPn3ZMh7yKkkyZZesyy8s6JaoxerDgcTnThAkGifUwHYhyujah7OBDHQHEwZDEOd1EqF8pN2Wh3lyWIHl8aOgvpmGHLxBpzFlabszDV1gvtvbykUQ+jFysOhxNduECgkDvsPS8MxO1xBicsclhmi+WgF3PmMXf642w9Df/dtBaMXqw4HE504QKBIllqmlRhysHJzJm4PZaLhPuBO5OV8s9NZqWscZ2ZVxhEE6MXKw6HE124QFCxRvIibDTnoCp/AaqHL+Ulh0YxuxzXBy0izaIetxcwoYX2vLthVDF6seJwONGFCwQVvpg0lEvJay8IA3E1fwGuFS5E7UwuEqLGnArcHL6U6ST5vDCQCS10ESL/cDnNg9GLFYfDiS5cIOgwytGdGKJPgxOU7oZDF6OWl0E2H7PLUT1siabN9Hb3AGZaY7YrZPhvpDVi9GLF4XCiCxcIEVhh7k+M0vFe0xmjdWPwIi4Umoo5Faidtk53HsXV/AXYZmPHYA/gjYsMw+jFisPhRBcuECLgiUlDuVkxTKcyZ2oM2PXCUtROXmu8kX0QmbEeN4Ysjjig6nzOXDLJUqa3u4vhv4vWjNGLFYfDiS5cINRBO18HVFBG6ofuxREN2vWBpagtXmfcwKf7nTnluD1uVb2TK68VLMTnnSYywqDclIM0z8OG/x5aO0YvVhwOJ7pwgVAPcb6HmTvZdxNH1mvgrheWorpoKe5MK2udFRCzy3GnZB2qhy/F9QGl0nlZIIYNIpyzbbY8POMqxON2NqSwzpwNX4zxvwMOFwgcTmuDC4QG0M7XARVWxWhts+WjKm9BvUKBYUCpWDI5ZY0oGh50T8Mc0StQO2Utbo5chhuDSrXegXyJgoW4I+dszClH9VA2EfFKHjtXQWaSrScELg7uG4xerDgcTnThAqGBeHxpWOjqxxiwT6gKh7vl+oBSVA9ZjJsjl6Fm4irUzliP2tkVxnke5lSI+59ZjjuT1+LmmBW4OWIpbgxZhGvEG9A4MFu7D/r13/rNZr0Gpmwkejoafs05LNFalI4s2IGqskrC5XUH8dW8l3G0dBcWFUwzfNHkNIxdE8qZ61hVVonZOZMNPy4jmD13KR7ulGn4cTQWLhDqJJXg8aXB60tDd29nlFPGbIslF6f6aBMYm5RCUUhcH1iK64MX4eawJbg5fClujlyGm6OXo3rMCtwctxK3x61CjcTtcatQ/cgK8bXRy8Vthy9F9dAluD54Ea4PXCS6/xuQE3Cv6AmR6wMVsfF9t2JyPnNdIQgxqdS5N/o3wJGJxoKkNij/N3s78sLdkR0KIzsUxocznsS/Zj2HE0v34MzKt/H53L82eh89Mwux+7U3MX7STFRVXUWPXvmGL8Qtjf8t26u5ljIX1x5Eu0B6k+zn4sVL5P/lGx5Hdl5Rs3+3o9//gOGjHsW8BctRW1sLfyCIxUvXonOoX8T3rFhVgU5dI79+v8IFgg4eSRAopFKvpcHnS8MiO+tNeNyWjxOqcsj7loGlqClZh5qSMsZQNyVX8xfgQs48USDohFPkDonXChbi447jSXdEsXWyIspkjP5NcJpfIKgNSX5GD+T36I5z3+1HzalDKJ0yFqMzc4lYkPl91TuN2k/PzEKsL38M/kAQoYxsvPPuQfgDQfTuMwD5A0bCHwgi3D2HbN+paz+0ixUN2uixxUhO6wZ/IIj4pK4IJHRGyfQFhi/k9xNnVu6LKA5oNg0rved96QmEQEJnJCSH4Q8E0TncH/5AkNy9T5+1iHn/0KIJaB/XCaFu4vXu2i0b7eM6oV/2EKQ+3INsR9/9H/3+B/J/APCl/l9HAAAgAElEQVQHgkhICZPfSCC+M2bOXgx/IIgOwV7onz2UC4SWgNevTyQj1dGXjvUWdmTwJksuDnUch6r8RuYoRIlbj6xQufvLm8WLcDB5DCpMOXi1/TBUFy3RCAR6n28EikhoQT7Xka6D0b+R1kxzLkRVZZVYO3QKY/gP7tiKmlOHCNOH5mJo/364fvwf5LnsUBhVZZWN2lfPzEJUVV3F+fMXUFNTIxmA3kjv0he9+gzAa6+/hS6h/pghGZM7d+7AHwiipuYOAvGdsXrtJhQMHI3CgaPx++9/IDahCzEUrZ3jS9+IKAi2jpiL4uyh2Dx8Dnnup8Wv3dP+1P+y84qQnVeEyVPnwh8I4uTJ0/AHgti5aw/e2LMPwc59cPlKFXlvl3B/ZOcVEU/AufMXsGr1BiSkhMk1ferpF5HaQRELR7//gexv62PPwB8IYuacJQhKIuLmzZvo1LUvyiu2YcPGJ5CYEkZNzR0uEB5ERGPUIaJB0jdOqXDHiHj9aejkCWI11VhJ5gVhII51LxHbNd8H4kC8m9fmNtwau4LZ5s244fgwbew9eQ/oUsWLOfNwZ8oaVpRQ28uVC9OtmRB8+uefiwXjaa5F6LuFO5EdCmNA716M4afFwdEdCzEqOxNn/yN6E84c3oNjO0uRHQrj5yWvN2p/sgehYOBovLFnH/yBIDqH+qOq6ip++/0P/P77n8SA+ANBbNr8FPyBIGpqalBdXY3q6mocOPgBCgeOxszZS+APBHHx0mXDF3OjeXrUcpxb/S76h8LICuszvGAA+X9+t15EKNztPvU8CHoCYcfON8h28nW9du06ee7GjRvwB0SBID+3+9U3kZSaoRF/tAdh1uwliEvsygiE8ZNmwB8I4urVa2S7eQtWcIHwIFKfAfL6lW1pgyULBHdMCiHO0wGzrZlklgPNM65CfJY+EVV5C3A1P/rCYG/scFzNX4Da6eu1AmHcSsa4y8d8KW9+gwXB5dz5+KjjODzpKNB89232fFzNXyB6L+aU4+bo5cp7CxZigzxfwZPOnGf1OVdj9G+ntdEcC9DInkXIDoXxvspbQAuE73aU4tjOUmRJz33zxnoc2yk91zWMimELG7VPOsRw/foNxmikPdyTCIS9b+3H+QsXyftqakRPQrBLH8QmdEHhwNGYNmOhxlC1RtKSMlBVVomscBiTRozFnp27sGfnLnxw4CBO/PQjTp84jtdefBunT5zAu/vew+PlzyG/V29khcM4PP/FuxYJegIhPimE3a++yVxXPYEg/41L7Er+TwsEfyCIf//7W6wt28I8RwuE06fPwB9gPQijHpkKfyCIfe8cxKCh48jncoHwAFGXG1t9d6q3rcfHigO3V0SQ/j/c0U23dE9mh28Ivu46GZdy50XsDdBUfNRxHCpMOfgmNFkstVQJhGqqo+GVPEUgnMueG1EQnM2ag8/SJ+IFz8CI35EWSt93m6r7Weez55JtIxn+urwJ3JMQPZpjARraoy82LprBiIPvDj6Lwh7d8e3fXyLiQPYW/HvnSvK4rHgYlg+ahK/mvdyofXYI9sKQYePhDwSRmJKB1Ws3Ij4phLf2vYe8wpEoK99Ktt267Vnmvbt278WKleXwB4LoGs5C/+yh8AeCWF/xmOGLuZFcWnsQ/UNhPL5pCz76x0fYs+MtnD5xHNu3/BUH367Eu3vfQ17P3vjxu6M4feIEsjO6ISucgWkTZiErHMbKQZNxYc2BRu+XPu9DiyagU9e+8AeCWLNuM55/cQdmz10KfyCICZNm6l7TNes2YfQjU0moib72/kAQ165f1+xzybJ12LrtWaxZtxnt4zvBHwgiK7cIiSli3kOP3gVk29VrNuK5F/6G3PwRSErtZvh1aiytViBEuitVGymtYUqVkhgVgSBQ0EJBNpCHOo7DVmsuuVNWs8Es3mW/1r4IX3V5FH9mzUFV/oImC0182GEsKkw52GzJFcMM9BwJlbv/Ys48clxX8xegKn8BzvSdhU/TJ2CHfyi2WPPqFATrTdl41NYTHTwPw+NNxRRbL/Idz+sIjpdiBqPClIPx9h4RrwH9WE8oGP1bai009eLzxMhlYojg0Mu4IeUVXD/+DxzbWYohmT3x2fY5RAzIAkH9+EhByT25qDn3zuCMwVg3rARZ4TB++ekn/PWJXcgKh/HUhudJOGFIdgHyemZiYP8c7NnxNrLCYTyx4Tkm/HBy+d6oHvetW7fQJZyFQUPGklAETbBzH/zyy0nDz6+RtHiBIOYXiAg+NnTQkDtStddAUHkOhJgUeGJSVSGHZLi9yVhjzkKFKQc/9ighBvH7bsXY4RuqmTMQiQ3mHLzkHYQDyaPx766P4kTv6fgzaw4u582XwhX1iwi6EdHl3Pm4PqCUVBbcotz91woW4mTmjAYdl0yZKRuzrZno7e4MD+1RoSiTzkOFKQdHwlNQlbcAVXkLcEjybJSbsuGNEUVXJMPviXBN1KWQ3KPQfDT14vPpnO2YNmooDj8/F8d2luLLlxYR4z+yf2989OTMiAJhx8oJGBTqjq/zi7lAMJhLaw8iKxxGxeq1KF+xGTnde6B8xSZkhTPw9/0f4Lt/H8GM8SU4dfw4ZkyYjvxemRiSlY/TJ45jyshJ2Pnsm8gKNz7ZtCkYO34aukcoc52/cKXh59ZoWrxA8Kj+soYllbymDi2ovQZqo+f1pcETkyrV7IvvUeckDLdloMKUg6edhbqG+3LefPzcswRbrLkoN2WjXOWWbygbzDnYaMnBJnMuNltysdmShy1Whc0W5a7/vaRR4v4HlGo6Gl4rWIh/SkZb6x0Qj22xpS+KHBl42P0wPF5RCOnh8ibD7UmC25uMGG9Knd+ru6sTdd5SdT0EkUseU5nrpb7enKajqRefD2c+gaK+vZDXLQMDenZnxMDI/r1x6IkZ5PE3L81HbiiMcfn9cPiFucgOhfFl3lR8PnYN3pq8pcmPjdNwto6Yh6xwGKeO/xeFmf0wsnAITh0/jt3PvYlTx4/j1PHj+Mc7H+LU8eN47om/Ydmc1XjthXfw09GjeP3Fd5HfszcGdM/EyeVvGv5dOCytSiA0JNFN3k7uf0AbfPkOV+6TIL5H8RzQjZXcMSnweVNRLhnwKxES/i5Td/fJjlS4vclIdKchx9kFM6y9sMzcD2Wm7LsSDpHERF0lmHIIQRYsiyx94fEkwelJgkNIhFNIhNOTCFdMEty+JLhjkojHxClt55SEgdubLIZefKnweFOwzpSlER25zhC8PrEJlUB7Znwp9YYR9HNDxNdkj5H6d8C5e5p68akqq0R2KIzdfUcjOxTG4RfmMQIhOxTGkMyeOLazFBunD8ezfYeREsg3+4/FkYISXF73vuGLaGtHTk58b98+7HttP1555lXsf/MtDOqfFbGagab/XZSqcqJDixcIsqGIZEhow+HWhApUwkDyGLiJ10BfHAjUnfRyi9hQqTJljK5BfsU3BBWmHKw094PbmwS3N5EiSboLF/8K3iT4hGTEelOQLnREb2cn5Du7Yrg9A+Nt3VFs7YkZll6YZemN+ZY+mG/pg3mWPphl6Y0SS0+slVz9b8WN0D2Ws1lziOGeZ8lErJCiOh4Rh6DgpNERCISYFHhiUpDp6oy5tj6YYO+BQEwHct6FmFRRKOglgDLXJZW5bpFEglogcO6dpl58/jXrOVSVVeLQ4Ln4OPdR5IYzGIHw95yJyA2FsX9TCfK6ZeBIQQnL9KeREN/F8EW0tbN28Fwcnv9XjeEf3KMPpmYV4YlRC/HW5I1MT4S3p2xESfYITM8ZjqqyShSECg3/HhwtLVIgeP0dqP4G2h4HdYuDFEYgeOQ7WWYfWhEhVjKojWIy4j2pSpJeDpuk92m60iugnZAiCQSJmEgk6giJRLg9Ig53PByuONhd8QwOdzzaeZJIm+izWXM0lQmP2UTvwWxLJrtPL4tDSKBghYLbR3sW9M6JOkchlZxPwZfWIJEgUNcvcqIpm3fCPQj3TnMsQBfXHkBVWSVOlu5icgxG9u+NQzmTsK/fWOI1kIVBZdEiVJVVojS/JGoLZWLKg5eBHk3+s3Anqsoq8eW8FzUNkg6NWorD+cX4c8lrug2U9k3dGrXjbB/XyfBz9SDR4gSC+s6xYaVx+p4DIhJUeQbqUIKeMCDG1ZeEJZa+RCTsiR2OH7oXM2ONsx2d4fIk6ggBrQBQSCC4JByeeNhccRrs0l+HEI/Jth7kWE5mzsDV/AW4mDsPT0j9C9absuGh9xtDHZc3SRIhCSqRoIgFp0f53kQo6IgE9hyqEg1jUiF4tUJCERTs9W1ICSQXCPdOcy1CsqH4ct6LRCQM6d0T/5f7qMZr8MO0J1FVVok3Ht101/vrlzuq0e/pnjmYeTyxeDl6ZA4xfAG/nzi3er/G+H+RN0VzDenXz6x8+5722S62cQY/UVVqOKlkOUaPn2/4ubtfabECIbLrWd9zoH4sJzK6vXpGKoLHwCvF4yXj6PKKcXuXkKCbQ1BuysZwewbs7niCS0jQCAHBq4gAtzcBLgonEQWxsDljYXfHwemJh8urQG9jd8ZirU7XR/l4Utyp4n487HE4hATmOImXQw6BeBPh9LBiQSMUYuryJLDnVxYIrIhI1b1m9HWNJBB4yOHeac6FSDYYdKtl2aB8UzhNNcDp+XvaFy0Q2sd1wsTiZRg+ZhZSOvaCPyD20g/Ed0bugPGYMHUZAvFdNALBHwhygaCD7BGqKqvE20Pm63oMTi/dg6qySlxYe+Ce90cLhEnFyzFhqtj34OHOYlOi/nljkN41GxOmLkOwSz+NQPAHglwg1EGLEwiCr2FNkIhLW5UIJ7u35ZwD4llQ3/1qPAbJikGMSYKTxOkT4PYmwickMSKhzJyNZE+adIctGmG7SwwPOFxxcApxjBAQkYy+Jx5OIR4OyeDbnbFwuuPgEuLrxemOg9MZizIzK1jKzdlIdqcw+3N7EuB0S94HKWzhEqj8CMqzIFAhCJeXDT/QIsGlzk9gREAK9Zz2eqivbf3XvEPEpEVO42nuxUg2IE/1GoYv86bq3nF+OvuFe94PLRDGT1mKQUXFKBotNtIZPWEBHpkkDhEaPmY2BhUVY/L0VVwgNIITy/Y0aFhTU+xLFgiDR0zDoKJiDCoqRmxCV0wqWYGefcQmVuMmLyHXkQuExtEiBYLgk2PQdWfBq+vpvX6qxI5sx/Y3cEl3zCQRjxg10f3uohL4XB7KmHoVY+rShA2UUIHTk6B4BFyxoliQBIFs5EVREIDdGZBej4PbI4oKt0faXnqP0yO+7vJQ23niYXfHoostDY/YMpDsSGFFhCceDrdyDDZXrOiV0PEsuL2JcMlhCCZXQfz+dI6CIiqo8+YVRYPLozwvn3fBl0YqHOheFPR1qu+60sLC6N/kg040FqSfFr8ujgRe8x4uqFzWuyaUN8k++uWOQkJyGAnJYWT2Hw5/IIj8QRMlQ1OCwUVibsOkkhXwB4II9yjkAqGRbC4qjSgMzqy4t7ACTVJqNyQkh5Gc1gNJqd2R0XMA/IEguvUaiLGPLmKu46BhxVwgNJIWKxAEqdthpNfVDZC8fvEuVp2QyLi9qSoFOmPfKbDCgIQbNAmHVIIhLQx0wgZOIgRiYZPEgE2FU5CFQ8Jd4RTixfwE6jPtDKJnQglZKMcoeFViQS9fgQiFJEU06VQ8uDxJpBySTV4Ur4EnRikvla9Bwzsp6v8GuGBoPNFalNJTemiMysgeRc24z/SIr8kjfDmNJymhq+Y6PvfIKkOOpbG5ChyRFioQFEOiFgnqhkkeyUPgocUBU8aoiAPaNU6LA3U4QVccqBMNVaEDtZfAKcTD7maNt82h4BLi4BJEr4HTEweHOxZWux8Wm08Xs/o5u4TNB5PFI+GFyRoDm6O9KBZUYQun5F2gxYJbLRQ8+iJBLI9UVT3olUQyQkG5drIXQfBJJZGUF0GbjJjKiIlIIoHTOKK9OHVI6ob0lJ6GL5KceyMpIcSv4wPKAy8Q9O8EIxsHbRIb6zmQjZJSfseKAxd956sSBzKaMkUqlODysKKANcCywY+H3RUriYH2GiyO9rA6ZDEQI+GD2S7+3yw9Rx7bKcj2MZI48KKt2cOgCAYPrHY/HEKsJGDiiFBweVRiQR1+8LJhh4ilkRFEgtqTIHsRaE9CXZUpHuZ3YPzvtCVg9GLF4XCiywMvEBpS1qh9j2JoaM+BJ4bOltd6D9hGQDTJJObudCdQmf5snoGTFgf0XTkVKrC5YokQsDvbw+mOJZ4Cm7M9zPYYtLV40NYsoK1ZgNnqJcbf4oiBxU7hUDDb2f+bqM9oaxZgtnkl8eAjwoMWCxZbDKx2P+zuWMbboXgVpO8niQQ5/0KufpBLIzUeFq9WJAgqkSDngdAigQkJ1XGNI/0OeIih8Ri9WHE4nOjywAuEuoYrqSsXBB/bLVFQCQQ9caDbQthHu9CTNYmIYhKg1KTIHaetQlAZVzEXIJbxEjjdsXAIcXAKsbA4fIyBlwUAbeDbmgWY1N4CFSab9j1mm5cVE7KXwR7DCAVZLIhCwQers72OSFC8CeJ3UpVFeuiQQzLYEAx7ngWNF0HbSEkOD+k1UdKraKjrd8OpH6MXKw6HE11alEDQq4On7xzl5zWtlJnmO8prLiqJjngN6hEHdL6Bwx3H9B/QFQZO2mMQgEOIkxCFATHaGmPvJbQxC2hjcqONyY22Zjfzmkxbaps2JjdMVg95jf5cIkAob4MclqCFgtnqhdXug83ZXps34YolDZqYcIMmL4HqH+FTqkNoMabXTIn0qNAZ8MRuwxsnNSVGL1YcDie6tCiBEKkxkvp15c5TGdnMdO6Tcg3YZkj1iAPa8DH5BqLRpCsS2ITD9rC7AnBSwsDmaq8YZ4LW6BMDb/PCbPXCZBHwkNlF4VQ9dsFk9db9WXZVyIL2LNhjYLb5YLZ6qfCDFyaLVxI4Ul8GvbJIjUhIhMaT4NN2XaTLH5Xrk0J5GNgx0fS11vtN6P1uOA3D6MWKw+FElxYhEPQGMun131eXNXqkTomCV68rYrK2GZJP7y5Yr1JBEQdyIqJWHEjhBFdA8ibEwumJg8URA6vKU2DWEwQ2Dyw6PGRyRUS7vfxZ2n3QngUrldNAjsviVSU0emG2+WB3BkgvBfH7yyWRkURCEisQqB4Jgm63SmXwkxxmoAUCPWdD2zypA/O60b/dBw2jFysOhxNdHniBIA/lURsD7XZsUyTZRe2RGiDp3rkyRkntPVCVMlIJiYKXTUZ0CvH64sDRHlZHeziEWCmkoB9CUISBjiiwCuT/ZquAh9q68BeJhyTkx2ar/D4BFqtHRPV5et4F2atgoUIQYpKjuurBC7M1RuydICg5CYI3UetJ0IQaIngRYlKk3AX6+oheBDmBUU8gCD5tSWv9PRM4dWH0YsXhcKLLAy8QIo39VW/HlMhR/f61Q4FEg0Q38SGJiWpxIA8mkgcreRLh9CQq4oCEFqTGRu44ON2xYjjBHQuLoz0s9naw2P0wWQTdUILGW2BlRQERBiYXHmrrxENtnfiLyQWTxS3hQRuTm4iFNiY3zNL7zVaPJBoERiyYbZ7IHgUpn4EkRlq8pGxSDHOIIoG0f5ZEAisQ9DovqsM4StIiEQhUSEh9zSJ1V9RrwUz/bjgNx+jFisPhRJcHXiBEGs6k3s7ji9AVkdqmrrJGF3GH6yQmUqEFpydBanCkzElwCHGkc6HTIzY4csgNjoRYYsTbmNwwWQSSQGi2eVVCwKMVBm0VYdDG5ILZJgsAt2j4bW6YrW6YbaJgkLd9qK2TCIWIn29TEhnbWuhESKn6QS6ftPlgtvvE6ga5AZPdT31/PZEQyYuQyPSacHuSoNthMUauYmCrHfQEgJ5A4LMZGo/RixWHw4kuD7xAUIyAdvZCXeWN6sZI4jaRuya6SBtlNvfARbwHYr0/XbXgdCuDlUSBoDRCkgWC3S32NjBZvWyVgcUtGmz5Dl8lDNqYFEP/kMkFk80Nk80tCgIJk00WCvJjUSy0NbsYoWCyCFqRIP01WSVhYHajjUkULyQvwaEkLsrdGUWR4IfV7iMeFLmqwSHEiyLBm6Sa3yCeT7llteiFkcodmUoGRSC4Y1LF3hVUlYNM3aWvXBjcLUYvVhwOJ7q0GIFAx6LVBkI2GnT9PF1HL79fGTWsTU50qTomis2AxGREu1ucwmiTEPsXUP0BKO+BLBDE/8dq8g3MVo9SdWByoY3JJXoVLIJUquikPAZOtLUqxt9kE2CyCUQcmGwe8pyJbCNub7G5YbK4mM8yWQSYrR6yvzYm8TjamNVlkaqcBJtU3UCJBIvdD5ujHUlYJOfGFQenW07ilAc6KR0WXfKYaDpZVN20Sh7J7aNLHhXvgXoUtECuPQ8t3AtGL1YcDie6PPACQbkj1M5fIG16fdoERfVQJqY1MzPGOYnJPyDGzK00AZLHNKtbKMtTFWXvAR1aEMML7TUCgb6TF/MK6IRDOjygFgaeRkC/1636bHafJrNbCjdo8xGYLo02dajBD4vdJ/ZIoCoa5LHR8rlzupUWzC6614SqmkSvdba6aVLdISb2/dyT0HiMXqw4HE50eeAFgnJHqBUHskBgyx8pT4Nq7oJGINDljeqZApRAcEh3xnUKBE88EQiySLA6fZqkRLo64S+MsaZDCqJAaLwwoLB6iEBoy+QmuJj9mpnkRZ3KBofiRWDDDKJIcLilBlFSsqJTOl/k3EUUCEl1CgS69XJdEx5pD5EiLlJ1RQSHCwQOh6PwwAsEBa0BUe4WVVUMPjp+rSQvEpFB199LHgSXlw0x0DMX7C5pbLIrTtVKmQo1UB4EGbkqgK5YsNi8MFnc+ItJKVN8SMeD0Ja4/e8FAW2tbOIiXRb5l7ZimEPOh1AfqxxmII2VKA+CRRYIrgAjluyuODgoDwItEBxCotQYSU4A1QoEOQ+hMQJBIwAN/60+mBi9WHE4nOjSYgRCQwc0yQ2StCGGNEUkyAJBMlBK/oGYQMdWMCTB6VZi7DZXLBxuZephJIHglAUC7UGg8g/+IuUfKHfwoqvfZHGyoQbL3XsQ2pjYHAR1VUNbs5vkIchdGBVxoGrRLM9ucCg5CFa7jwgEu9R2WhYI6koGp0cZB03OsSwQmKoTrQehrsFNkcocOY3H6MWKw+FElwdOIGgz1LVdFNXv0R3Q5EvTzGAgd6lU9YJIIjVtUCsQ5BJHMofAqVQxkAoGjzYHQR7CJBprt2KILW5YrNqyQ7ls0WRzo42qZNFkaXi4gRYGD7V1wmRVBIhe2aNZauHcxuwmCYt0iEGZ16AIBDnEYHcGmEqG+kodXcz5psIMOh4AJe8glYgEvcFNer8PnoPQeIxerDgcTnR54ASCmvoEgnwHqRgOubGO4kFQu6BpceDSxMQjCwSn1F7ZoWqQ5JA7C6pyECyOdmhjovoLWASmKVIkgaAkKHrQhipZ/EtbJ9paIwuFv5icGlFhtrlhsrqpvgk6AkHuiWD1UKWYgpgzESFJUZ7RIPdCEEUR3Qsh0vAmOaTDDm5iro+cW+JTD25SXqur1FHvdV7dUD9GL1YcDie6tEiBQA9pUrfb1XRNJKJBDCm4PElwqdst63VRJDMYlCZJbqnFspyk6HCp5i842xPRYJU6KIo9D6gSQsl9L/ci0BMJZqtbSlKUsApoa2Y9Cm1MTrSxONl+CVIzJVFEKOWO6tAC07XRptNZ0epFGxPdTdEDs1X0IrSlBji1tXrF7pFSFYObbpakme5IQXVTFLzJYrMkb5LmugmqqZzqMEOkZkn0/A4uELhA4HA4+rQIgaBukqQnEugkRfVkQM2QJp+6F4J6DkMiKxCkTopibX8CVb1AiQRqBoPcYtlqbwerw8+UOpL4vlzREMl4y2JB9ihY3WhrFVQJhypxYJE8D1aBiAP9sALdepmd/ignJ1rtMVTLZfVcBlEgOOSpjvJsCkocuHTbLdODr9gERWZeRow4j8Gj00WxvjkcytwOHmJ4UATCH6vexZYRc3C0dAfSU3oYvmhyOK2FB04g6OUgqMVBJCOhhBuou06VQBB8UkIc0wshWV8g6HgRnB6VF0GI0x3SZLG3g9XRDg5PLJneqDfGmb6b1w85CMzzdQkEegaDOpxAnqc+Sym91C9vNJG5DNqhTVapBwIRCHqjn0megWpgk3zO1QKBVJcow5pkxPLVhggEfQ8CxxiBkBDfBR/OeCbi698v2o2cUAhF/fogNxTCu1MfM3zR5HBaCw+cQFATyY2s3k42DBrvAWN0RMOkbrXM9kKIMKzJoyD3Q3C42FwEPZFgc7ZXTXJU90WghjXJBtwqUIOW2KqDugTCQ21dbDhB/gwrO91Rb1gT3T1RO7RJ6z2wO2PFromeCHMYGIGgHtakmuYYQ18nfYFAd8vUu/bq0AMPKTSepl58to1YioPTHkN+uBu+X7Rbd5tvF76C3FAINacOITcUwoGSxw1fNDn3xu4JFbiy7n1UlVVif/E2w4+HE5kWIxD0hjXpz2JQ4tf0PAYR7djn+sIMgs64Z/VMBjlJkZnJ4I5lww2O9kxPAa1IEP8qngPFwLc1u9m+BSrxoN6GlE/qTHCUYYUBJQ5sbGjBZPWqZjD4lRkMTrFywe6Or6N6gRIHqvACG1JQBIOg02ZZr3JB73fh8Wl/G5yG0dSLz68r3kJuKITcUAhVZZWa19OSMjAuMxcvb1lOBML2MSvveb/deuTi1KlfCf2zh9z1Z+3Z+06Dtvvgw3/BHwji0uUrhi/6RpGUEMLFtQfQPxxGFsXJ5XtR0LXwrj/3u6M/AADOnj2PpNSMZv8ewc6ZyMotivj6h//8F/P7Mvq83wstQiBESlRUCwR5GyUTXm6YpGwj36nSGfR6HRXVQ5vcMYlwCErbZTKTwaM0TnKRxwmkN4LDFSuJAzFp0WyL0RUKFirsIP9ta1FKI8XySIEKHQiU10HxELSltm9jdhERYFELA5vS50AOgdDCoI3FI/Y+UA1ociC98FAAABckSURBVAlxpHOiPINBbq/sFBIiJyfGUN4D2Vsgj9sm10CqUFAJBLozYl3ljbR3gQuExtOUC09+10LMzRuNsvnFEQXC36c/hdxQCDdO/IMIhKWFM+553z0zC7G+vGlCFVwgRCa3SwHyKcN/bs1+ZIXD+GL/86g5dQg1pw7huw93ICscxrFFO5GUEGr0PmpraxGb0IU8TkwJN/v36tS1HwoGjo74+tHvf0BiFIRKNGgRAkHPGOhty76uP5OBLoV0MyKBusONob0IiXAKiUpXRXc8nNIds0sqe3R5Ze9B5AFOdnesVNnQTqwKoEoI1aEHMnrZLJYcmskgJY/SjVEqbZRLFOmcApPNizZmgby/rVnQ9xhIbZRNFg8RB23MAsy2GNV4Zz9szvbs96PyDuSBVuT8MFMxk1mBQIkzt1xRIokGch19qq6Yjbru8nM8B6GxNOXCs27wXFEY/FSJxdMmoCR7OLp17Mts89vKfSS8IAuE/VPv3SXdM7MQm7Y8heS0bkhO6wZ/IIh2sem4des27ty5g4FDxpJtz5+/gNu3b2PCpJmYN3852gWCuHPnDgAgpUN37Nn7DrY/9woAYN7CFfAHgpj46CzU1NTgzp075HNak0B4pPdIVJVVMhwseQJZoQw8tmoeuZ4yF46+h6xwGBfXHGjUfrr3ysczz76k+xoAVFVdRd+sIfjt9z9w7dp1vPb62/AHgrh58xY++/wrAEDhwDFk+1u3bqG2thZLl5ehtrYW2597Bf5AEM9ufxm3bt3GtWvX4Q8E0T6uE+KTQgjEd0ZtbS0AIC6xK9m3WiCkd+mL2tpa1NbWkv2dPXced+7cYX4j9yMtSiCI0EOb1EZBXc1ANU2StqEFgtxVkfYmyBMInarpjg4hQewAyIQbEtjKBpUnQQk5KN0Wbc4ALI72MNt8pIRQFgxtzALbN8HKGv3G45EmRAqKULB6YZGqKBSPgeg1MFtFj4G6GRLpHOlRZi7oJiV6kzStld2U+HJ52N4H6gmO8vWWBQIzulsjAGgvkna6I/cgNJ6mXHj2F28jxv9/n7+BARk98L9le+EPBBEf15nEqNUC4d3ijXh5/DJsGLbwrvfdM7MQe/a+iynF8zCleB78gSC+/c8x8vpjj2+HPxDExs1PIu3hnvAHgsjOLcLcBSvwyLgSlG9Q8iD27H0HqR17ECPjDwTx559nyeunfz0Df6D1CIQXxqzWiAOZrHAYNacO4fsdpcjOCKMwsxe5tuMG5ePTOdsRG9e5wfsaO34aSqYvII/3vXOQXAP5L7nmvQuIMb548RJ5Xr391JL55DPpz0hO64aZsxdj8LDx5LnuPfOweu0mzXEd/f4HlG/YhjXrNmPNus3k+b79B+OydP3lz+4azsKYscWGX7dIPPACQQ+2rFHfy+AhIkJ/siNjnFQhB6c0lljdfllg4uiKSBDkMj+VN4HMKBAS4BISpMfiGGg5P8FsjVEZalE0WFRzEGhPg5nxBHh1tqHaI0tNjtT7YPIMLF5YHJEHMTlV4kCIlJRIhWbo8c5OIZFtikREASXU5OvnUzxAdOUCnV9AX2f185y7pykXHtr43/rfP0mY4dWJFcSgLB0wCStnP8oIhLpyFhqKXojh9z/+JP+fNHk2/IEgXn3tLSQki27vxNQMzF0geghSOnTH19/8B336DWJCDPKi/8cfZ5GVO4zgD7QOgbBt+BJUlVXim4Uvk/yCJ0ctYATCrf99iLJpRagomo1RmXl496VNqDl1CIdeXof8jN4o6T+hUftUCwG1we+Y3hvfH/sR/kCwQQKhaMQkDBj8iOa1YOc+KBg4GuPGT2f2F58UwmefH0Zax57kObUHYceuN7CgdBX8gSBuVFeLf2/cgD8QRLBTJmbOWWL4tYtEixQIkfohqF8TW/SmKQKBSXRjBzg5Pao7XEHxImiSFqkugS65ssGTQPoBsN4EaaiTyqOgqXiw+YnRNtu8inF36EC/FmkbBysW6F4G6r4GFluMIgwc7bQCx6OEFdwkrMCKA4HJ20gW2ynriAO5a6JaHLjlvAOfcu3U15O+xpGSEzl3T1MuPHregaqySmSHQlg2YAKqyioxtf8AfL5vO7PNZ/u2IzcUwn8W7rzrfffMLMTlK1U4c+Z3nDnzO9aXP4ak1AzU1tbigw8/Jq5o2ai8d+Af2P/e3zF3/nI89fSLeHd/JY4e/QHpXfrqCoTPv/gKu17dix9/PE6MTUsXCGN6jUBVWSWOLd6FrHAYz4xZhA1FM5EVDhOB8OuKt5AVDmPKkBy8/uh6VJVVYkBmb9ScOoT/vr0eWeEwXh63tlH7LZm2AACw+9W9OHHif8TwytciLrEr/jx7Dlsfe4YIg8YKhJs3b2Hx0rX4+ecTRDz6A0GUlW/FO+++j+++O0aEpD+gFQgbNj2B3a++iU8+/RK3bt2CP8AFgqF4VG5nD/OaNheBjH/2pUFQCQQxaz5FY8QYA6cSCZqmPx5tyIGMhfZQIoEMdKKbK2nLI812nzj3gCC1ObaJ3gC59TH5a6P/+shf+v3aZkcKZmsM7O5YauhUvCak4KZDChE7JcrnKVnXcyCLMFYcSNeDKWOsP/eAi4OmpykXHrVAmDooC0+Mmsd4CIZ2740fPtpFthnVvzf+s/9J8vrY3qOaZVF84cUdmufyB4xCwYDIiWmtHVkEZIczmLBCaeF4DOyRSR5fXncQqwdPRVVZJQq798KHrz2BmlOH8J9XFiIrHMbbU7YY/l04Ci1SIIikMgZCHXumvQhqgyMwJZHJJFmRbdYjGj3akyC2ZlaJBJ0ySCIWvKxYcFIzHOzOgNiJkCqPtDtjGcHgcAXgEOJgdwfEZEFbI7HHqISAGI6wOdrB4YqF3R1Hhi2xfQ0i5BpELGNM0pwvWhy45HNLDcnSJCZSgo7kjkQQAOrOmXzEc9PQlAvPqxMrxAqF42KFwtd/nY/cUAi3TyrhhsKM7jh1+E3UnDqE4x+/gjfLJ+PYzlLkSK9XlVVi2/CmufsaNnwi5H+ff/EV/IEgUjv2JMllv575zfDF+n7lt5X7IuYdVJVVYtGACWLIIdQd4/oOQFaoO7LCYYzIzULNqUO48sMBHNu5CFnhMObnTjX8+3AUWrRAkA1DXbkIesluglfVmEd1R8s8700WExepnASNUGCqHxI1HgW5HJBMgnTHasIQcujB5YmH3U3NeJCEBHmdzmdwx8HpFksp7RQ2V0AqSxT7L9gcATio0dRK6EP5v/g+EaWvgSIMXLq5BkqfA5cnSck5IA2mqA6WqrwDuqWy4E3RJpbW4R1SexqM/y22DJpy4ZmQORqje+XiuQ2LUXPqEI7tLEVeOIyrP1cSgZAbCuPkl3tRc+oQvnxxAY7tLMX7W6dhZK8sxgA9O2qF4Qtpa6Vbxz51igOan5e8hn0vbsTRf+5gqhiO7VyETTNHYGyfAUhP7Wn4d+IotGCBkAZ1RYP6dbVIYFr3Sp0WlUY8VHtmpquf0kjJ6VGEgotpI6x0DXTFJIpzCLxJcAkJcEh9E+xSQyGnR5XQ6NEabtl4M10a5amRHqV0UhQU4uRIl0d8bHOJ28qeARIqoMswmfBBvJQ3kQCnW+lr4HDFwSEkwO1NZL4T2z5ZrPigkxFJYyTqHCpTGtnBS/K8BYHqmqgOH8nXUj17g3sOmp6mXnw+mLENo3L7E4EgIwuEvFAGniodj89erSCvffTUTOSEwhrj0y6Qbvhi2ho5s+Jtcg0+HbUCHwxfVKdIuFL2PhEGV344iGM7FxHvwW8r9xn+fTgsLV4gKGVuSpkcHW4Q2y+zIkBuoCR3WZQ/i53hoO62qHgLnJG8CXJtv4ftmyDekVNTIan+AS5VKIKIBsrD4JA6NpLRym5WTIgegDhmG3mQkpJgSIUNmOFKqhAC1S2S9DXwJKqSEBOJx0DxGtChh8ieA7VR92rOvXit1OLAQ11z9rob/RtsOTT14kPnIagFwoU17+GxEWKvhO/+tkDz+tu5UxnDsyCPu6aNQD7/vy1/C0cKSggf5xfjwur9zDX65RnRG1T14/v46OnZRBw8NmcUssMZeHb0vXfJ5DQtLVwgyKSiLncz3aqXDjcIPm35o8aYUXfCLq8cO5fq+imhQPdLcAgJUsOghHpCEBFEg1cfGxUGiITdHaf/fkYM6IgCOoRAzVJQfy+5fFEWBi4hUTtfQR7CpBq9TSck0s2Q6DbKkVoqN+Q6c+6Npl58Ds97CbmhEPaWT2EEwPtbpyE3FML51fsxL38UckMhHN2xkLxeNnUItmUOZYyP0Qtpa+Wy1K/iy2ELGYGg5p38yTjy0gIiCmSOvLyAVDoY/V04WlqJQEiD2nCoDQ3rslZlyUf8LKUUUn+GQ6KmZwItFug4vaAWCgTZ+6AnHBJVhjxBymXQxyXERxYAjBiQ9qt3PDqJh5GEAdOmmpmYGdljIPjoUsY06TrohxVYocDFQXPT1ItPv065eK9kM6lcoEWC7Ck4UlCC+YWjmdcPbCnBO/3H4eicF+9KIPTNaXz1Q/fMwczjQHxn9MgcYvgCbjRJCWI46Ntxa7GoV16dIuFIQQl2jxpHxMHXf52PrHAYPyzejY7J3e9q/+1iOzVq+8TUbprnRo2fb/h5vF9plQJBb7iPtmc/20RJ3Y5Z/KueKKjNTaBLIuU4vGxIldCETuVDRMGQpCQE6hh3u1ucB2F3USEM6f8OQVVtILn9SQ6B/PlqcaA5NiqXwJssNotimh4pFQpsngbdGZGdxEiug0+vkZUiEgTVdZDxcIHQ7DTHAiQb+B8X79KIhMG9uhPDkhsK4e0K0dPw+fY5OFJQQgRC+9jG5R/0y713gRDsksUFgsSzo1eKDZLyi/FKv1F1CoSjfyvFsZ2LMKB3D2SFw/hx8W5Ni+3GcK8CISt/LEZzgRCRVigQFGNSn0jwUNvKQsGjumuVcxfUXgVt3wS2dwJxv6tHSBPjm0hyFhokHLxJmrwGPRz0wCQ9AeBR/z+Rgjb4UtIlU7ao7Wvg9CQx4QRFHLCGnB7ApJz7yMOW9MJCXCA0L82xAC0tnE5EwollbzAi4e8TJxPD8u/8YuJp+Dq/GEcKSsRui3cxvIkWCFl5Y9A+rhMGDJuK9nGd0CG9Dzqm94E/EMS4yYvRLjYdg4dP0wgEfyDIBQLF9jEr8VHeFGSFw3i132hdcfBR3qMY2rcnssJh9AuFcXnd+3c1oIlGFgjBzv0QlxQi1yS7YCwC8V2QlNodE6YuRbvYdIx9dJGuB4ELhMi0IoGQBtaI6I8JjtRIicme97GzG/TCDS4yaEjrVSAdGUlmP+1B0El8rMvLIOcBuGXitYZe6uhI5iDQ+Q8aAZKo+qs9HiEmSdPLQHldST50yedBel19/sn59qVpcg70xnfT14juh6D3uZymp7kWoT9XvUtEQlnWGCIEvpGEgB7nVr2DL+fpD+qpD1ogjHt0MVI79kZqx97wB4KYWLwcE4uXwR8Iok/WCPIaFwj1M7NLHl7uO5IZ5aymtEc+qsoqsbloUZPsUxYIg4YVk2vVLjYdIx6Zg6LRs+APBDHikTnkNS4QGkcrEwgyWqFAexUEn16rXu3sBrrzokYIqLwK2qoHMamR9i5o7urlds0RDLU6+VFTWqlj+J0e9XsSNcelrsqgIZ4Q9ThsVfKhpnSRCTNI/Sl8aZp8AyEmtU6vgcBcJy4IoklzLkSyQLi09gA+yZ1MvAR6nF/1Ln5d8fZd76tf7ihMnr4Kk6evQvu4TphYvBwDhk6BPxBEcloPxCeJI4PDPQoxYepSxCWGuEBoIP1TejDX6vO8KYoXqHAaZmU/2qT7k6+jPxDEhClLMXq8OGipXWwn9MsVO1+mduyF8VOWomN6Xy4QGkkrFQhpUJfDqV3W+pMCtTFxN2mqlKJyo6vj7EoPBT2xwBhcn0QM9ZcSDupcBkUYsHfxkUki/QkcAtWfgN6PT3UccodDnc/Tq0hgqxMk4y41PXJLKC2uxfMZqccBXWqqFQdcIESL5l6M/lj1DqrKKvFFQQm+yJuKS2sOMJUKpxbtRlVZJU6veMvwhZMTmdhAOg7nT2WEwtYeQw0/Lk7jafUCQW10tCJBGhTEtG3WNk4SpCY+9OerE/J0qx/kbow6sXu6CRNzBy/nMXgTtQJCzwuhhjL8SphAEhoxSdIxJWmEi9wWWZBEAe0piSwOlHPo8aXCoyuc9CsV9EobtZ4DLhCiRTQWpNcmbaiz0c4pLg4eGJLiOqN/Sg/Dj4Nz97RigZCGSDkJkTwKLKwRJC1+fdqySHWegq5woD5PP8FRZ6gRMdLJVCgiSXzMeCCkcAYRDCpvgreB+5PFkDp8oA6nUEbb41MSEOkWyOw5TKX+Rka7D+5BiCbRWpQKQwN1xcE/Zzxr+ILJ4bQmWrlASAN7J6qfwBgJ0S2uP/CJCIUY/TbPkYSGbHhlASAn+clEcvM3BU7Vvtzy/73JEHx6JYpql7/y/ZiqBPkcUSWJslioTxjIYR0eVjCeaC9O+4u3EXEwIZNPUuRwog0XCAwqI1SPQNCW4bGllOqqB7l1s9p1zgoF/cqHiMmPkveBQX6uru2oMAcRJnUJCPm4qGOVzxsRTD5t4qGcX8BWg6Tq5hlECu9wUXB/YPRixeFwogsXCBoiubD1DZg6416d0KhOdBTFghiLF6jPkZETHus21vr5DHWFMRry2FWXdyImmTlWt3T8Hh/bv4AWSsqdv/45YudgUOdVt3zR6N8Fx+jFisPhRBcuEHSJHOvW650g+BoqFHR6KtDzBrzKFEmxKkLlYVALB6ZVMStk6GPTbqcVE+JnsjkBgnRMSvUFW32g/p70d9VrcqTX00B7Pnmewf2K0YsVh8OJLlwg1InWUDHxdh2xUJ9h9PjS4GHusLXVEHQOg4xcIUGMt1wuyBj/hkMER0wyESaCdPeu3rfsIdCWMipiQOMp0fEWKPtmwwd1JyBycXC/YPRixeFwogsXCPWivbOtu3eC8l55DLGewdTvk8Am5undqdOCQe69IEhCwRPJuFPIXgG6H0Fko65uIBWpRFFfENSdnFmXMDD6mnP0MHqx4nA40YULhAZTtwtcTyDQ0GKBTUxkeywonoZUxkCTmHwMLVS0Hgh3TGSDr9ejQL0PummRXlJhpPyBSIKARi0I9AWC0deZEwmjFysOhxNduEC4K7SGzaMxfPrvVXsb6gpJaOP2dFkl2/5Z3yOhj7K9crwe5vPrhxYE9YkjNpSgf/6Mv6ac+jB6seJwONGFC4R7gq1y0BcN4mtqgxzpMxtqoOuvCtBvQHQvn00fo/q4taWJadBWIqjPl9HXj9MYjF6sOBxOdOECoclIVf0/snGMNKmQDkPQn+1RQd/B6+c2ROrboK6e0H5efaEC+TU6JOLR+d6RxQEXBg8qRi9WHA4nunCB0Gxoyw/ZkketkY0kGujP1TPgehUC9ONISZSR9qHefyQBQR8z/R21XhWjrwWnKWgXm274gsXhcKJHTPtgxPWAC4RmQzSasmGtL/dA7zH9efTjSEJA/Tz9Hj2BQnsK1NtqvRB6YQMuDFoaSWk9DV+wOBxO9KhrPeACodlg77Qbmwugl7wo/6VDFJEERV2hjsYcCw8btC5Sg30NX7A4HE50CHbNrnM94AIhyjQ2cZAOW+j1TIiU8ChXLAiqcEfD98tpraQF+xi+cHE4nOYlITmj3rWACwSD8Po7SH8jGWetx+BuUN/5RxIBDelxwGk9dOzc3/AFjMPhNA+pD2fC265jvesAFwj3CbJgiIRekmFdd/1ef4c6Db7X34F7Cjh1EpsYwsNdspCW3pfD4bQAOnbuj6TUHg1eA7hAuE+pq4pB8GkFRX13//UJEA6Hw+FwaLhAuI+hvQDq0kN6G0H1vEfnvUZ/Fw6Hw+E8WHCBwOFwOBwORwMXCBwOh8PhcDRwgcDhcDgcDkfD/wPP2IzOMcmI0gAAAABJRU5ErkJggg==;opacity=50;" vertex="1" parent="1">
          <mxGeometry y="700" width="300" height="150" as="geometry" />
        </mxCell>
        <mxCell id="FflpXugrEhwSwH_WfC18-5" value="" style="shape=image;verticalLabelPosition=bottom;labelBackgroundColor=#ffffff;verticalAlign=top;aspect=fixed;imageAspect=0;image=data:image/png,iVBORw0KGgoAAAANSUhEUgAAAggAAAD5CAYAAABCrc32AAAgAElEQVR4nOyd91sUSb+3z19x3oNpdx2ggRFJDjCkAVFA0hAUVAQBAyoGFLOiKJkGUdfsuq45rTlgYDbvPpv32RzNiTUrJsLM5/2hu2u6J8CAQDNSXNd9MdOxurqn6+6q6m/9j4JRgUKhUCgUCkXM/8idAAqFQqFQKD0PKggUCoVCoVDMoIJAoVAIfoGREP9FxaTKniYKhSIPZoIweFAgWiouAKxOFn6ev0P2TKFQeisAYDAY8P7hk9Dr9cjIyiXTAbS67uz8JQAAJ1c/2Y+DQqG8OhJBGKQMkE0MTJE7YyiU3ggAfPnlt5JpDx48JILw4MFDKBgViktXSaTB2zccDQ1PyTLhkclwcw8ky4RHJMl+bBQKpX1IBCFWHS+7GFBBoFDkQ/z37Xc/mE0ThAAAduzcD71eDwAY4j9MskzEiFEAgGvXbuDQ+8excfN22Y+NQqG0D9sE4fpDQPcnwOpgeNYIbPwMeN7Ezat/Auz7Dqj5EFj/KQzHfwIaXnLzmluATfyy1R8A310HdnwNbP8S+OoK8M4XwOMXVBAolB5ExIhRpOB/8qQBCsa8iWHMuBxcvHQF9+8/INOn5s6VNDEIfz//8rvsx0ShUNpP24Kw62ugRQ80tQBnfjNOb27hhOH6Q+DkL9y024+N67A64PoD7n9TC7DhU+O6v902fr7xkAoChdJDyJmWTz4L/RGEz4II7Nt/BAAwOm0yMjJzrQqCglFhztwCm/ovUCiUnkebgmA49QsM9U9gaGwGVn/ITX/wzHy5E7/A8O8T7vu7/wGqP4Bh23+Av+4AP97gpn9+kasxqP6AW+frq8CWz6kgUCg9gIJlZWbNCRs3cU0DTU1NAIDr129i/8FjAID3D59Ac3MzKfzVwSMAAI8fP0FAcDQMBgO++uo7GAwGKggUih1iWxPD+z8Av9dznx89B1Z/xFHzIfDul8CGT4CdXwN7vgU2fw6DuFagqcUoEVU64Ptr3PdvrgJbv+C2QwWBQukRxCeOwyeffIFPPvkC8Ynpknk7dx3Atu17oGBUKCmvwc5dB+DjG46ikmqyzJKCUpw9q8Ngbw0ys2fg3PkPse/AETi6+Mp+bBQKpX28eifFNR8Baz40fl/7Me2kSKFQKBSKnUPfYqBQKBQKhWKGRBDc3NSyiwFYHVoqLsieMRQKxYirewBi41MwJ38eCgsLKRSKBebOW4CExDFQegTK/pvtDMwiKTq5+OLn+Tvw68JdsnB0Mit7plAoFI4hfuGYO3c+7UNAobSTWXlzEBIaI3s6XgU6FgOFQrHIsmXLZE8DhWLvLC0okD0NHYUKAoVCMWPhosWyp4FCeV2YPWeu7GnoCFQQKBSKBFpzQKF0PsuXL5c9De2FCgKFQiGED4+HYw9IB4XyOjIqJV32NLQHKggUCoUwZeoM2dNAobyupI3LxhD1CFnxUg2Hk4ttQ7JTQaBQKFAwKrh7BcPJlb6tQKF0FY4uKviqh8NFqZYdv8AYOLv5t5reNgUBADZt2dHujHj46DH++vviK2Wm7oNPse3d3VAwKjQ1NcMvIJLMY5RqEh9e+HNzl757aunPdB/37j0g85qbm83mV61aL1nfdGQ6RqnGs2fPJMskJEmrkcor10jmf//DT7JfqBSKKWnjsq3Oi44bQ3CirzwSomJSSb54DglrdRm509rVBGpiSF4Eh8aazXdy9cPadVuwpKBE9rTKycxZc2SXA4FBniFwUQZYTWurgvDZ51+RYV/bmwl//30RH3z46StlJACEhMWRz6bzbt/+l3y/ceOWxWV81RESxPMvXroiWefp02d48uQJ+Z6WMQUAEBmTQqY1Nzfjjz/+NklHPfleXFoNAFB6BEHBqBAekQQA0PLS4O4VAgA4f+FD2S9UCkXM/PkLrc6z9PfpZ/+RPc1y09Dw1CxfAjXGd9+fP39h9eHkdeP9IyfN8mLN21ugYFQYx99LxX9yp1culixZKrsYiPH2i7Ca1lYFAQBi4scCANIzp3V7RgKAu1cI+Sye9/U331tcfpBnsOR7W9sfPXYS+e6tGipZBwAanj6VrDOML/AVjAq+6giL+9Dr9USOVq3ehIuXrkjm37t3Hy9evLQ5H8ZlzUXu7BKEDE2W/eKmvL4UFhZanSe+qTu7+eHu3fsAgFU1G2VPt5wIgqBgVHDk8+ne/QeSPOsto1kKgmDpmgEAvV4PBaPCgsUrAQBpGVNlT7McFBYWyi4FZpKgGm4xrVYFYWruPHJyv/3uv2RceIHaszqcPScdM+H8hQ+xtKAUCkaFk6fOYf3Gd022OZf8WBYsWmk1AydOyjOzzbas08Mn1Gy+8N3V3XLYS0A6dr0wLTkli3y+e/eeZL7SI4hsd/iIkRbT1NjYiD///MdqWgHg3r37Nl1MY8fPQWCIFrmzS5A7u3dXzVG6FlsFobVpvQ1BELyGhGH02EkAQJpWhYeVjtbC2huCIHgNCUPYsAQiR6bLXbzI1dyKm4x7Ez1RENQhWotptSoIer0e727fCwXDhV8GALfBQZJlAGD7e9wyN2/elrThP3v2HF9/bXzKv3f/PvR6PZJGjseImFQ0N7dA98EnrWak8KMKCYtDS0tLm8vW/3vXbJr4b+euAxa3bzqtatV6KBgVzp3/wGyZ6zduSqYBwIFDx8h3pUcwAGBkquX23Nn5S22+WaTxNQdTZxUhSJOAIE2C7Bc35fWFCkL7MW1iqK//12yZ3iYIwt/Lly/hbPIA9tPPvwJAm/f+15meKAj+wfEW02pREJzd/M0uaL3egH/+uSyZpvIfDgBIz5hqtrxYECw93SuY1psAXAcFkPnbtu/FsRNnrC4LWO5gKCY6bjQAIHHkeCgYY3WgpW1tfWcX+d7w1LyNcWbeIjI/ffxUs/nWjmtseg4AYNr0+W1eREKzgoA6OE72C5vyetMeQRgRkwoAkv44vRFBEBxduDy6ePGy2TK9TRAsXS8KRoXnz58DANas3Sx7WuXE7gVB+Dt2/Azht9//sniRHzteC0DaMUfBSAVhnJVCFAD8AqOs7t+WghcAGhubbDoxAPDo0WPJd0vLZE+caXH9GzduWawyE3By5WpawiOSzOalj58GAMiysm0xGRPmUzmgdDu2CMLDh49a/T32NsR9EH786TcAgLdvuGSZ3igIU/gm6pOnz0uunwcPHuLy5au4fPkqxqZPkT3NcmDXgiAUctb+Dhw8KlkeAF68eGlWcIoFISZ+DACAUfqbYSlRTq5+2PrOThw9XgsnVz88e/YM4RFJZv0FDAYDnj9/bvOJMRgMePjwkSTtkdEpZsdjaV2hFsTaq0zC9i2tP2Ey16dibHpOm2lMz54nkYMAKyeOQulsbBEE4e/Pv/6hIzwyUkEQ8sn0XtgbBUF8zVi6fgBgYs5s2dMsB3YtCP9cvGz1Yv7gw08l8wwGA5qamsjnf0TVa6Z9EABp1byCUWHa9HlWM1Gv12OI3zCyrqX54toAU168eIk63cfku9BskiYqpJ8+fUbSr2BU+PqbH6weu8FgwMeffGF1f6Xlqy2uO206Z9JJo8bbdPGI5SDQSscRCqUraE0QKBRK52DXggCAdE40hVGqAQAZWbn4+tsfJKbsNjgQADBtBte+bioI0XFjiDk+e8a1RW3dtstqJpqaqHheFN/+aelP6BmrDhoBAGhp0RPLv3L1msX9tLS04OXLlwBgFitBwahw9er1Vp8AGCUnH0Ul1WbzhHY30z9rTRWCHISEmTdTUChdCRUECqXrsWtB6GoiRozq1qhiCckZyJ44E4O9NVaXGTV6gk3V/xTK6wwVBAql66GCQKFQ7A4qCBRK10MFgUKh2B1UECiUrocKAoVCsTu6WxAcGV9MHJberfu0F6ZFZsmehp7CzBETZE9DZ0IFgUKh2B2tvubI6gjCtKGqKDItJbj944QI69rz6JANJafN8sXV1Z9M2zRuabu3+dP8HQCrQ4BXeKelszt4f1KFWV6Iz/PL8rPt3qYLn5drRlsfSMzeEAuCu6cG7p4hksLa3VNj8bNycBC/vIYKAoVC6V5sFQRHhivQf1m485UEQcGo4OdpPa6IPSAWBI9BXCj6bRmFryQICkaFoUPMA8j1dMSCsCFtCRSMChqfiFcSBAWjQrS/+dDR9kxhYSE2vfM+XJRq7Nh7BpmT8rFj7xm4KNVwcw/Ee3tOY5BHMJkvFOJTZxZg1twiTJu1jAoChULpXmwVhKqU+WTaxzM3SARBvNzP83dIpikY4xPhf2ZvwbWCQ2S6xjtCsq7ceWErYkH4z+wt5HivFByQCEJ94VGy3P2iE1AwKhgq6yTHClaHxvJzqBm9gEx3VwZK8qUn17YIgvC4+BRJ/88LdpLjFATheE612bk+N22NWV4I38HqkBoyyuz6GqNJ6Zbj6mwKCwtJwb9j7xns2HsGJZWb4aJUo4zdCtdBAaio3mZREITlqSBQKJRuxRZB+Jcv6Eb4x5JqcLEg/LqQi22SEJgIsDoo3dQ4OLGc3Ow3pi0ln8WCoK+sQ3M5F5Z3iTZX9rywFUEQPpq5HmB1cHNV87UsKokgbEwrgIJRwcs9GGB1iFPHY0ZUNlknXq3lPrupJYJwq/Aw+bw1fZnsx9sagiBkhI2W5IEwXRCEIYM1GDwokFxXNakLyLIfz9wAZxc/gNVh+/hCskxqyChUpuSTvJgRZXkwPHugsLAQ7+w4TgQgVpuBaTOWku9b3zsqEQgP71AM8gjG1JkFUAfHwMM7lAoChULpXmwRhFh1PP+EfBBgdQj2Hi4RhOdltZKnvPgALVn//YlcQfGstBYKRioI7/MSAVaHH+e9J3te2IogCEK/g2/yt3JP+oyvRBC+mrNVki8rk/JIvgh5KeSFWBBmRE0g8+6tPC778baGIALCcf21eI/kuyAI+dE5krz4NG+j5BqrGGUUAWG6pRoEuY+3o9BOihQKxe6wRRDEn5doc6EZEkEEYWHcVPLkKCyXFJQIBaNCc8V5UtUcx0uDWBAESpNn29XNXxAEcb7oZqwjT8Gbxi2FB99M4K40PjWXjcqHglHh8tIDZL1VqVxHPLEgCIzWjAJYHQa5Bch+zNYQC8LvC3eTJhPhmAVBAKtDQmAC+fz1nK1QMCrkDM8gefGizNhfQSwICsZYC3M+d63sx9wRqCBQKBS7w1ZB+GXBTvJZeJMhJTgZ3u4hAKsjIiAWhLTQVLMnP7EgiNexV0F4b/wK8lnoayHUIIiPTSwIQwZrzI5ZLAh6O8oXsSAEeQ8DWB1mR08kxy8WBDGCIIjnDeZlSpiWGjIKl5bul6wX5G1fb3kIUEGgUCh2R2fFQejo63m+HqEIGxIpez50FSE+wzu0npd7CIb7Rsue/s5E42M+5o0tuLj6I9o/Tvb0vwpUECgUit1BIylSKF1PYWEhfPwiyauMPQEqCBQKpVWoIFAoXU9hYSECNAkI0CRAHaKVXQ6oIFAolDahgkChdD1iQQjQJGCwV1irhffwqJHwC4iwOJ0KAoVC6RaoIFAoXY+pIPiHxFstuAOCRgAA1m3YRqYpBwdB+KOCQKFQuoWuFgRnF194ugfLfpw9CU/3YDCufh1al3Hx67T89HQPxmA+VHRvxMXVv9uuTVNBCNAkWC24AWDewhUSQdDrDRjsFUIFgUKhdB9tCcJw32hpgJtZG9u1/VHByQCrg4urv+zH2lmIQy0bKuuQETYGCkaF68veb/O1RI9BQQCrw9yYSa0u58j4SuIlNFech4urP2bykRiVnRAbAawO9YVHXmkb4rEYuFc8C7r1XAj7bSg5TaYxrn5mr9xaokA7vdteI7VVEPbuO4yiklVmgiCWByoIFAqlW2hNEJbGTyc32jsrjuFF2dl2v5v/OgvCvyuOkiiSx6dUI8h7GG4uP9zqurYKgpDPz0pr8aDoBMDqkBuZ1WMF4d8VR/Gw6CSf5jPddi4sxYs4lsPapSB4DQlDY2MTXJRqKggUCkV+bA2UJPAlHz54eeJMPCg6gQf8IESOjAoPik5gZFASFIwK9/l5r7MgiPPpzopjODyxkuTHtvHL8aDoBPw9wwBWhyOTWSgYc0EQ56HA6ak1AKvDwYnlZvsWBMHdLQBgdfhKFHBIwajwpIQbNGn92CWS6fUrjgCsDvuyyyTpFgRBSIfKI7RdeSEIgjiSppA3Gp/h5LujaJ0/F3HhmF+WnZNsa07MJLK8swvXBBPNj/+hr6xr9RoFq0OqZhSZJoSyFgQhiR8nBKwO3u4hUDBSQWBc/PCg6ATurDgKBWOM3AiWC6GtYFSYHTMRD4pOwHtwSLvFwhZBAIALdR/hQt1H+PmX33Hx4mWsLK6igkChUOShvYLgruQKpj8X78HurBIy/96K4wCrQ0vFBbLuqak1r7UgPCk5jeaK8wCrwzvpy3Eu1zg64f4JZWbRA8eFjZYIQkvFBYDVgXGR9kcwHfFRjCAIYubHTiF5/qTkNEL4sTLezVgBBcNFZtRX1iHIi4t0eGH622T5+sIj2JFZBLA6pIeNbndeCILwpOQ0qU25t/I4JgxLB1gdJoaPwyczNpDjGeLORZFczUeOvLHsfSgYFb6b+67kmNzc1FjAh/GeHpWFc7lrLeaJuKlHX1kHJxduPIxhfLRPQRDA6nB4UgWpBVMwUkEQ57kQKXRGZDaOTKok04Ww4u2tRRN+Z20JgqdPGGHJslJs3rID7p7BVBAoFIo8tFcQwoZEAqwOPy/YCVc3bhTDaZFZMFTWYUfmSu7m7DsCYLnBjF5nQRCEKCGAG2PAkiAIQzWD1eGdjEIiCMIImUHew8y2Ly7ETBEEwYvvXAdWh6OTWYwKHgmwOlxeekDSd0FY5vqyQ7i89ACelZ6RTG8q5wTnS37Y6vZi2gehSDQglb6yTpKeoaooKBgVqlLm41rBIbJvYfmX5dIaBSHktHgbI/xjLV6j68YuBlgdzvC1L6H8dSoIQrD3MPy9eB9uF3I1KSE+EUQQhKYRQdSEbYr3mxWeRgQhuAPRMdvTSZE2MVAolB5Ba4IgPOEmByWTaY3l5wBWB7VnGBSMtIpXGL73hqiz3ussCKbTLQmCMA+sDttEgrAsgSucGk0KRQWjworEWfzT/VEy7Z0M7jyZ9kEAq8OxnCok8lXoiYGJEoRlpkZkWpxezxeY7X0iFjBtYhAfb1PFeck+3ZWB5PrR+ETg87zNEkForjgvvf4qL5gd05DBGrP9iLcBVoftGSsQLqpBSAzi8mZUyEioPEIBVodo/1giCDkR4wHWOBCUsB3xfn09QokgdPR3JpYDH1/zGAfdDRUECoXSKq0JgjCcsSnfzd1GltmQtlRykxaefndnF0PBUEEQ5pkKwtyYSdiVVQywOpSNnG22rcfFp8zyvbH8nFVBED6D1eFXfmCtozms5Jz8unAXwJo3Mfh5cP0knnagc6E1QRjJn/e7K4/jKV9r4cT4khE+j0yulFw3G9MKJMca4BVOakXurjyGhpIzFvshiLchrh2J8IsmghDpF8Pl02SWnDuxICgYFe6t5JrI/DzDyKBTD4pOkPPAuPh1qiDILQdUECgUSpvYEgehctRc/LFoN3TT1yFsSJRknrOLH4qS8pAdngYFo8L4oWNRlJRHqmv9vYaiKCmPVLW/DixLmEGq0sVMHJZOpqeHjZYsU5SUh9GaFLi4+qMoKQ8R/EBMRUl5FrelYFQYo0nBV3Pewfdzt2N6VDYUjArhqhEoSsojnfiKkvKQyec9d67m4du527AobppkW0VJefgm/x2sNEnTonhuuZV8Okyf0NtCON+W5vkMDsHRHBZnp62Gh9IYb2FXVhFKR86R5JeCUUEbmIhzuWuxNX05EQ4/zzAcncyidtpqi2kT519iYCL57DNYg6KkPPjxNV2zoyfh8KQKuLqqyXFG+8eZnSPh+yBlAN6fVInzuWugGsx13Izyi7V6rG1RWFiIgBAtfPwiZRcDKggUCsUmaCRFCqXroaM5UigUu4MKAoXS9VBBoFAodgcVBAql66GCQKFQ7A4qCBRK10MFgUKh2B1UECiUrocKAoVCsTtaE4T8mEnINxkzoCRpts2veglBfNqTHm/3EFwpOIjmivOYG5vT7uN5lXf6bWXWiAlm+RIfoG1XvlwtONiufSrdAsjri1WjFrQ7za0FX3oVRgUnIz9mkuQ1RyEeRpgqskvOl7OLH05OXQVDZR2O5VTDuZ1vyOimr+vya8QUKggUCsXuaG8kxQMTy8m0WHWcZBS9hpLTku/tFQThXXRTnF1sHxq5OwTBUhyEaZFZkmkNJadJxL0rBQfN8qU9gvC9SRhiAeEVPlvoKkEQ4iCIw0Ur+XEi8kZMInlxlg9CtHr0QrO8aE+6Zo2YYDEvpkZk2rwNKghUECgUig20VxDEmD41my5vKggurn5WawUmD88AWC7sren2DVYG6ulImjsDa4GSTNMR4hMBBaPC3ZXHzPLFVBCWJUy3uB0haI8wxoWC4WIDtPc4u1MQLOXFR/ww4RvSlrR6zSgYFRbFT7W6PWF5Vz7wljiYl61ppoJABYFCodhAewXhWE4VwOowiB+0yRrC+oIgiIeKBquDj0nQm78X77UYkc90eyenVJtNLx+ZL1lGDkGYzkc4FKcBrI4MYGR6HIIg3FnByYMw7kDm0LGS7e6fUAqwOvh6SPPrPl/bYro98X4Cebnw8wzrVkFw48foWBwvHdzIlITABEl6c3hJFPhz8V7JvsZqUgFWh7O5ayTTP5y5HmB1SA5Olgy69KSYO0/LEmaQZo9t6cupIFBBoFAottBRQVAwKsSo4yTz9SajEAqCEMUP2RvpF4NIvxiLhdXN5Yct3rTFaRBGThzBbw+sDlnhYyVP2D1BEIR0CDUIwngH4nlXCw6SqvikoCRE+sWQUMji7QqDD5mKk5BfjKsfbvGfhcGzwOqwO6uYjKWhYLq3BkEsCMLxCjUIq0cvtFqDAFaH3xbtRqRfDFL4MMvifWWHjwNYHbakL5NM35q+HGB1GBuaiuLk2ZLtPS+rxdPSM0jlt8e4+FFB4FGHaC2mlQoChUKBgukeQUgPGwOwOtxdcVyCeLurUrnhf89OMz4dCkP3CtsUlvk8bzNuLT+Mp6VncH3ZIYDVoWb0Qqtp7mw6SxB8BnNDH99rJV+EsSzqC49YPTfCmAUrE2ehqeI8fpq/g8jUj/Pfg4KxH0F4UXZWkhfi7brwzQlNJoM6CccqjPcBVoct45YBrA5xomYqYT9UEDi8VZZHpaSCQKFQoGBsE4SmivNoqjiPi0v2SQRhKD9iXlXKPDCufnhWylWn50ZmkfWPTmbh7OIHsDpcKziEsaGpaKm4AM9BQVb311xxAZdEQxanhIw0W2bisHRkh6eZCUF3CoKQL00V5y0KwumpNQjxicDvi3YDrI6MpyAIgvC5sfwcUkNG4v7KE4j0izHbn56vCTBU1pFaBrA6sClzzY57V2Yx/EV9FAYPCoSC6XpBEOeFJUEAq8Pc2BzMiZ4IsDqUjZwDFxdp/wHhODOHpuHklFUoTZ5jtj/x8X+bv418/m3hLrKMMIy00J9FWKaA7+dBBUENb78Iq2mlgkChUKBgbBMEgasFByWCoGBUeFB0AmB18BgUhCh+1DzxE6HQByHAK5zMe1h80urgTZ/lbSLLNZafg8ZHeiMzLejA6vC8tNYszV2ZZ4IgiDEVhF8XcAVZXvQkeLkHm+WLIAjOLr7kCfhl2Vl4WBAnBaPCsclVZBuGyjqkh42RzBeEylo+dLUgiDEVhK3juCYAYTTGJ3z+DeFrUMTp+nvxPjLN9BgF2JR5kv1VjJormT83NgdgdVgQy+3fYFKz1dsFYZBnCFyUAVbTSgWBQqFAwdBASRRKd9BTBMEvMAbObq0PvU4FgUKhQMFQQaBQuoPCwkIMUY+QDS/VcDjZGE+ECgKFQoGCoYJAoXQH9vQ7o4JAoVCgYOzrxkWh2Cv29DujgkB5ZVydfOHoLH86KK+GPd24KBR7xZ5+Z1QQ7Izp/SLAOsRjRd9Y+DuqZU3LICc/lDnEocpBC08n22PkU3om9nTj6i3EqONwZ8UxBHkPs3mdOyuO4Z8l+8jn2yZxE15X7qw4hjsrjsmejrawp98ZFQQ7Y+ybQ1HtoCVUOsQjSMG9puLEqFDWJw5qRQAi3grusjQ4Mirk94+SpMPNuX2jqHUUZ2cVBlMZ6RKs3bh+5kcONMXVlZ4HS685dub2hRDEGh/LgWwsAVaHR8XG9/7FYzd0JcJrjsL3J8WnAJaLDtme7QR4hSNkiPV381s77u5+ZbEjUEGgdBmhA4NQ7aDF3dog/DAzENUOWlQ5aDG7fySCFQGSQrsrqv3dnHxR6RDP7aOPlt9/vFn4187EiVEh4S0NKvvEo8pBi7l9R8h+Hl5HrN24ND6RiPCLxgczuDj30f6xiPCLlj29PQFBEMJ9RxA6c/v2KgjCqJML46a2ezu/8ELa3vWoIHQ+VBDsDF+FGtUOWrT8HQjDZ55oOqDEekUcqh20qOgTJxGE8Yqhnbrv2Lc0ZNsr/TOQsWwFqhy0WNa36wqLUW+EghWEhCfhLU2X7a8309aN68SUaoDVgeEDG4HV4fqy9wFWh6kRWZIb9B+L9pDPX815hwtixA9W1Fh+DldE0RGdGOP2dDPWkenf5G+TPU/aQhAEjc9wgoKRjixoWrswNTKTfL/Gh4eebxLIByw3GJUgCMI4DGCNYzHkx0yWbHuIRyjJRzkFYW92CcDqUJO6QDJfGA8CrA5npq2GglFhZpR0yObUkFGS70JI5bv8gFRZQ9NQMWquJFCUsH0qCJ0PFQQ7w8vJH9UOWjz7byBwzR847gb9UTciCav6xOPPJf5Y91YcqvtaHqGrvTg6qzC7fyQpoPOy52J0wTLMUKei2kELH8fWg210hCBFgLGmQlRbUe2ghatT9zRn9DY6IghgdcgOTyMR81oThOTgZJzI4bZxPnctiba4InEm2Z6hsg6ubmoc5gsbr0Fd11TWGVhrYpRGmp8AACAASURBVBBC/Pp7hpHxEcTRE5+V1sLZxRcnp6wiguChDCTRB335wl4QhC/nbEU4H876xrL3yXbm8UNm/75wNyks5RYE0gTlZuwj9bysFi2VXDoYPtz2ILcA6CvrSFTFkcHJUDAqfMfXPgjrCtvLDB8LJX+d5QzPgIJR4WX5WTSUnJYsJ/c10RZUECidSuxbIVjcLxoz+0Ug+a1QVDto8fDzIOC6Pwx17jCcYKA/7IZqBy02u8QCx92AY9x3b7dXayd2dlahhK+ZqOqbgMlLVyJl8WJEjBvfJbUHLk6+WNE3hsgA+0Yips9cjEmLClHtoEVpnzjZz8frSkcE4XmZ5dDGlgRBwXCFgOnN/9CEcvJZkAXhe1XqPNnzpTUsDdYkpP1l2VmLeQNWh0KT4xRqEFoqjU/Zvh6hoiaGCLLs3ZXHoLQyxLawjJyCYCqL4uMXkxIyEtNEtSl3+Q6G1gRBwagwMii51eOmgtC5UEGwA9SOAWZP0fUXgoHr/sA/vsB33jDwQvDHujBOEI67odohHjPean9nHwFPR39SvV/pNBJZRSVImD8PoVnZYPtwfQ+cO6ufg7MKY94ciipRrcGixFxklpRizNJlYPtyfS1oB8WuoyOC8LT0DJkvvkE3lp/rkCDoK+vg4uqPvdmlAKuD9+AQ2fOlNQRBmBKRSVAwKrzkj1/jE4HRmhSzguxl+TkMVgaidupqiSDEB2jJMpeW7DfrgyAIgiP/eUdmERSMCku10yV5KncfhLGaVIkk6SsukBoOR0ZFhMffk2sGzeIH21IwKnw8c4NVQRCOezU/YmdxUp7F5XoyVBAonYrS2Q/VDlo8+DgEv64PR7WDFrdrQzhBuO4P/DIEzYeUqO6j5Zod/usDHHfDVjfuSVzRgUI8WBFACuuV/uORWVKK+Px8aLKzwfZPQLWDFsMUlgeTaS+DnfwkzQnlLinILipBZmkZkubkY6VTEqodtMgeEC77uXideVVBODKZJTfpjtYgCH0awOrw9+J9sudJW1hrYmBc/ch3cb8CBaPCpGEZ5PvvC7nRHefFTMFHfMEoEOkXY1UQFIwKG9OWSpavGJVPlpFbELjroRJgdbhScBCOjK8kH57xg2q94PulgOX6pigYFQK9jYN5OTLSYb4VjAr7J5RJjnt+TA45VioInQsVBDvA2VmFagctPp0dhXMTI6U1CNf9gd9VqF/tg4PR0dx3vm/ChWTulcj2PnWPeiuMFNYLRs5AZmkZomfNgiY7G6VvcXIwt1/Uqx+bswrT+keQfVX10WLKvGXILCnD+JJSREyZQuRgWd/oLn1TgiL/jQusDmvHLJI9HzoL8SiVYHX4deFOKBgV1J7GzsNj+CftQa2MqEd5vZD7d9YeqCDYAU68IKx3jse7flytwOOvg4yC8JcKn2SEoPHPAIkg/L2cq3mY3j8Crs6+WNk3ts0mgZwBw8mrk9NnLsH4klJE5U6HJjsbeapRXL8Ah1fv/Kh08pM0J5QNGo3M0jJklnJyMDQrG2VvcDJSRvsddAty37heJ0F4zg+pbFqzIBynmOaK87Knl9J9yP07aw9UEOwBXhBWD9Cipi/XF8Fwzd8oCBd98VHWcON3XhCebfeSvB5Y7aCFSytvAMzvF0X6OkwqWInM0jJETJsKzYRsjIseR7YR8lbgKx1PzgBjrUF1Hy0mL1lB5CCjuAShmVlg+xoDQdGag+5B7hvXvgllmDQsQ/Z86CwcGV9sGrcUI/xjzeZF+kZjS3oBlG7yRkOldD9y/87aAxUEe4AXBIHV/fm+BmIhuC7iKicIzQeVZoLgaiXiYZED/+ZA3wTS/h+ekwPNhGwkJGegSrSNjnYWdGZUKHcwxmoo8s9AZkkpkYNxhSswdHwmWFEAJic6xkO3YU83LgrFXrGn3xkVBDvA2UQQfigfJhUCUy75cW8yHHUzr0EwEQQnZxXK+dcY2TeSkFXMFdjDpnByEJGeKZEDgVn9I9t1DCMGBhubFPpoMW3OUiIGmaVlSJg3F2EZmaTmoNpBC3f6xkK3Yk83LgrFXrGn3xkVBDtAeItBKFz1V1qRg+v+wG9DJK86no4ehpq+XOEs7oPAOPuisg83vcJpFHmaHz6Va1bQZGeRp/n8IaMwYmwmqvjvUwfYFvrV0VmFJX2jiRyUDR6DzOISiRyMyJ2GqDTzWoogx1dryqC0D3u6cfVGotVxGOZLQ1wLeRGtts++Sfb0O6OC0ENxduaiJoYNDMKkN4aRgvPrZRH4bNFw7B0ag7VvxePR58HmgvC5BxGErycHw3BUSarshe0rnXyNhfag0UQOoqZP5+RgQjaKFYkofTMBwzKyoJmQjdCsbCIIno5tP90HKQIltQazM/MlYjC+pBQROTlITko3q6Hg3mronEiQFNto7cZl2rFu+/iVsqe3pzBxeLokb24tP9zhbTVVnLf6qh5YHS4vPSj78baG0k1NQmqD1aGp/Dy83DsWDfNh0UmA1WHwIPPXqe3llUZLUEGgdAiVoxq5AyKkIYZN6aPF/uHR+GdXGAxXLdcgGE65EUHAcTc83+GOagctivtwnaUYZ18SAGmleryxmn/uXCIHXA1CtuR7oQv3ymFRX/NOVxKcVcgVdUSsGpCICYVFEjnILClF+MQJGBOTZoya2FeL8gEJpCahykEr+znpTdgiCO9kLMfVgoMAq8PmcctkT7PczBoxkeRN7bTV+GHedsn4AO0lyi9WEvzH9Bz0dEEQ8uKHedtRO40bP0LTgZEZFYwKTowvNo0raHU/ch9vR6CCQLEZJ2cVxr0RbjYg0Zo343FgRDT+uyocT78JRstlNfRX/KVvL1ijVgmIJOHzDC4884QB3JjyQp+DYtU449sDRcVSOTBhtu8oUgvR2iiRjs4qrBSFSi6ImCwVA77mICw7C6lx3JsRxYpERI8ej9CsTIRmZaKin5a+3igDtgiC+PtXc7ZCwajwgWiApfSw0VAwXOx9IQyzk4svnpfV4v2JFVAwKlzIXUsC+Ljxvfi/yd+G52W12DyuAGB1+GjmetnzwxaE43ZxNR+PRJwHRUmzyOd5sTl4XlZLog02iV5zfFB0QhK++q/FewFWR4JQ9WRBuLhkP8DqkDl0rNm8U1OqJcf1vKwWk4ank89CtElDZR0Cvbj71O6sYsk62zIKzYJpyX3MHYEKAqVNHJ1VSHtDGlq4pn88PsqLQNPf6rYloDWu+UsEYc0b3D48nfwROTCY7C9L9AZB2KSJVuVgll+KRF7GvmF5lEhHRoWVfYxyMGPGYitykM3JwPhMDM3IJGIQmpWJrGFjyfoaBe2D0J20p4kBrA6BXlxkyxdlZzEtMgt/84WZglHh1vLD5LMQNlnBqPDz/J0wVNZB5RGK87lryPSf5u8AWB3+WrwXtwuPAKwOQ3p4mGVxvrQ1ryx5Dvm8MG4qEaQDE7mogMKARUL1vIJR4beFuwBWhwvT38Z1ftTHniwIreXFOV4KxcvmRIyXrHdoYoVkG0LeKBgVpgwfT66Pz/M2U0HoJqggyIC7k5+kxmCdczwefBhitcmgfXLgB0PdYCIHLYdF/Q9EkQvLXVMlhbY1ORiamYW5Q0ZhiTLZGArZwfKTfSI/kFS1gxYzcxeZyYGwr5ELFyB58WKMXLjQKAeZmcgcPoasP+mNYbKfp96GLYLwbf42gNUhxMfYSfXtMYsl4uDk4gsXPtTwJL59/jkfk9+SaAxSBhBBUDAq+AwOAVgdZkRNkD1P2uJVBEFYLi00lXwXCwJYHeoLj0q215MFQUi7I2P+KnVbgjA9KhsKRgWVRyjX70AZKBEEQZCE9YWho+U+5o5ABYFiFV9HNak1qOmrxbV9Q19NCK74iT5Law5w3A2HgiP5Ape7oQuREsWCMHLR4labF4T+CFV81f9sK684FvWJ5WSkbwLZ9uTSMkwrrbAoCmI5mO81ythn4f96/pPj64itTQziz8cnV5HPaq+hAKsD48p1YDVU1pFBm8aGppJ1b1roxCcWBI9BQXYjCFeWcv0xzkytgYLhmlP+4ceQEOfTxzM3mglC1tA0KBgVzolqUkwFQfjszA+R3JMFYXniTIDV4WnJGSIJvy3cDQWjwrEc43Xizg9rLRaE4zlVUDAqjAsbbbEGQahNEYKm0RqE7oEKQjfi7uRHOuBtGRwH/ZUONCVc84PhT19jR8Qr/sBlPxg+GCwRAxx3Q+P+QaT2gOH7DUS/FcJN62csxKNyp7cpB8UKroNieR/rfRAqhLci3Mcgs7QME0rLgC1ngS1n8W7VRsvNDJmZYPuZd8ZsrZ8DpWuwVRAqU+YBrA7vZqxAKf9k3FxxngzGIwjCrqxisxv5pGHSHv+mTQwKxr4EQcGo0My/eSCmODkP56evJd/Fo1sKgiAevOjW8iNQMFJBWKLNNdtuTxYEBaPCDVH/AIF/luwjNQNixIIgzotmfnApsSCIr0FhGSoIXQ8VhG6kko8iuMElrmO1BX/5mUlAa6x7S2jGiEdJnzikvhkGlaPa2AehWHi1MdeqHIRlZqOyv/VAS2LK+OMr8xxLZABbavF80ylkieVgQrak38Gw9EwkJ46TCIKvgoag7W46euPydg/GmNCUdq1TOnI2Zo2wDwGwBXdlIE5NrcHq1IWS6UHew5AdPk4yTdzEkDM8A5F+1mMbODG+WDvW/san2J1VjD3ZJZJpjowKK5Nmmy0LVoe8ERMQ6RuNKbw0WKM6dZ7F1x7tCSoIFDNG8E/u1Q5a6C+3s+bgqj9wcpDNYmA4JpYDy1Q5aFHiPhpT8pYgNm+2VUFYqkxGkVMiiX+gbGUsh2X82wuVzqOIIMwrZc2aFrT5+RJBECgZmEhrEGTEnm5c9oxpH4TejiAIcqeju7Cn3xkVhC5G5ahGYd8Y0rTwfVthkk353rtdtQYN2zywpr9RDm4t24FHZQfxaWIBtjiPsSoLFf21yBo6BtFjxqPKQYuoMZkSURip5YIZBbXyZJ85INysD8L3b+/Hw00nSA2CQPTMmUQMwjIyUTIwgaQnjL69IAv2dOOyZ6ggSKGC0HOhgsCo4MRwnfc6c5sj3wwlYYwFVvWLt/1NhWv+wAXbaw2eveeBbe7Rkv1dWfAO6QMgYNhci+fVR/DFyGVY3S/Rag1DZV8tCZSUGjeOCI5bK00MQYoAPgKilojAR6t3AFvPY0f1JjItLm8WkYOpQamSEMt+jrRpQS7s6cZFodgr9vQ7o4LAcIF9qhy0rzyssJOzCtlvDJPENqh20GJ1P66D387gGNs7Ip5WmjUbHAiMxIs97sBxN+iPuKFhuwdORQ/F6v5xkv29q8xA8/pTZnJgSRZaNp7GLxNZrH9rlMWaBaFpodpBi2V9Y1o9/kBBEEQ1CC+31OKD1TtJ88JQUf+DiLQMLB48EhX9jbUHCtq0IBv2dOOiUOwVe/qd9XpB8HI0DoQ0dGAHO784qzDaJOhRtYMWJzUz0bjmGPb75aDaQYu/t4fbGORIKgf6I0qsd4rFbp8Y/GdiMDYyMWaF+ao+WpyLWYDGdSfbFANrvFh91EQQjMdT9X/xCFEEtJoPaW8MlbzFMLG0DHmllUQWhpp0ThS/5iiIiLOT/NdEb8WeblwUir1iT7+zXi8Iy0Rhgef1G9Hu9TWKQEnQo9X9EvFV6groN54hBe/aAVyQocY/2+iceM0fhtPSZoVnOwajpq/lZoCavgnYPWQiHpQfgGFTbYfFQKA2al6rHRurHbSo7BOPIEWgxSf9FXwUxXlj85BZWoaN7AZg63nMKatCZmkZtLNnm8lB2PhMzPRPpTUIPYC2blyOjArnc9dCX1mHf1ccxZzoSbKnWcGosCerGG+PWdzmciE+w3Fq6ioJ0f4dD+c9cVi62fZOTV2FcFUU9+pi4ZEObVfYTlfl197sUjSWn0NDyWmsSl3Q6dtflboADSVn0Fh2DvsnlMl+fSgY7m0SW/PU0jntzLRQQbATnJ1VJkMMtz7OgBgXZxWWi+RiVR8tfsgoAzabF7yr+3NNDM2/+bUuB2elNQf31nlZLKS3uIzF1UXbYLCwr45i2FxLtv/d5mPYrpmGagctPklahncY886NFX3i4O1kjD/vJMrL7BXFyCwtQ0nlalRUriEdFDOKiokYjIofh0LnJEn+T+7kfiCU9tHajSvEZ7jFKIg+PSAccn3hEXw79902l4tVx5mlf/zQMR3eb0nybIt5khyU9EqC8KpBgMDq8PuiPa1uW8yrDC5lil4Uz0Dg5JSukx1bGeEfa3OeWsqjzkwLFQQ7IfEtDaodtFjnPJoUUqlvhrW5XsTAYEn1+9lhc6DfdMZq4VvDdwZsOeoGfOsNXPI163OAM1I5uLN6iFmhvMdnIl6uPdFpUiBmkxOXB6v6J8Kg1+O305+g2kGLNf2TYNh8Fs+rj2DDQPN+Cvn9ouDkrELqm2GodtCCfSvJYtTEhLlzEZqVRQRhhVOSZDsLO1B7Q+lcWrtxCYFsvNyNQhCuMp6z7PBxiPCNBpsyF84ufvAZrMHOzCKsGb0Irm6cSKq9hiI7fBycXXyxLaMQYzQpkvVDfIZjSXwuqlLmQcGoMC0yC5Wj5krSMSF8HM5Mq8G0yCwyTSwIjgz3BLt+7BJ4mgwzLAhCRpj5YEKrRy/EzsyVCPIeJkmTl3sIKkblI1e0P1NmjpgAsDpJPANBEBbGTcVS7XTJ8kNVUdidVWx1m9YKpdnRE3FySjXGi9Lv6uqPbRmFKEmeDWcXP2SHjwNYbkAj0/gLT0pOA6xxQC0Fo8LBieUAq8MXszeTY44L0CI/JgcFJumO8o/F/gmlyBmeYTHdOn7QLnH8A7FAZoePI9uv4M/rUm0uDk+qQHJQkmS5aHUc5sVOwcL4qWR6VngassPHIco/FvuySzB4UBBUHqHYP6Ec4aooslykXwwOT6rAyqRZZJqpIGSEjcGJKdXICDMXRLA63C86YTY9OzwNZ6bWYHpktiStaaGjMVozyqZarLZ+Zz2NXi0IwrDK/3z7M75cc4B0zGOs9NR3clZhST/jmwLvuIxFy/q22/xr+nKd8FoOi948uOLPxTf4TQXDCekbCffeltYcvDvItk6HHeWXqTVkX/f/ugZ9Swv+vXSVTNvhmYU1fDPJn9NWY21/aeFexVPtoMWMqQvNBGHkwkUW+x5kh48hNTdyXwsU2yMpThyWjh/nv4cf57+H9WOXSOaD1YFx8YOBb4YQx8zPi55k9mQWwA/4JH6aNf3czI92uI8f9EmIy78nq8RiOvWVdbhWcAgPTG7ygiD8vGAnPs3bhE/zNkHBqNBccQFPSk7jWSkXxdBdGWgxTV/kbbGYN9YEQRL5r5w7hopRcwFWh+/nvovG8nN4XHyq1bwW+CxvE1oqLqCeH8hqWkQmWfZ+0QncLzqBE1OqW33ytSYe4loEYRmhJqCx/BwUjArvZqwAWB2+nfsuWioumOWtgjEfH0G4Rn6c/55ZnhzLqcI/S/ahsfwc7q08DrA6JPGSYC0NTeXnza4RMU4uvnBz9QdYHa4WHCTLmaZzDx/h89cFu2CorAPj4meWH03l58k1UjlqLraP547/Gn/tHZlUafW6fZXfWU+jVwlC6pthSHkzFE7OKvg4+nMFXB8tbt+6DUOLHqv5QnC5hd76Lk4qSV+Dn7MqbC6AhdcJmw8p23xd8cWewaJmiwTUr9jVZWKALWfxoGw/2d+pCWUAgMePH+PWH/9YbN64U7QHhs21+CR+kfn8PsbojISSUoRPnGRREIaOz+RqHagg9AhsFYT8mMkkdLBQfQxWJynsGFc/jA1NxZrRCwFWB6WbmggC4+IHR34doZAGq8PX+e+Y7es+X3gI2x3iEYol2lw08E/DltJpqKyzOOSwpSYGYV6oTwQqRuUDrI70rQCrkwjQC37AKVOsCcLT0jNQMNxol8K+wOrw4/ztmB6VjaXa6VaPwdJ0P88wMt7Bs9Jasmxz+XlEmOzbUhODrYIgfBaESZj+Wd5mTI/KJk0rptvRmxTIjeXnJIW0pf2rvcKxMmkWwOrwn9lbyHINJaehYFSSkMqCICgYFWqnrSafhwzWAKwO/p5c7a+7MhC5kVk4n/u2xXT+sXAPwOqwN7uUDDduKZ/EMiPsZ7F2Gh4Xn5Ick5BfPy/YYXF/7fmd9TR6lSAs6DfCrFBb/UYy6uvrYTAYcO/3K2T66DeMTQ3+CuMAS2sHJLX7aX7NAO6J+8UedzxY62NVDvSH3UiHxLffGgnD5lfveNgajyoOGWsp/Cej+d4jwGDA3Zu3sGvEbIuCIG7i0G88g60W+idMXLrC7JVG8RsLAjPVKVQQehC2NDE4uRhr10wF4Ru+gPfix1L4cf4OTI3IBFgdIvyiiSCI1/9qjlEK9vI1AuKCRBikRzy9JHm22eh+YsTjAYinW2picGR8SYGbxxf0m8YVkP3Njc0hn9srCEIfBLHMgNXhUfEp/Dj3PYLp9qw9/bdUXMCS+FzJU7UjoyIFllBLAVaHPywIgpCOGLXx97Zu7BKuZiB/G1n37srjUDAqPCg6IUn33ZXHW03313PeAVgdFsUZmwVM5cj0/DeVn8f8uCkAq8Pfi/eS6ZeWHoCCUUnGsBALwrqxi8lnT/dggNUh2Hs4DvBNJienrALLjxli6ZxtSltKxtAQarHE6TJtYmjily0fmY9LS/dLjuklfy5O8jU4r/I762n0KkGYZ0EQqvsm4PatW2huagIAfFSwlVSbhygCMeaNMFJ9vnNwRocK7cMh01HtoMU+/ygcHhphNTzy+oFcPIOtLmkwbOo6McCWs7i28B1jp0fHVNLh8Wn9fazqm4BVAxJxePQyNL14iX9v3EK10Eyy0fz46xduxao+0nydM3qWxVqDWb4pZufAln4flK6ntRuXMASzKZYEIT8mB2B18PUIxe8Ld3eqIOgr6+DNFwjWnoaXJcy0WRCEkQVnRk1ATeqCLheE/85/D2B1ODChDM9Kz+BqgfngS6Z5vHbMIr7Q340I32iJIIDVYbQmRXK8puemtW1bKrQtCcKVAm7Uyu3jC9FYfg6Xlu63mBetbd/Svk5OqUZa6OhOE4TbfBOMs4svXorkRMzS+Fz8OH8H5sVMBlgdhvtGmx2DqSAI156XybVHBeE1YgIfCri6rxbbAnJIobfebSwe3qyH4e4jNPznR5wOzyNt40Ih9mnCkg4/0d8t3ku2s8Ex1qIg7PWL4uYrUrq85uBs9HySns+SCgDR/lqePEXL46cw3H0EAGh88hT/3rhJlre2zZYNp7BBFGypykGLZUyiRUkYE5NGlpvWP0L264LCMXfe/FbnuysD8aT4NLlB/jx/B5RuXGwMsSAoGBX+XLyXf1qN6zRBEKqSn5aexh+L9li8GW9MW0rWH+Khkcyz1klxQxr3FF02Mr/LBUHBqLAzq4ikUeURarY9S4KQGJgIsDpcXLJPIgh/LOIEzFBZB8aV6wwqvGb50kJ6nVx8SWEPVofT/DDV4n1bEgQFYywADZV1ks6qphyZxJLt6ysvINh7uNl5VTAqUrv06axNnSYICkaFp6VnAFaHLL7Dpmn6/DzDSFq2pC+zmP+mguDjzgnys9Iz+O+8915JEBYvXiL7b91WepUgaBSB3FsLrmNRf/s2DHoDHl+tx+GUAmwdMgHPfr+Mho++g2HLOcm4BRdz175SgWzYXIs1/Y1hjRsPSGMdHBs+nGu+eCO51bchXhX9plpsdU3Dqj4JOKiahJa2gioZDLhz6zZuX7nOd1bMRMuGM9YFZnMtvkoplNQOlA1I4JoUTCShmB+YycvRX/brgsIxekzrI+lRKJRXJ2/2XKgComXD2y8STiYdM63RqwTB2VnFFcSKFNTX16O54SkMzc0w7PsEhmP/gWHvJzBsPYdjYbNIAXd73hbJE3ZHuVmwg2xzs2sMDMfc0HLYDds9uFgKq/snomXj6S6tObhfuh8Pi/dajNVgStOZr/Hs0WNc/PonHEhdKin0H5Ttt77u5rN4uHI3VvUxhk+u7KfF0IzxCE/PhDY5HfO8R5JmGx8qCD0Gl0FqMEp6PiiUrsLJ1Q8e3hq4KNWy4xcYA2e31n/vvUYQghUBSHozFKxDPGr6JqC+vh71t+sBgwGGreeAreeBredxdoSx+v3a7A2dWkCfisi32PGvpm8CmrrwNcaO0PS4Ae8G5GC9Mg1rBo5EzQDjq43Pao61uX7zulOSWhNLzOkXKft1QZEya9Yc2dNAobyuTJo8TXYxEDPIIwQug6yH0O81glDQVzrSYc2AJByfWoGGG/8Cuz4Etp7HN5nlxtcYs9lOL3QNm2uh0y5BtahD37qBo9C8oWtrDiw/6bdeK6Lffh5NNXs5kaqvx40r10iabW0GMWw6YzbENNtHi4X9ouHpaFsVF6V7iYkfCydXem4olM7G0cUXcdpU2aXAFG8/6/3Aeo0gjOEj/a1VpODjyp34YuP7+OOQDrc/+A6GT3/FjYL3SCH2YeyCLi2cDZvO4PbynXhafVj2mgIJm87AwB6Aft5a6GevQsuCt1FfX4/bt29jk+d4VDtosU2Z3u7tHvKbLOq8GN/qkNEU+XAbHAQXpRrz5nV+fH4KpbezePES2WXAqiSoLIe57zWCMMjJjwTzuXX9Jnky1s+uwcvSPeSpfq93dpe/RdCj2FwLw9vHoJ9TA/3sVRKe1H6G27dv49ikMlLAN63rWFPI2eFzjLUIDvFWo1VS5EMVEENuGAsX2RY2lkKhtM28eQtkl4DWUIdoLaa71wiCglGhtA8XZ2DNwFG4ffs26uvr0TKnBmv4SIdr+yfKX2DLhKkctOTX4PbNmzicbnwr4aecmlfahy56gbHjokM8nOjIjT2KAE2C5KYxd94CKD06OAQ6hUKBq3sAFi5cJLsAtIV/sOVgdb1KEFydfUlsg3f8J+H27dvYHzLNGCXQhs53ry2ba6Ev2ILHU8rw58jF2DEoncSJqHbQ4nREfqfs54OYhcZXIPt0fKhdSudjKgguDiz4LAAAIABJREFUSjXc3ANQUFAAbxUNZkWh2IqHjwZLliyFtypM9sKfCkI7CHAMIAXUmjeTyedfJlbKX0j3AD5MKjB72+Dk8Dmduo/jfGTJagfL415QZPptWBAEMcGaGEzLnYnFi5dQKBQLzJg5G2Hh8bIX+FQQXoFkvsOiwCZFquwFc0/CsLkWP+WswrmYBV0zvPTmszgwZCLJ/ykDaDTFnkBbgkChUF5PqCCYUNCXC1C0qo+2S4dSpliXkI0DU0hY5qEDaVu33FBBoFB6J1QQRLg4+5Kn118nVsleWPZW9BtPk0Geqhzi4UI7LcoKFQQKpXdCBUFEJd9RcU3/RDKKIUUeXtYcJZJQ2YcO+ywnVBAolN4JFQQezcBAUnvQUHFI9gKSchb/zHybnJNJA4bJfo30VqggUCi9EyoIPELtwTaXtN4VEKkHY9hciwM+E4gkeDjRUL9yQAWBQumdUEFgVAh2NNYeNK7pxTEPeiCGzbWo4UeALHOg8RHkgAoChdI7oYLAqFDZhw+SxIyRvUCkmHN3uXFI7BFvhbzy+VY6+SL+LQ20b2ng7eQPxx5wDfZkqCBQKL2TXi8I3o7+pPAxtHf0xK3ngE9+Bp43wtCi57h2B4bDX8Cw64PuKUAPfw7UfgtDix7QG2DQ64HGZuCzX2F455zshXtnIR790bGDbzU4OZuP3im8KZHyRigVBSt0tyCofYbJfmOkUChUELCULzC2OLez9uD894DBAAB4fP1fXK77Bje++BmNT54BAKA3AB//3GUFpmHHBzD8dpXbl8GA+39exR9HP8Zfpz7H4+v/cmkzGGD4/DfZC/dOOd6NtaRAH/9GeLvPszictjVW9I2V/XrsiXSnIHh6hGB+0kRcWn5E9psjpfPx9w7HqrQlaKisI1wpPCZ7uihWzldvFgQnZxUpHB6V7be9wPrrJgwGA2598xtq+AGdxGwclI7mF41c4b1D1/kF5tZzXOFvMODLVftQ3de8sKsZkIirH30Pg8EAPHkuewHfGZzQzCBP/O2pRWCcVRI5WDNwFC5d+A8eXLyCDxavJSN2VjtokdkB+Xjd6WpB8BgcTD5fLjyC2NBQ1JeckiwzJmwMDuZUy37DpNiOclAATuW+LZGBm0UnsChpAhI0GkJDZZ3saaVYplcLQvSbIah20GJ1vwTbC6qDnwIAvt18lBRW+UwoRvoOxmhfDxS/MYIrbPoloLmxCWh40flP07fuw2AwYLNXFpeGPvGY4RaEJH93JPm7Y4FTGKr4fhVnZ63mROVZ56eju2lZf5oU5Klv2TZIkCNj7GNS7aDF7uGz0PjkMRobHuPOH7/j5o/f4/m9e1jFi16VgxYuTnTIaTFdKQhfzNsONi0flwuPwkWpRkNlHRGEgqQ8uCjV+HL+NsSGhmLX5CLZb5gU21ialCcRg4JROUQIcjPG4NeP9uHh7+eoIPRwerUgFPflhnm+EDXP9sK5uQUvHj1FtYMWK9+IgtZfCa1aCW3gIFz88zcU5eVgvLcPqh202OA6FjAAhgMfd54cbL8AGAz4rGg7qh20KO8Xi4naYXjy4AEO79qG+AAlh1qJwoERqHbQ4ta3v3EtEZ/+Knshb5Wv/iRNNgaDAYbv/7G43B7+tccqh3ib+gws7RdD5ODQyMVobHiMlw2PUf/rz7h/+SJeNDxCY8Nj3P/zIlmuoB8dKEpMVwrCX8sOITY0FEWpubhXWksE4X7ZWVK4xIaGIjY0FF/N3yH7DZPSNl/Of4+cuz2TiokYvLj8IVqufyKBCkLPptcKgrh5QW/rmAt7PwIA7AqfBbZPPLT+SsT7uyHSyxlVyxaQwm1xbiZmu2hQ7aDFw0s3gcamzitI/7yBlqZmVDtowfaJQ2KwB/QGA/TgCtcRPq6I9HRGnNoN8WolKvrGYs3AFNJXwbDvI/llwIp4if8MBoPF5ZrXniDnLXRgYKvnONAxAFX8sm8zo/HyySO8bHiMf3/7FU/v3UHjsydGGh5jX+xcYy0CDe9M6EpBWJw4A1PjxiA2NJQUKreLT+Kf5YfI94SwCFqI2Amf5m8j5y05dCgSNBrU/3jKTAyoINgHvVYQhiqCuLb6vom2F2QvGmEwGFDTNwFTB/tDq1Yi0ssZkV7OiPJi0NTE9Tv4/INz0KqVqHLQ4ui4FdyTcWcVpk3NuPnVr1w1+xBPjA73JYXqd//5DJGezoT4ACWyvDgRIn0iAODfh8CuD2WXAokgNDyHiSEAW87BsPW82bLrBnDDcS/v0/qTvjDwVrWDFo+uXEPjsye4f/kiHl25LJWDZ0/wsuExnt+/T/ojzO8XJfs12lPo6j4IDZV1+H7RDkyKSUZcqMaMnZNWkkInKsD+hsztLcyMmWyUOr7WoPnaxxIhWDwtCwkaDRUEO6HXCsL8vlxfgXMR+W0XYLs+AB49BQDy9D56iIdEEARJGBOkQvQQF8SrlVg2cDg2e4y3+jTcfs4BAD5cvAlVDvGID1AiTu2GxEBvxAxxk8iBIAgj/QZz4aNv3oXpn+GzHtDk8PnvwA+XYPjwJ3NBaGw2fha9NvrzJJY0Mzi38qQvdEw8lrECjc+e4Mm/t/Dv77+ayYFYEnaG5barCaM30JWC8MuS/XwzggaZcWrozzugfLIn9OcdoD/vgIu7ByAuVIOMyDhS+OzPYWW/cVKkeHloJHIwS5smEYOPj2xCfEgIvk+agTVRqZ0uCGHDbL9GDxw6Lnt+2Qu9VhAq+I5rD0r2tV6AXb8nKbf0LS2odtBisru/mSAIjPBmoFUrkesWiLVOqdyKnfGUvZUThGPjVqCiXywRBFMxiPR0RpQ3g/gAJbI9uREqGx8/k5a/P16SXQ4Mf9wwkxarf3o9WU/cWTHxLY3F8+vnqCbLPL1zBy+ePMTNH7+3KgeNz56g4U49/jqnI+tl0TcaoGC6ThCmjMhGQ2UdRoVHIG+0CvrzDjhW7IR4jQZjo9REEvTnHRAXqsGqcXNIIfTNgp0d2mf6+GkAIJkGADt3H7Rp/TNnLkDlP1z2G3dPQzgvKWHDkRERgyeVF3Bp01E8rryAnRNXIEGjwU/Js/BT8iycipuIe1VnJYLQUUm4cfMWjp+oxZRp+bh2/Sa2v7evzXV+/e1P2fPLXuiVguDEqEjbdMvGM60XYlvOwvD+Z8DLJlJWrXdLI30QtGolYlSuxloEb2eu06JaibnOGmzyyOjEJgZOED5auhlsnzjSITHW3w1Rghh4OSPW3410VKzsE4eaAUlcLYbBAPx1E+gpAZT0etsFwUSy1g5I4mMXWG5mEOJb7AidhsYnj3Hzxx/wuP6m5ZqDp4/x4NoV3Pjvd3hw6RJWv5FMahHkvlZ7Al0lCA2VdbhfdhZxoRrcPjuCnOZ4jQbxGo1EEB4c7Yu4UGNh0lBZhw/yNrd7n+njpyFsWCIKV1bCRalGyugJyMtfSgTBdVAAxmdPJ8v7BUaRz+qgEfD2DSffR6Zmw8M7VPabuNysGMmJ26XCw5ICv6GyDsdyWSRoNDgQm0kE4cvUeWiorMOXJ7YjOXQoWfbqyvY92ReuYLF23VbJtMePn5BzJZxPd88Q/lxGwkVJBaE99EpB8HbioieuHZDUvifev24CAB5duc0NQ9w3Dql8U4Mpo3y5qv23nVI7tw8CgEPJS1DtoEW+i8b41oIJ43y8wfK1JFc//oHroHj2O/mlQJyfTc02u4Hh/hPJuuci57YaWZHEPeijxUeFm3Djv99ZlAOuZuEHPL1/By8bHqHlo//iXPhssm13OkBUlwjC9wt3o6GyDguTs7F1/iBynp8/e0YEoan8f6Gv+F88Kvs/PDrSB3GhGhSPniYpgNq73/Tx0+CjCie1CI8ePYabeyARhJ27DsBFqYbBYJD8HzNuMjKzZ+D9IyfholTj2PEz8PQJRc2aTbLfxOXG2LQQhuLUXMn5SdBosD99JpaGJxBB+GvmejRU1iEvPg0FI6d0+HzeuHELnj5SQZu3sBDzF64g5+36jZvQ6/VwUarJOaeCYDu9UhDSBw7jXnvzm9z+Qu2/lwADcLnuG6zqm0DeJijpF4P5TCgWOQ5FJf/6ZE3/JHywdIvFPgiGzbW4X7IPR0Km46OkAug3tV6TQTAYcOu7P7BxUAaJgVDZNxYFimFY8WYkKvvGkRgIq/ol4mLtl9yd948bsguBGV/8ZpsdXK43W/fWkndJIT7IUVqID3b0MwscdXjMUjQ+eSRtUrj7L27++AOe8DULTfX/AlvO4vbS7WS90W/aFm/hdaYrBEEoEOJCpTUFghzEazR4XPR/0Ff8L2HOmCGIC9XggegVyPbuVxCE8xc+hH9gFL7/4SeJIBw5egqNTU2kgNmz930M8RtGnkwFQUhMHg8AWLdhm+w3cTlJCU2RyMCW2CzyfUZcGvanz8Th8XlYPiyRCIJ4ebEc3Cutbde+v/32B4yISZVMO3r8DMIjk5EydiJ81RFobGzE06fP4KJUo7xiDVyUVBDaQ68UhEUDuN7t/x1f3rGC7XOuYNM3t+DcrNXY4JYmKYzWu4zFF5V7uBgIzS3AiS8l67dsPI0tzFiuEBeiIPbR4oEN0RwN2y9wkREBvLj/GLsjZ2PNwJFk36sHJGGr70T8uP20Ma7AvScdO85uwPDDRRgePgW+/6f1GoT6h9J1N9diVR/LoZdn94/kIlo6xePE8FhSm/DNuoN4+fQxXj59jH9//xU3f/oBL58+JsJg2H4B2HIWzetPGWMi9I2W/XqVm84WhHeyitFQWYeH5ecQF6pB01lODh4d6YPUMDURhLsrHCSCMDna16yZob37FgTBRck9UXqrwokgxMSPRVX1ejJPWKe+/g6+/fYHuCiNgiB0ilu/4V3Zb+JysiXT+IZJcmg4csNicHP5YTypuIBUzVAcHp+HQxmziByURyRzzQkrjpoJgpeHpt37BwAPb2692PixePnyJZn35MkTZE6YgSG+w/DzL7/BzT0QLkoqCO2hVwpCEf/6252VuzteuG2vg+FFk7EQ1uvR0tTMDZoEcNPrH8Kw1bTm4CzWDkhGTf94PDsVBnyuQVOdBusGcoXYY/aQbQXriS8BUewAg17PDdREJhiAFj1w77HsEmATz162XZNgso5Qg7PMpB+C0LTy58pM1PTXwtVJBZaXhAcXr3D9EW5cM3mD4ZHoHBnlo4IOMd3pgqCbvVlSg7B1wSCuBqHif3F/pbEWoaH4/0kEIS5UgwVJmWTdj+dsbfe+U0ZPgNeQMLgo1fj7n0twUarh5h5I2rJ/+fUPXLx4GQcOGscH+OOPv0lV9jvbdsNFqYbKfzju3LmHOt3H/7+9836Pomr7+F+hsrvZOtvCpjdYSnYTCC1lA6EX6R1Ck6aA9BIggAXFDhYQFVQERPGx6+tjAywP9gIWUGlRbCTf94eZOXPOmZmQAMkm2eN1fa+wu7M7s3PWuT9z17hfxOOpHuESzQOw5iBi+Voy4rGKGbir71jy71VFFfjPrDs1b8OweeS9n96y64qP4dtvv8eFCzU4+DwLjCdP/mj471defTPu5621KCEBQU1QrL392as3bA8eBr7/BTj6NfD7n6g7fR51T71puv3R8RvlssPdMhyounSH7Bbf4ugHbDvY8P3fewh1O18F3vkMde9/ibrn3wMeeBF4QN8/oMXqvkN6GKi5CKX3kykgbLL1VYy49iMO+vPI3f/Z7ROxxNYHExxF2GRTRnrnjsYvX3yuz0c4+SPz2Xd6BohExSYChGBICzFsGDZLCzMoIFAWyZeTFCk4eHB0MkqoO87z616M+8VTSNbZtYfIuny//GkcoQDhWMUMxCL5KI9GcPuNc1BTdRivzdmGWH6+WMtWoIQEhI2WGKotseY3hNsOYkdIDkdceraLBgivR4Db8rBJMWx/33Rb/I12swLCC3pA+PpnuU+D+t8n3+ve92DycJ0Rr3BGCSC8OWE4Yq58bEqK4Yt5JXggVYaECz/8qAOEf79iP39Px4kCEJoQEJ6esllrpZwfRVk0n8DApbXXY0X/VPJ4fnm2nHtAGaLkFnDxFNJEhwpqqg4zgEDnHRwauRTlkQiO9qu8qvJGoeZRwgLCJlsjBjRdIzg4WjaXGK8L6ztrgLC9I14r6U5eq7bE8O+CO4F7GuFJaO365bwGA7V1qLv/8qWYz3WdRs6ZL5ALr18LLxwaMBSPhPtjo1X2JOyPDSbbHpy2XgcI//zyC/PZrxQvINvH+/cabzVVmePJFc8SIzG/72iURiMY0r0zVg9Mw+qBaRjcvTPppvjL6gNk2/zcnnG/cAqxap/SqV5AOFYxA3tLxqA8EsG7fafhnam3oabqMFJTu8T92IXMlbiAkNSIFstXqboNu7Evbxw228qxv+M4bLTE8GpxEepezwf+0xX/btSy7r8duhh3uiqwyRbD54NuQd3G3fE33s2lh/8DPPYq6hq4/aHeGnAl+/Mw1qFB1m/3T8Afuyfh98cn4anuA3GrtRjJ/jyss5TiNs8A/F1znuuFICdy1lU/gUvz7sDbPSvJZwUSfC5DU3ZSPLH8GWJULqx7Ee8ueACDuvVBWbQ7Ng2fgxMr5NffHzIfNVWHMa7nqLhfNIWMlZLaWetREZuEYxUzMDBSgIGRAsTy81EeieBIv0q803caaqoOI5zdPe7HLFS/EhYQNjcnIFQ/idqVO1A7/07UzqrGHY5+qLaWoXZLHnB7HnbnyE193iuehdpZ1Zrm3o66DQkECI3US2ULiRGfa+/NVJL8sXsSLj4xGX/snoxNSTGssZZigyVGkg9rfvgRZ779Bj99cgwnj3yAk0fex+lX3kDt4ntRd9vTODpyTb19FhJJTT2L4djNjzF3nxfWvYi3R6/A2/0qyd3nubUvoLJ4QtwvmEL1KzmkhRterJgp5yDkR7C6R38m3NCtQ5+4H6vQ5ZW4gGBvPkDgdXrZI3JtfrgX/qqSmzbd7RmA2pu2xN3otiYdLl3IQAGts9sn4OITk2VIeHwyLjw2Cae2DMXzxSXYaInhmzffxA9HP8DZ77/F+Z9+wF/nz+Lv81op5afj1HkPcvgi3r/ZtgwIwVAY945eQQzLV3Puw+EBs/HykAX4Yt521FQdxuiiG+N+sRRquP4z6x55Lec+yIQZzq09hKyMxpczCsVHiQsIzehBMNLDWWMYg3ZxahVw1/64G93WpEM95jDncFOSnHtw4dFJBA4uPjEZxxaOQnVSjDSQ2miJ4eKvv8hhBl4//gzcewgfTaimQgx5cf/NtnVACIbCiOb11iW71VQdRo9wSdwvlEKNV9/8CrKGx+dtx4lGtlIWir8SFhCaMwfBTLs7T0a1rRzvF89G7ZpH4348rU17OkwkRvzL1aNR8+h4nNoyBN8sLsOX84px7sExuPjEZLw0bChm2nsi5o5gfpIciqg5+aMxINScx98XzuG/qx4kHoR4/17jreYCBFULy6fjrZsewJ0jbo37BVJIKJGVuIDQ3FUMQtdcdym9CjZaYvjfrD54e0QxHkgrxRZHDFscZThzz424+MRkfL9pHL5cNQZPRUrkHARrTA4pmAFCzXkcnLZBbqMtyhybHRCEhIRahhISENZZS1FtjUMfBKFrqk1KJ0Uz/b5zEl4YPBRVljLc5e+Lj6bJyaCb3f3x9wVzOPjrwjk8lD8ZGy0xrLWKTooCEISEElMJCQhLlFbL/972TNyNnNCVS61IMNNzZYOxt+cgLLb1Qbq3A9Za5CFaz45bgZNH3sePx47g3InvcPHMr/jrwjkCB68svYt8xlRHUdx/r/GWAAQhocRUQgLCREcRNlpiOHXrw3E3ckJXppq1u4gR32ApwyJbH6T5OiDFl4fV1lLy2rkdE/BAajnWWUuxwlaCjdYYfv/5Z/x14Rz+/O0XnDzyPtEPRz/ETx8dw67SOaiylCHFl9jJiQIQhIQSWwkJCN2kLthoieHtQcvibuiErkwvUz0Qpjh66NZ4nQIJW+xl+GJub9zXXq5g2DtiWb3JiX+dP4uv/vM6NlpiWMoNgUpUCUAQEkpMJSQgBJSBPvcnD4u7oRO6Mm2x9yOAkOPtqFvj9r48MuZZHal9mzQAZ7/7ut7kxL9rzuOjhw+IOQyUBCAICSWmEhIQpIA8/rfaGkPd3QfibuyEGqe/N+9lcg3MOh3Os/ci29zuHYjfT5/GySPv49cvP6sXEO7wy3MbqgQgQAoIQBASSlQlLCAstMkZ7b8ufyTuBk+ocXquYAYx/Attfepd5/WKF+GOwGBS2vjn2d/ww7EP8dc5fanj2a++I5893ikSFKWAAAQhoURVwgJCV6kzNlpieDA0Iu4GT6gR2rIX1ZT3IM8brnedc7xhsu1D0akEBC6e+RU/HP0Ap/73Mf787Vfy/D3ZY0iDpETvoKhKAIKQUGIqYQHB588lhqN2q2hx3Cq09TnsyR5N1q2hPQpi7gh5z715Y3Hx7BlS0vj7qZ/w40dH8NPHx7B/ylqy3cyknnH/jbYUCUAQEkpMJSwgSIFc3JQkx6gfS7sR2HYw/gZQqF44uDi1isk9KPR0afBaj3J202Y22Pvhva1P4PefT+GvC+dw7rsTuL/jePL6ektZwg9ooiUAQUgoMZXQgJDq60CMwp9zbou/ERQy1m1Po3ZWNba6Ksh6rbaWNHq9y9wRUtmgim+2tN5ShjRfh7j/NluSBCAICSWmEhoQpEAuVlrl8b93uweg9ua7428MhTRtO4i6lTtQO6sahzppg5k2XEUTo2R/HhbZ+mCDQefFW23F8JtURCSyBCAICSWmEh4Qcqkktm+HLkbtwrtFuKEl6O4DuHTTFtTOqsZPI5cxhnyko9tVr7vPn4sOvjAq3FFEpc4ICjAwlQAEIaHEVMIDghTIxQplNkO1NYZ/ZmzApZu2oE5AQny07SDqVm5H7axq1M6qxh9T1jFwsMLW+NCC0NVJAIKQUGJKAEIgFwGfVtFwp7MfLs3ciNpZ1cCWPfE3mAmkug27CRjUzqrGH1PXcfkB5k2RhJpOAhCEhBJTAhAUxdz5xBAd6jRBM1SzNwF37ou78Wyz2nYQdasfZsCgdlY1Lkxaw8DBBksZAgIO4iIBCEJCiSkBCJQWK90VN1piOFY+lzVaszcDG56Iv0FtK9r6HC4tuFMHBrWzqvH5gIUcHMQEHMRRAhCEhBJTAhBo+XNRZdPK4D4bsNDQgNUuvgcQMxwap20Hga3PoXbRNuNzOqsal2ZuxMHweC6sUCY6GsZZAhCEhBJTAhA4+QN52GQtJwbqzW6VpgatdlY1am+9D9j6XPwNcEvUXftRu2oHaufdXv85nFWNv6avx1Z3BQMHS5LEuOWWoOYGhIm9xmDftNvRu1NZ3C+QQlenSb3ltRxVNCLuxyLUeAlAMFD7YAdscvQlhmp3+o0kcbFezbsDdSu3y8CQSFUQ2w7KHpUNu1G75D7UKuWJtTPlHI5LczYbnq9/Z27ARksMz+aNZRoWbbCUYYTz6ksZha6NmgsQijvHUFN12FTje4666n10zi/G/IXLMfumxUhJ7xr3C3BbVWGH3oZrWFk84Zrto0OnnujUtTfzXHZeN9PtATTsNxIpxpNPPYtt925v0PZnzpyL+/luKglAMJE/kIf1bg0StiT1xbkJqy8PCQbQULvsQaD6SeCu/a0XHFQI2LIXdWsfk0HA1DMgw1Td+l3M+2tnb2K2+6Bkjq5ZUZW1DNnejnFffyFNzQEIKwfepDMmAwp7oSwSJeJfP7v2ENJSuzRqPyNGTkGHTj2RkV2A/x3/HMWlQ+J+EW5rml06uV7QO736wDXZT8WAURgyTAOO9MwIRo6eimAojNffeBvBUBgDh4xDelYEwVDDAOGJJ5/Bm2/9F8FQGFm5hfj333+RmVNQ73sEICSwpvp6Me15D4TH498ZDfAm1KtNqJ2zBbULtqJu6f2oq9oJbN6jeR5oNZWxp3X3AeCOZ1BX/STq1j6KuqUPoPbmu2QA4Iz65aWcm5Xbdfut27yH2fah5CFMIuJYR3dRxtgC1dSAcGvFLNRUHcZva57HgcrNeHraBpRFojj02G24dOI1XDrxGgMKw0qKMaykGGWRKD5c+Gij9jVi5BTkdOiOYCiMeQuWYvqMhQiGwrjv/kdw9z0PIRgKY+3628j2a9ZtRnJKJ4TSuuCpPftwy+JVCIbCyC8oRWFRXxw89BKGjpgY9wt5S9HUPuPqhQNaY3uMvKp98YCQlpmPUWOmo3rLXfj777+xofpO7H16P27feh8ycwoZQLhz6/3YevcDus80gog///oLU6bNI4+rN9+FYCiMlPSu6JxfLAAh0dXBH8Z6K9vD/+O+8xoWdrhWummL7I1YsBW1t2xD7eJ7ULvkXtTeej9qlz6g6db7ULv4XjkZ8Oa7UTv/TtTOve0KDP3VqW7TU3owuWs/s81tSX1JSCFZJCK2WDUlIAyMDsJHtzyKskgUsWhU+VtAwODSidfw6Yv3oSwSxdv77ifP/fPdKyiLRPH10r2N2t+IkVPwzz//oK6uDi+99BqCoTBCabIXIjO7AE/t2YdIYRnu3vYQYzD++usvBENh9OozEItvXYOy8uH44suvTY1KIqpXp1JTGNg7tQolkShKo1GsHlKJU6v2o6bqMN6dv+OK98cDQm7HIjzw4GMIhsL4/fc/EAyFMW7SLGTmFDLrpL4WDIXx7bffk3+npHc1XEsAyC8oxf0PPor8gjJ89PGnyuf8juSQ8CAIBXLhDeRimqcX08N/k60cHxTPbl5QuEJdmlWNuvWPA3ftl0METbSf/1XMx2/jVqF24V2XBQQ17+BmW5+4r6+QuZoKEFJTu2DFoCkoi0TxySs7cenEazjz6fMY0KMHAYHTHz6N47sWoSwSJc+99dAS/G/nLSiLRHFz38pG7VP1IHTvWYEnnnwWwVAY6zfegS+//AaP796Lt95+F8FQGLW1tUjPimLw0PEIhsI4f/4CPv/8S3z++Zd44slnUVY+HEuXVyEYCuPUqdNxv5CpjF1lAAAgAElEQVTHW6GUzqipOoy+BT1QGo0aalT/wVhy0zyUFRSgNBrFgG49SajoSvZ5pYAAgKzl559/yXwmDwjpWRGcO3cewVAYly5dwttvv4vMnAJsqL6TbCsAQYjIH8jDSnupLnb+bN5Y/DltPS7NjD8MGMGBzt2/cbduu39mbLjqfanno2bKWl11R93tzxhuG3NH4r6uQuZqKkDYMW6Zzlvwx5cvERj49aPncHzXIgII/37/Knn8zPqpGNurX6P3SYcY/vjjIlLSu6C2thahtC6YM3cJAYTNt21jjEVtbS0ysqMYNHQcOnbuJQCBU03VYZRGuiFW2A17duzHyW++xslvvsZ3X36Bk998jbdffxP/9/r/4eQ332DPjv345OhRxAq7oTQaxU8rn0NN1eFG77NiwChMmTYPXaOl6BotZQChrq4OGdlR9OozEAOHjENySieynt9+dwKd84uRF+6Bqg23M5+5cnU1/vzzL+R1LELXSAnzG3j3vSM4f/4C+fxlyvoLQBDSqb0vD4ut+qmAt9n74p1eM+WZDi3Es1B3632GuQj0Nr+NW4WNlhi+G7ak8QAyU+5hUDN5LTYnySWiW139cWlmNZNHUbvkPuo9G8k5C/riv55C5moKQJhTNpnxCqhSYeC9ffcSGFCf4x+fXX0QD49be02OZ+zEmZfdprz/SCS3gIt2S9O4nqPw8uy7UBqN4sTXX+PJh/bh2y+/wCdHjqKkoBDH3v8Qt85dgamjJxNA6Ntd9jQsmLEEpdEoPr7lUTw37fZrelz5BaUIhsLo1rNC91puxyLkhXuYvnfVmk0YPbZx3qm2KAEIVymvPxfT7D0MxwdvspXjcP7ka5DUeGW6MGkN/qlcj9p5t18WEN7pNZNUazQcDDbihxtvxQOBwUyyofrvX8asQO2samDrPuDuA8x7P47NI/kHkkhMbNFqCkDYNGIONt86B5/uXEzg4J1HlxnCwPFdizC8T0/y76MPL0RZJIoj/Sqv2D0tdO1UU3UYpdEohpT1xWcff4rSaBRlhYWIdeuOoX0HkRBDWUEh1i5ajzur7sWA3iV48I6dTAjiSrwIQk0rAQjXSv5cjHF210ECrW3SALxaOBU1k9Y0CzSoHo3aWdX6igguH+BQl4mXBYQ/p6/H8YoFeDz9RuIpMNJ6pepjS1K5KVhsscvvH+wsjP/aCdWraw0I5fkVGNStFz49/CA+2L5ABwM8IOxYNgGT+peQxxXdCnF7zyF4f9BcnFq1P+4X0URWj3AJdk9ag3XLl6M0GsWj9zyJWGE33LHhfsybfjNOfP01nnp4H3bcswsffXAU/Xr0Qmk0igN7DmHXjqcwLDYA44dPFIDQQiUA4SrlDeRAUpTq60A8B18NvgV3u/szDYCMPAz3SAPxcnQKfh61HJdmbrymOQzqfi5MWiO3h6bzAZY9yGy7J3s0NlpiuNs9AJdmbsTf09fjo7K5eDztRtzh6IfqesBng6UMK20l6O7pikAgFwF/LvEk7M0ZrTuui9PWk/f6hPegxetaA8Irs+9FLNoNI0t6oiwSxfoZQ+sFhFlDYugfKcTW+SOxZtoQlEWiOFYxAzVVh5GS2jnuF9FE1j2jZDDYvK4Kxz74AKXRKPbs2ovvv/oK+/cewImvv2b01PYD2LzqDjz1yHPY/eA+7LzvaZRGozi9+gC65vaM+/cRYiUAoVGSQcAbyIUvaKBALjYoQPDX9PXkbvn0mBV4oesk3O7oV6+HQVW1JYZ7vQPxVOYovN5tGo5XLMTPo5fj4tQq/DV9fYO9DzvTRmCjJYbHUoejdhZVerjtoG7b+3yDGnRsGy0xbLCWYbm1GINcBcjw6ZsaeQO5KKGmYz6WMgK/T1mLf2dsxIVJWp7CCJfwHrQGXWtAmFM2Ge/MfwCjoj3wSmyyYX6BDA7DcXzXIvQtLMCRfpUoi0QxININxypm4L8VM/DFkifjfgFNdA0uHIwNw2Yp+QdfYc+O/Xj+uQOYMHyEaTUDr7tHLxLegxYqAQiXleYhMISCYC4BBimQi5uT5ImQL0enGBrtf2dsxG/jV2GTVY7Xq2qocWZAwhrDJms5NtsUJVGylWOTTQsDqMBSu2CrrvUxnTBo5B1Yay3FREcRot7OaB/II9/Za3LO1Ocr7T1NP3ettRSSXz238V5jofrUFDkIZ9ceQk3VYfzfgNmYXliMZRMHMoBwrGIGyiJRvP/QfPKY1rm1L8T94ikk68yaQxjTuy9r+COFeGTCMrw8+y58smgnvl76FNMX4a259+G56Rvx0S2P4cK6F+P+HYSMJQChXpl7C1QjyP8tkDozsX8j/TRqGTGUIW8uJF8OQt489PB0wVhnNyyw9cYaSynWW8quGB547VS8CEb6u3IDBwUxVNp7wOvPgeTLgcefTSlHJxqQaPmCuZjkKNIdyyprKfzUedUgLN7rLWSkpipzVI3FOyNvZbwIKhCMjcohiOVFFThWMQNv96vEpzc90Ox3m+EuJXG/ULd01VQdxtGbHzFskvR+v0q8WjEDn8y+z/D15jzO3HCvuJ+r1iQBCKbSw4F612wECqp8wVzSmvmsyeyGzcqd/ZyknqjPM+ELyAr65bLKPF8YUakLSjz5GOCM4kZXIcY5u2OyvQjT7D0wI0nTdHsPTLYXYSJloGsmrzU8ngPKiOV11lJMthchzd9BOYYckmPBQoKm+uBJhYYMX0dMdBRhlr0Xunu6Gp5HAQktV00FCNG8XsRI9I12x/2LxzGAwEvdtqjjlRvsidOXNvo9RX2GMY/HT12CXiViOiFjSLK66Qz/iVuf0q3h2/0qmW1Ku/S94n0OGzW70e+JdGNLHidOX4p+gybH/fy1VAlAYJTDSDViPAQYQQFt8MY55GqG2x19mV4Il2ZWY3tQnj9QZSmD158Nb0A2wr5ALrzK3bik3Jk35Jjlu/hseHxZxvLnYIoCCVuS+up6M1ycVkUAIs/bEZJfOxaf+t385oDg8WdTQGAMO/R58wb0j7VtaEgQsNBS1JStllVIOLniWZJ7MCBSSAzKfydUMQalf2TAVe2PBoS8Tr0xeMQMDLlxJgqKBiIYCiMrrwjtUztj2KjZGDS8EulZUR0gBENhAQgG6pBVyKzVkZnbmnQWAw0IWXlFGDJiJm4cOw8duxQjGJJbJ7dP7YxBwysxaHglcjv20gFCMBQWgFCPBCAETO7eDVzmqkyTFNW7bl8O8SJsspXjzaJKfFAyB1vI7IEYsrwdFcMuu+0lHRBkK39Zd75E7uizWDAwMt7Kaz5fNtZb5O6Pdzj74fzENbg0sxq/jFlB8hSW2op1UEJ/luTPJgCjggPvWfBeLomTgy3+HDdmDYSaT009rElt03t6xT5s6zmMwMEbQ+YzBmVQwaCr3hcNCJNnrMCw0XMwbvJiBENh9B8yFROm3YpgKIyR4xZg2Og5mDJzpQCERig51KlBg5om9x571fuiAWFS5XIMGz0HoycsVNZvPsZPXYJgKIxRExaStRSA0DglNCDUZ8T4u13VeBqFGHxB1TBqBrOPu6tp0l+WtwP1udmKsc/SjD5tmJXPZP9mweXNJGBAez1UY04/5/ZlIlnKNs1nWK94M7T90h6ILAYc1H97/DmalyGQC8nguL2BHEOvQn3JjWZwEe/fSiKrOcY9B0Nh0nLXSN069Lkm+5g4fSk655eic34pBgydjsycbrhxnDypb+jIWehdeqOy3TJk5BQiUthPAMI1XsvuHYuvyT6GjZpN1rKk7xhk5nYn0DBgyFRi+KfMXImMnEL07DNMAEIjlXCAIBugPEXmsXMj1zibmMdKZxz9OahwRYknYYOlDEtsxQj4jWL6WZRRzoTky4IUyJGNri9L+ZsJl1eTLqzAeQ08vixIXLgh1Zunm0q51loKn0/zEki+LHi8mZeBFv059SrAIPn1XgX2PLHJjfTn8FUhAhRahpoLEIKhMBb1m8EYE1Gt0Ho1NzaVWcvz68RatjYlMCCYGx/+37Q8BvF4r2JcfQHt7lp9P+u2Z3McaKBQgUAK5DAgoMqtgoH618ff5dOQwf2bgYZslLvyMc7eDclStuG+CKAYHC/7nPk5VsMnvGdBBQyjc89XQwhIaBlqTkAQEhJqOUooQKivhwGfPGeYW2CUze/T/qrv1+cLsOEC04RCRSoAGEGCx69K9jZojzkF6nnNp4cCBkJMjkvyawbfGBi4c6ACgo86T0qppNF6GK1XfesW799TokgAgpBQYiqhAEFfWifr8slyXFhAdclTcGCWKKjzGBi4/sl7DaCASMqQ5c0gRp4GBMlHPefTv04/Jp8lZZjujz4mU2Cop/yRgScq0dHovNTnyWlIsqNQ00oAgpBQYqpNA4IvmMf81Z43v3O9XEhBDiXoQwfEmPo1wykFcuoBAjoskAmXVzPaHl8GY/DdPu2u3yllwKkYdvl1MwPOv6a91yllyHkGHExIvky4mePgPBYmwMCEEXTfUfMYSH6DfA2/Cgk5l4U31tuTo1trVfH+3bU1CUAQEkpMtUlAoI0Ee9epxc7pKgU+OdEXzGWS7SQl2U7O1mfzC3Q5Cb4s4qp363IFKPd/QLubd0oZcCtgYGz0VSMub+PyZsAppROxr7NG381t6/ZmGGzLQ4X6PuXYvBkGIQt9WIRJoGREGXOqvwLvgeAhoT4vgTdgvK3wLFx7CUAQEkpMtUlAMDL4fAkjv71ZAiINDOr2dH4BE0KgDKbbyG3v1wyvCgbynTptoPVG3kxubwZcnnQ4PGlweNLg8qYTz4DLkw6n8jwLEUbKMFAm+R6058HlyyCQY5gjQecrGJwj3Xkn555NYjRrUiWZrK1RaarQtZEABCGhxFSbBASzKgUj48HOFaDCCOp7qK6GKhgYVR/oQwiKoVYgwE1BAXHzM8ZZMdZKpYJhLgHl8nf7tfc4JQ0SeBGY8GcYJixKjIeC3j97fJonQvN46EMR+vNAgwLvUVDPuwoJPCh4dOeeX2fjSoh4//7amgQgCAklptoMIKjli/WVMfKVCoYhAjWcEJTvbrV96HsdGLc2zmIMMAsF6SahAaNqAzUZkQIIb4ahXJ40ON2phjJ8j4+HkwxtfwZJjTSIsKLyGUjYxLjEUn/+5HOqnl8jTwIPCbTMExjzyO8g3r/JtiIBCEJCiak2AQiXS0I0KqEz8hzoqhSYbZU7YTUb3wwMAloowWUCBvQdvwYHiqE2hIB0uL3p8ChyedPh8clyeFJhd2tyeFJ1zzmlNLjJZ2SQz/GQx0YAoQGDy5tBjtfouzAeESZXwcCjwFR1cIbfsPqBba5klLQoqhuaVgIQhIQSU20CEGiZ9Tmgt6Hr8LXBTDmagSHli1rponkPg0wGDLRKAwMvAVN2qBldhzsNbokz3j4NCtw+WmlwedNgd6fA7kqB3Z0Cl5QKty8Nbm8aXJL8usubBreP2s6VAodH2c7Hf6a8LxcFDm5JFhOu4L0LhomQGXLVBQ1Lfj5ZkzqfBiJDorhSSN6bQOcdmIGCqGq4eglAEBJKTLUJQKDLGenwglHSGutV0MCAhBSYZESl7TDXq4CRagQlOus/nQoL8GDAhgrcUjqc/N2+L50YeZdq9KU0uDypcLhSiNxSmk4uKRVuKVX3vNOdwryX/nwVOjT4ULwRSpiCwAsd7iDfhc6Z0PIUXGr1A920iXRzVEo//dlwK4mQWk6HMkmSa1BFQwC9nmaQIBmsvdCVSQCCkFBiqk0Agio6Dt2Q7HemUQ+znX5Wgq6JkFoOSIOBj/UYSHxuARVCkHzpkKg7eKeUTu72Ha4UuDyU0fekweEKwa7I5U1VRAGENw0uKV2BiXT9a+q/PSnkc+j9qHkMDsUrYXenMB4G9XgJ3JjlLJCeDXSOQoYGCH62vTM978EoJ0Eb+FR/CWRDwkpCVyYBCEJCiak2BQiXmxPAN0BS707VagV1O12VgkGtv1qZwFYkGIcS2NwC45CB6iXQ7vQ1ICAGXbmbN5JLSmvQc+rz/GfLwKBCQyoXqtCO1+Pjchf4BEeuJ4Ou6oGe+WDUaZJqqkRXN/DTIY0BUPM21DcrQqhxEoAgJJSYapWAYGYc6HwCs14HWuhB8R4YfA4NB4Z9DbjKBDmkwMMBCwUuJUmQQIGkgYHsKZA9Ak63dodvd6pqD7uzPVweNXwgyyWxj+uTi5JbSpX346T2wXso+NAFFY4wBwW9N4HJTeAggclJMGmsRDdV8gbkaZH1JyTq+y6IUMPVSQCCkFBiqlUCgpm8gRyTf+vhgPYcaAaJm1po5jnwZigNhLRMfpeXjs2zcODxcWBA8gXStFCBeldPQYHDHYLd1Z4Ags3ZHnZ3CE4pVVEKHJ72sDmDsDn8SHL4YXX4YVP+qo/V52wOP6x2Pyw2L9pZJbSzetHO6oXVHoDNkazsR96/050Kl+rd8Go5DeT4fWquBAUKXH6CHGZgAYGGBGY4lEn3RbpPgtHsBiMQrM+TJGCh8RKAICSUmGqVgEBnphtPXtS2Ze5GlaQ3Es8O0AaDa4LExcqZSYqcG53pZkhVI/CVAvRduXw3T4OBDAEOV4i94/emwSmlwuFJQZIzGZYkP9pZJViSvMTo07I6/LA52ceqbrBJChhIaGeTYLX7NICw+2GzB2Cz+9EuyYckBRjkHIV0AjMMKFDhBxUS3N4MuLza+XB6aO8K25SJhwSJqW7QDDyfj8BUnFBrfLnfAv/bERKAICQkZK5WCQi8GlLWSPcy0HsPuPHMutkCdCY+CwfqHbPbJxtFp5r9L6URr4Hbq3fVOw3AwEnAIEX+t5KM6PCEiLG32H24wSLhBosHN1g8sNi8sDp8irGXZbFrjy12H9rZtO3bWSX5dRUqnCxQ2Ox+2aOgeBosSX7YHO3h9KRqyY8M6KQxAKR+f4cnDW417MDkZ7CloW4f346aHyWtrHGALX2keyPwvwP+NxHv32drlwAEIaHEVKsEBNpNfLm+B/TzdCMkyUc3QtJc2+SOltzZKnDA3AGzcECe82bATcoE5YoEOW9AyzFweFKZvAKnW4WBNGjVCTIoJLmD5A7fYvexSvKindWjGX6bBEuS/vXrrW4NJpK8zGfIQOHXw4KT8jzYA7Am+WCxeZHkSJZDD2o+glJO6XSnkp4Mdros0m8ECBk6SOC9CW6qoRLtHdBNguQ8CfT8hvo6aMb799vaJABBSCgx1SoBgb7Y84bADBCkADuMSevapyTKqZn1TAtl3nOQxcKBLudATUSUDaiuGoHKL3B6UpQQgpxLIINBClzeFNjd7RUD7dODAW3c7V5Yk7y43uquV9Ykr7ytyWfpYIEChSTKq2CxqaDQnklsVHsrEK8J36XRz4EUDwlcIyWJ6o3Ad7ekcxSMIKC+vgjy70GEGAQgCAkJNUStDhC0WQt5DYw508121BCCYnDohkfeTEiBbJKYKBsho9CCQRmj0teANDhSXO8OF1+RoCQcutqTREPVWyCHFVIMocCqyGb3cpJgS/LCYpNwvcWN69txsrhhtcnb2OwS816rXQ5N2Lh92Uh4QoEDh+ZRsNkDJLHRZg8ykOB0p7J5CWpHRhoQ/HQOAvVvdYYDNeBJXRNtjTRIYPsjGIcVWOWBbqYV799wa1O8ACGU0hnn1r6A12/ahp9X7o/7xVJIKNHU6gCBvsib3SWycKD1PSCzFHg4oDwIuomMfs6gefVwQFcqqIDg9KQaw4GzPWyOZDjcISak4JBChmBg48EgSTHw5K+kBwNKN1g8Bu+XGGAw8y7wHgWL3cdUP1hsPgIJDldI7p9AlUKSxko+o3CDQaiBggQ36dBIexY0zw9f0UCvu9G4b82rIAChsWoqQOiSU4QhBYNNX6+pOozySAQVhQUY3K03+uZXxP2CKSSUSGqVgKAaAbP++zwg8NUJktGQJiox0a12+GNyDzI4QNAaILm8GhyojY5ITwFPGgkluNVqBEcykVNKgUNqb3AXTxn0JN5zQIOBC9e3c+EGqwcWm0SMv8XmxQ0WY1CwJumBQwUFo9CDBgaSUkHhkyseHAEkOYIMDDlc1GwIH1cCaeSJ4bwITMIiE2agB2XRkzf1IQZ+/UX75ZYHCJ8tfgK7Jq3GgcrNSEntYrjN6F6lGFbSC8ffeBzl0UIMLRwS9wum0NUpOdQJqwbOQ03VYbw59wF0zOoW92MSMlerBASj8ILRdvy0RrW00bDvAQcJMihk6AHBIO9AHZ5EYvFutdGQ2vpYa1ak5hs43SmwOZJhswe1JEMCCHpPAQsGLqJ2Vg9sdg+sdg+sSfK/VVmUvzdYtO2vt7hhTZL0sMDvx+5DuyQvSXC8wSKXRdqcci8Fmz2g9E8IwOYMyp4TalaEXclJYBoq0fMbOC+Cy2vcZZGvZlAbJbHtsHMuO3dDAMKV61oDQq9Opdg0fDb6RqMoj0Tw4oy7ddu8cdP9KI9E8NORfTjy4iMojxaioEPvq973oRdeYTTsxslxvwgniubGpuDbZXtQGo0STSwejHNrX7iqz33r7XcBAA8/srtZvkdmbiF6l5h7viZOvon5jcX7vF+NWiUgaAYgr96LP1sKl2MACLmaAeIGMbm82pwFpnLBnwk38R6kU2OVU+BwK7MNSClgugYHSj8DknPgTYVTCsFKGWE1oZDkFzBg4GXA4HqrG5YkGQIsCiDIUCBR/1aUJOt6ChRusLgN4IOCEIsbN1jVUkoFDvh+C/YAkpwBWB0BrYRTGSplWNWgnD+JCjOo0y/dVPMkMtCJgwApoAxyCuSCL3U0mvIoZjNcG11rQPhk0S7EIhH8890rKI9EcGHdi7ptzq49hPJIBJdOvIZDO29HebTwmuw7OaUTklM64Z133kdySqe4X4ATRRlp+dg9eR1Ko1Gc/OAZXDrxGi5+/R8CClcKCXV1dUjNyEcwFEakoAztUzs3+XfJC/fA0OETTV9fvWYTIoUx8luL97m/GrUKQDC/6zPvt09nuTMtmLnOiXSIQcs9UMMLWjtlp5SuAIP8b3lMszL10KMafqqBENVciG545KI8CXZ3slaSaJNwvdWN6yyyNJe+hwGDG2wutEviAMDuhVWBA4vdS0liAMKqwAIDGu3kfVlsXtxgVZIdleoHC1U6qSYuMmWQ9gDxJCQ5AvJ3pqdPelOpyZBy7weXVw3L8COiqYFOas4BHRpS15bqrOgl68pCn/qb4cMPQlemaw0Iam7BpROvoTwSQU3VYd02H978MNnmszd2ozxaiOyM6DU7hv975z0EQ2E8u+95jB5XibfefhfPPHuAvP7zqdPy359P48MPj+H06V8QDIVx5uw5rKu6DcFQGPfcuwPRwhjOnTuPp/bsi/vFvKVo/dCbUVN1mOjE8mfw08rnUBqN4o8vX8KlE68xGti7J27pPwH98vs3aj/vvvchSmJDDV87euwT/PLrbwiGwvjm2+9x7tx5dIkUK2t6Cjse3o0zZ86S7T/77Euc/uVXfH/yBxR0i+H8+Qvo1WcggqEwuveswJkzZ/HxJ8cRDIWRlpmPrpESBENhnDp1GqdP/8rse/WaTehaUMo8d/Lkjzh77jyycgvJ7+vll1/Hb7+dift61adWAQi8tEQzfUtd1VCwd47UWGfms6j303BA1ed7fFmaIVO6A8pwkKb0BNDKGpmZBZT3gG56JJcyyoDAJiTKd/DXKXkD1zHJhrIxtyYpRt4QBhoi6v0MKLD7vI4JQ3DVFDQkkO6LcqjB5VG9CBosuX3pSq8E6tx50pg21UxJKQcIRmtMA0J9oSajtssCFhqvpgSEgT2L8NKsO8lrWekyMAzq3gvP7ajGpROvkRyETxftNISJK5EKCC+++ApGjp6KYCiMV199k7wOAMFQGLW1tQiGwsjtUISjxz5BMBTGHxcvIhgKY+euPZgwaTaCoTBmz12CWL8Rcb+gx1vfLNvLwAGt0mgUv360D/93/3zcGCvGJ6/swqUTr+Hf719FaTTa6LU9efJHZObIBvfe+x4GALz8yhvM+tFSn7t48U+E0rogOaUTPvv8SwRDsiciGArjwe07MX3GAmb79CwZTIffOBml5cPJ56VnRtBFAQVaq9dswpkzZ/HLr78RSOGPQf2blpmP/7z8etzXzUytEhD4C786d8Goqx59p6l2T9S2NQAExoMgywgQnO5UON2pzERGHSAozYSYkkZvCpzeFDg8IQYO5DwASTPSFBhc386F69q5tJBCUmPBgFKSRADhOsaToIHC9RY3E3pgkic5LwINCE53iPKgUMOdvOlyh0X6/HkaAAjctEd13bReFxT4UZUK8m+EzTMhbZtFFUOj1ZSAsG31AizoOxLfLt2LVQPnEmPSL1qA3z45SO4yyyNyvkJ5JIID0++46mOgAUF9rj5AUC/8wVAYn376GYIhGRCIsciKYMfDzRMDb6n6fvkzqKk6jCeUUIJq9GlA+ODxNSiNRvH+wu0ojUbJ+pZGo/hu2d5G7W/N2s3YUL2VeU4FhDNnzyEYCiOnQ3ecP38Bo8dWEgi4ePFPsv2PP/6MYCiM33//A8FQGJUzF6JT197Mb+DnU6exdHkVFt6yElOmzWP2N61yAS5duoT8qOYx4D0IXaIlOHfuPEaPnU6OgQaY994/Eve1M1OrAISGTG+kcw14QCCGJMACAjPWmS9vDMhJinSIgZ65oHoQ7GpnQYMZCy6JBQSn0u9ABoUQMbo2u0/Xy+C6dm4mZ4AkJSZdieeAVTsu0VGFAxpObiANlnykBFJtpkT3RrBSgGBzBJQBT6kMLNkVmHK4VThgAYHkefCAQA1xYgEhRwd+fChB3e5yI8CF4gsIP3z4LGJKmGFu+XBiTGKRCP769mUKECI4dfQ5lEci2DJ80VUfgxEgzJ2/FA9u34mFN69oMCD88suviHSL4c8//0Qorenj3y1V/523HTVVh7FmSCVKo1FsG30zSqNRLOo/kQKEAiyaNBz9uhcSYFDX9+EVE7Fh2BxkNTKMdPbsOTy3/xAGDBqD3U8+owOEoSMm4WLVNuAAABYcSURBVNZlVeg/cPQVAwIApGbm4/sTP2Ba5Xzm9zJ1+jwsvHkFBg8dz/xOaEAYP2k2Fty8AgMHjxWA0Fyqr52uCgva3aX59Ea69z/dQdFNjXTWqhm0Cga3lE5yEOxuuXKBmbdAVS84mdkKsgfBqfY9oDshWtxoZ/VwyYMSrFzeQDur5wq9B14mp+E6i0upfKCrGiS5PFLJRbjByrZoNstDIIBAw5InlSQqOtVkRW7gFTnH1JRMpmGSESD4tXXl2y3TEkmKLR8QVOM/qmcM5ZEIgQX69dPH9qE8EsEr21egPBLFr2ueb7ILYrhLwyslVA9Czz4D4n4hj6dmlU5CTdVhnFq1HyN6lOm8Bj+seJY8ntd3FKaVDtUBwnsPLcDY3gPQKbuo0fvPzuuGkaOnIjOnwPD1Tvl9rvo7divqZ/h8elYUeeEel32/USiiNahVAkJDyhz1Ge6sB0EWO6DJ7aUHB9HGyrzE0SmlkbkL+hJH8xwEu6s9qVyQEwI9sCVJusoCumyxnUElQkPDCnJPBO29FptaBikpn09VMiTJf9tZNUi4QQGXy4YYqHJHtZLB5U3T2i77WEBQ8zxcSuKiy6uf7siHGBoyuEn7rfBDnESIobFqSkD48cizmFRRjPJIBKeP7SdJizQgfPp0FUYUF+H+RWOwatBkYmziffGkQwyJLHU9vlm2R5d38NMqOTlxcskg7Jtejedn3Ib1w2aiNBrFzdPG4dKJ1/DB01uwee4ozCofhbS0rnH/PkKaWiUgGHXKMzIKfB8ENczA5x/QQ5pIN0WjJkmkxXIGMXhk9oKUpkCC0jDInUJCDGoVgwoGSY5k2Bxa/wMr3xjJzkv2IliT5OREPkRwg9Wt5BYYgIHVbRCiUCobkjy6fVmpxkxqaIGfBsnMbVAAIckRgNOdQroqyn0QUqm2yw1rluTysjKb7MgObqIHOrG/E6Nuika/JaHmA4Tz615gAOH9h+Zj1ZxJOHjfclREC3WAcHzXIhzftQhLxg3AQ+OWMgYo3hfQRNe783eYJiXS2j5+OUb2jGH8oAqsv2UGWdu/v30Zx3ctRmk0im+WPhX37yPEqlUCgtZX37gJDm8Y2CE/dCc+qq0vX+poNsFR12Y5g53BYNJiOUlpsSzDQbL8ujtIVQdQDZIMIcGrAIJWxdDOJukTDS0utjESAwYSaapEew0MWznbtTHS7IRIiZIX1iS5oVI7m1eby+BJpZIU+W6KGTrvAXNe/Vr+AZmm6c8iIEDPZKAbYPFDmox6IRi1WhaA0PyA8M687YhFIvj23b348cizOL5rEZ7ZugRv3zeXAYS/v30Zn+xeQQBh1tAY7hq1kDE8Rj0UhJpP9Fr8fMuuy4LCiReeJXDw+xcv4viuxfjfzkVXVMUg1PRqM4BAGwg9JPBtlalhTQocMI2S1FJHoymOBnMYXEo3RbWkj0ACBQg2ChCcHqXU0UtXMvhgYQy1UbhBCztYqV4I1xkAgRaGcDH9EIzAwJqkeg4kBg74lss2h1zaSAOCPJPBqwyhCpER0PzQJnr8M90oiQUENkGRmazplwc2ST4+L8F8HoNRK24BBPEHhJ7hUswtH46lMyfin+9eJQDwxrY5KI9ECSCsmDKIvHZ81yK8de9clEcK8NPSPcKL0AK0ZfgisgavDZ6PYxUzcKxiBt7qOx1n1hzUwcEXDz8pew2+ewX7b5+P47sW4/iuxRhS3AMje/ZDl5zLx/KFmldtBhCMt9MMAw0IumFNfCWDISBQd73MLIZ0ZhaDW5IbImlehPY6LwLbTTGFgwTj4UyGoQC1DNHGNz+iExrdujwDs5ACPY/BysOBU6teoOGADG2iBzZJaQ2cxUABgjqsya8lKMrhBXqoln4WQ0OHdYlhTS0HEIKhMD5bvBvlkQjefXQ5AwHlkQjG9e5PKhlWTB6ke/1YxQwBCC1AU3qPJWugwgGvp8qn4beV+/HDc8/gwL3LCRSoennrbOE9aMFqlYAgBYxdyEYGQgoYwAHxFmRrgODPNu6F4OcAwWSao9oPwelW5xEYT3JMUuQk5Y7yJEfaIKsjlxlIMJnNIFcl0A2V9P+W5zVw3gKDcIbqNTCEAyUpkQUDDQ5UQHCQ3IOGAAI38tkA2gwBgZGxB0Ey+G0ID8KVqSkA4dSqA6SvwdGHF+gg4EDpePyyUq5eeH5zJXlt5tAyBhDOrj3U5BfJoj7D4n6hbqm6HCDQ2jNzEgMHL90xq9nhINJNTARtjFolIJjlGtCvSQE+SZHtpqi9lkUZKm4EtEmYQTJIVnR40rSZDK4UOD1UN0FJCT1IKUy4wU5AIUU37tnKiPUoWJVyxessWu8CeZIjCw8Wm0T6GlxnobbhPAbquGe23wFb0mixedncA7sfSY4g1RBKHnGtVS+k6uHATw9q4vMPspg8EInyJmgQp1Uw8Gtr9BsxKoMVHoSWAQjbx65BTdVhvH7TPSiPRDCmrBeBgP/tvAXjo71xrGIG/tt3GsojEfLa+slDGUBIbuR+J05f2uhj5QFh9MSb0atEdE0MhsJIS+2KmqrD+E//mSiPFlwWEj5+9BYc37UY0wbHUBqN4vvlTyM307g88XIaNmp2o9/DA8L4KUvQb5AY2GWmNgMI/Gu8oVDL4UjDJOV1YmR8bPa8UUdFo2RFp5TONE1yKhULak8EN3lMzWbwpJJwg82RDIcrpPRKSIHV4We8CDw0MH0TSHmklrdAvAKUl4A0YVLfk+Qln281ghKlQsHq8MtJiExSoh9WpWLBRfV8cFNzKFRYUrsnur3p5rkHBt4DZg1Iy2VtUBPfRdHoN2LWA0EAQuPVFIAQDLEJbuWRCJaM709A4O1+U4lRmVbYB+WRCAZ2LyTP1VQdxpxY4y/sNCAU9R6CwqKBGD9lCbpE5e+YF5b7IIyfugTR7v2R27GXoQdBAIKmrrk9cH7tC9hZMgpzu5eawsF7627C8kmDUBqNoiQSxdm1h5BmMuq7IaIBoWtBX3TvOQgTpt2KnI49EQyFkZoRQTAUxrgpixHtVoH8wn6GHgQBCOZqlYBgZggu9zrTeY/ahi6F9DCQQGfX016EDLikDKZ1sMuTptwxpyvudb3hlD0J6drwJk8KU93gcLeXvQmeZMVAa8a7XZJSakhNWGRnJPiU/AEv8TjQ+QRWu08ZyOQhn6M2QKI9BqrXwGr3MRULKhgkOYPyzAW1a6SX+44krCB/V7q1MgNYTO5BJltmqlaV+Ck4COQycEAnJ2reo5zL/jZEiKHxaipAiOT2JICglj6OjfXCsF7ddcbljfIp5N+/rjqATxY9fkX7pAFhysyVGD91CSZNX4ZgKIwhN87CpMrlCIbCmDBtKcZPXYIpM1cKQGiAuub0wLGKGcwo52HRIgwrKEJFtJA8VxKJ4qulT2L/NWiXTQPC5BkrMH7qEkycJq/v6Ik3k7WcSK2lAITGqdUDgia2L7/6PA8Ixl4ENite8mdz9fhylz+XxLZedkrp8nRCPh+BSlp0cZ4ExpugNFJyuFNI2MHmSEaSMxkOV3vYnAFioEkfAgoMrlTtqBHT6iRHK2n57OXAwCd3SXQG4PKkMhMb6c6Ras6BUdWC25uha61MAxh9rt0+894Hav8DdYIjHz7gK1mM2isLQGi8mgoQgqEwJvQaRSDh3b7TMSHaC+/3nW56F/rj0r04tWr/Fe9v4vSl6D9kKvoPmYpeJSPQo3gYxk1eRAxFQZHcFXFy5XIU9R6K/IK+AhAaqOzULjhWMQNH+1XiieLR2NhzENb3GIidxaPwZvkUvD1oLl6fcz/aX6MRyMNGzSZrWVA0AL1KRmDMpFsQDIVRHBuFnsoaTapcjqLeQ9CjzzABCI1UmwGE+srZ6JkMUj1eBKb1MuXqdnkz4VLaAautgV1ePh+BhQTJpyUuGnkTXIo3wU3yFFK1SgcaFhzJsCbJlQM2dQ6CIiYU4OBCAyai39/Oxvc14HocOAJIciXD5aFDJAaeEeW7Sr50qmOiPinR5c1gWiu7pAzmHGuVC9m63IL6vAd04ywjcBC6OjUlIARDYYzrORI1VYfx2+oDxMB8Q9XUfzLzbrxcPg1n1xy6KjgQah69VjZFB3a3dxeJnq1RbRIQfMFceDnDQfdEIP8O5EIymc0gBXLkO1oOElQvgq7DItVC2M10WaS8CV76rpse8iQbXwdXFkknNDrcIbkTozsZNmeAJA+SmQhUQiGBACf3vJMDBru+ZFGuTvDD5kymQiLsGGdzr0G6/N3p5E4vG1YgcMB1THRTXRPlNZDXjrRWDtBhImMIuFyHTaErU1MDQjAURnHn2GWb7JxefSDuF0yhhqkwswBP9h6Dx3uPRp5on9xq1WYAob7hTfrX6ImAuZA4QFDLHnkj5lLCDHpI4FsxZ2p30lTIgQcFl9KG2e1Ng1NKocoi9eWRdmd7uDwp7PhoTwrs7vZIcgTlMICdNf42u9YKmX9sswcIEFiT/EpVhbJftSOiGhZRmx8xYJCmfB99SIH1HGhw4CJwkKGDLy3vgA0teA1mL5gBwOXKXoWuTM0BCMFQGCmpnU3h4NtGjgIWEhK6erUZQDDqqsfHpmkvglHCopasmEWSFdnyO8VVTkGCm7lD5r0JGRQo0P0SNFBQBxs5SB+BEONZcLpTGWBwuELabAclh0H9y8tlIocrhQERhzuF8RTIpZoh5bhSqFkSChhQHgNdGaNBxYfbK09tdHFhBbrnhFvJP+A9CHRoQe550NC+B2LE87VScwGCqsMz7mbg4KWZ2+J+oRQSSkS1IUDIhcQlsPGv0waETHhU70yZBkpZ4BMXmed9WXD72JwEHSgw1Q96UJANcSqZBKlOPdSS/6j8BC/XnVEBCdWou0k+g7lcnjQ4PCH2MzwpcDMlmWyugcOTSo7N7k6BU0rjwCDTxGuglTKSnA2SmEi1U6bPr589/5LixaGTS2k4MMox0Z4XcHAt1dyAICQk1DLUxgAhF7RxaAgk0F35vEobX22EMNWBkR/mpDRScnk1UCCZ+SooKI/dfjqjX+2boPVOcHm5hEZvGvhKAZK74EklngYyNVLND1BHSqteBK+cM+DwpFCdDkNKNQJXiSClsV4C4umQSxWd7lQ43GlMXwPjcEIGSfCkkxHlbSkAUGct0OdYNeo+bS3U570moQV9LwwBB9daAhCEhBJTbQwQ1Jp5cyPBwkEOY5zUZDg+aVFr05ylhwQFFNgKBw4SFFBwUn0BHJ40nVeBDkGw0gw36VqodGxUpQ5JcnNGn97GqcIEk0eQptsf8RCQ49K6RdKSDMIJHp/mMXBLGXLYgOtSqcIBm5Qon3M6KZGuZlBlVMKqrb0Ag6aQAAQhocRUGwOEXGhGQm8w6LI52ujQ4QYpICfG0Z/Hj4tmvQmK8QvIngIXBQp0vwSnlC73AvDQmf7qwCd9CEKrCmCTHN1c+aTq/iehCl7Ka/R7mM/xalUIhrkFqihvgdOjeBX470eFE9w+1WOiDytocxZYOPAq557JIVD6VrBrZbbuOdxvQOhaSACCkFBiqg0CQi7ofge8V0E1MOyQH31/BJ/J59FGTe9NyITbx1Y6aKAg/zVMZmREGWUdNGQw4KA+diihCk0pzGMPb/h1fynRMGCYW6B5Q3gwUMMJBAr87Pnhy0h5iKOrFdREUqOwgocDOOE9aFoJQBASSky1UUDIBW045HHP+jtQvjcCE+sOGDVSYidDmuUm0CWRbg4WNK+DQeWDITAorYjVPAYDeHB40uT8ADVPwJ2mD2Vw3gC3P4PNjTBNNuRDCFo/AzqUIJcuauWLdDiBP2d8pQLdRtnLwJo+KZFZR7+Ag+aQAAQhocRUQgAC6wEwgwS2RwLtTdCHHPR3wh7Dvgls7wS3It2oYyp+T+cs0ImOhvBgkNdgJrP36/bhy+SAIlN3vG4KfFwmfQ2MOyPS54wKKQQ0UKN7VBiVM7L5IcaeCKFrKwEIQkKJqTYMCLnQPAgsIEiXgQT6fXTXRfoulgYDujWzmyqFNPQsqFn9ZIYDn8THAYOJp8FFD0KS1FABu42bSix0qtvV6x3QqhD40IkKFXQvA7fXOMeAbn7Ewxm9PnSHRPV819fsSGuHbQR/8f6ttV0JQBASSky1cUCgpfck6GLglwOFANt5UQcCvFfBABL41s26JkNqu2Yu85+dZ8ANizI0+prh172HgIIBCNDeioD2l8AN1RpZV5nA9DXgKz2UkALjMTBoWmU6R0FLVhRQ0LwSgCAklJhKIEDIBZ/pzlcykEmPHCSoSXNqTFxr6qPW6utr+i/bQ4EbBsUbZD4k4GaSHumeC0ZeCCPJ0EF/BvFi8PsOZDJjmFUY4KGArkrQS4Eon3ae1GZUWt4HlxxaX75BgPXcCEBoPoXzY3G/UAkJCTW/EhQQ9F4E3hjxo6O9JgAgGeQn1JenwHsd6Dtytv0wffdOxfulDM2YU5JMkhsZAAgYfJ6XggN1ZoLS9pj2djBwwHVAZOGICyWoyYQGAMHDmHqu9SWoPBzkQgBC8ykn3DvuFyohIaHmVzg/ZnhNaKOAkAuzpMWGieq6yFU7+Lj98EbUsPZfNbamCY6Uh0Ex3MR1789iwxI8CPgz4aZEPAz+LAYEGrJf4gUx7WFgfEfPT2H0BujzaAwVfG8KOilReA/io0ALuFAJCQk1v1IzIobXhDYMCLlg70JzmB4Jl5McM9di58ydcEAbIW2+Xz00qDF7F+XKNzTUTSCjscvaPjMhBVgoYEM02brvyFYl5IIGMXVUM9/4yMxj4BVQ0GLUsWtZ3C9WQkJCzacOXUpMrwdtHBBomZdCGuco6IcDqXe7fNWDFNCAge/iqP7V7qJNjDgx1NxxKnf1ROpzXLIgv51+CJVa5sjvk/ZUaH0LjL4H7UWhwUBLQNR6TbDnTB9OMK5QEHDQEtShc0ncL1pCQkJNr6zconqvBQkECLngDRGbR6C/u+Xj5nz/BD7pjvYs6FsFK5DgM05kVBMMpQB/F28U/2+YzPIh9OKGKKnnxp9DPAV8HgEdSjDKMaBHNzccDAQgtBSF82NIyciP+wVMSEjo2is5tbNp3gGtBAYEfRKj2RwA1vBpo6Np97hWAWEADIFcLb5PygXZO30CDn4+OZA/1mzmuYY9ZssQPb5sBWKUwVR+pUpBOSbeS0CHEHxB7ZjMwIAuXWwYHAgwaKnyJXeAr31HISGhtqLkDg3+/z/BAEFVfaCQy0BCfY2W6LtpPs/BrBqCxO4DWhxfvVNnyiW5NsUN/165ynFn6zwExCsQoNoeBxTY8Rkca4DPD6jvHLDHUn/ugYADISEhoZauBAUEVfrM+fri5vR7zQylVsJn7vI38jLQUuFCvav3+GSw8BpsS4OGN5BL+hCo8gaoZEL6fQZwoyYqGlZx1PNdeYk8AyEhIaHWrwQHBFV6UDCqzdfnFeRqd+MmcXe1rbAqibsrp7sLqiOPyWMaFJS/hoY6oN9WNe6Swb6MvB3qd1CPU1/VYQ4EksH25qEEAQhCQkJCrUECEBiZGzXW8Bm/n8/8N77rZrP8+U6D7Lhqet+NSVDUA4HqCdD2aXxMZs2MGnre9CWLIgFRSEhIqDXq/wF9KtfuEwc/5wAAAABJRU5ErkJggg==;" vertex="1" parent="1">
          <mxGeometry x="340" y="700" width="312.85" height="149.81" as="geometry" />
        </mxCell>
        <mxCell id="FflpXugrEhwSwH_WfC18-6" value="" style="endArrow=none;html=1;" edge="1" parent="1" source="FflpXugrEhwSwH_WfC18-2" target="FflpXugrEhwSwH_WfC18-5">
          <mxGeometry width="50" height="50" relative="1" as="geometry">
            <mxPoint x="410" y="630" as="sourcePoint" />
            <mxPoint x="460" y="580" as="targetPoint" />
          </mxGeometry>
        </mxCell>
      </root>
    </mxGraphModel>
  </diagram>
  <diagram id="xd4TGJirNeWq_ubudvjR" name="Pajaros">
    <mxGraphModel dx="946" dy="615" grid="1" gridSize="10" guides="1" tooltips="1" connect="1" arrows="1" fold="1" page="1" pageScale="1" pageWidth="850" pageHeight="1100" math="0" shadow="0">
      <root>
        <mxCell id="Xmr1LBq3Kq4L_z05I-Tm-0" />
        <mxCell id="Xmr1LBq3Kq4L_z05I-Tm-1" parent="Xmr1LBq3Kq4L_z05I-Tm-0" />
      </root>
    </mxGraphModel>
  </diagram>
  <diagram id="Vv6anJHDCylagWfUZ-Zq" name="Plantas">
    <mxGraphModel dx="946" dy="615" grid="1" gridSize="10" guides="1" tooltips="1" connect="1" arrows="1" fold="1" page="1" pageScale="1" pageWidth="850" pageHeight="1100" math="0" shadow="0">
      <root>
        <mxCell id="MCfMcvq8srAt879Lvjf--0" />
        <mxCell id="MCfMcvq8srAt879Lvjf--1" parent="MCfMcvq8srAt879Lvjf--0" />
      </root>
    </mxGraphModel>
  </diagram>
  <diagram id="jBipWICmQ9UxVTZHT4Ef" name="Reptiles">
    <mxGraphModel dx="946" dy="615" grid="1" gridSize="10" guides="1" tooltips="1" connect="1" arrows="1" fold="1" page="1" pageScale="1" pageWidth="850" pageHeight="1100" math="0" shadow="0">
      <root>
        <mxCell id="czR3bHyMKL_cxd3z5Ic_-0" />
        <mxCell id="czR3bHyMKL_cxd3z5Ic_-1" parent="czR3bHyMKL_cxd3z5Ic_-0" />
      </root>
    </mxGraphModel>
  </diagram>
  <diagram id="McVIz0yevnQccS0MWP1L" name="Insectos">
    <mxGraphModel dx="946" dy="615" grid="1" gridSize="10" guides="1" tooltips="1" connect="1" arrows="1" fold="1" page="1" pageScale="1" pageWidth="850" pageHeight="1100" math="0" shadow="0">
      <root>
        <mxCell id="8j8Rwqu7C3OGfHkCwWbn-0" />
        <mxCell id="8j8Rwqu7C3OGfHkCwWbn-1" parent="8j8Rwqu7C3OGfHkCwWbn-0" />
      </root>
    </mxGraphModel>
  </diagram>
  <diagram id="S9wgpSkJMyoRv0npFkx2" name="Mezclas">
    <mxGraphModel dx="946" dy="615" grid="1" gridSize="10" guides="1" tooltips="1" connect="1" arrows="1" fold="1" page="1" pageScale="1" pageWidth="850" pageHeight="1100" math="0" shadow="0">
      <root>
        <mxCell id="-Qy0_AOLIRXcqkbsNYPL-0" />
        <mxCell id="-Qy0_AOLIRXcqkbsNYPL-1" parent="-Qy0_AOLIRXcqkbsNYPL-0" />
      </root>
    </mxGraphModel>
  </diagram>
</mxfile>
